<?xml version="1.0" encoding="UTF-8"?>
<svg version="1.1" xmlns="http://www.w3.org/2000/svg" width="622" height="713">
<path d="M0 0 C205.26 0 410.52 0 622 0 C622 235.29 622 470.58 622 713 C416.74 713 211.48 713 0 713 C0 477.71 0 242.42 0 0 Z " fill="#7F4884" transform="translate(0,0)"/>
<path d="M0 0 C205.26 0 410.52 0 622 0 C622 235.29 622 470.58 622 713 C416.74 713 211.48 713 0 713 C0 477.71 0 242.42 0 0 Z M305.37109375 13.53515625 C304.43217285 14.08937256 303.49325195 14.64358887 302.52587891 15.21459961 C301.50671387 15.82440674 300.48754883 16.43421387 299.4375 17.0625 C297.24649757 18.35745433 295.05507723 19.65170178 292.86328125 20.9453125 C291.72842285 21.61723633 290.59356445 22.28916016 289.42431641 22.98144531 C284.01298069 26.17130156 278.56961817 29.30490064 273.125 32.4375 C270.9465689 33.69262904 268.76818378 34.9478379 266.58984375 36.203125 C264.96344971 37.13995117 264.96344971 37.13995117 263.30419922 38.09570312 C259.97385748 40.01506662 256.64490852 41.93682353 253.31640625 43.859375 C243.34856684 49.61613159 233.3760793 55.36365676 223.375 61.0625 C214.98067687 65.84756897 206.62960353 70.70413192 198.28808594 75.58056641 C187.64434755 81.7998955 176.96428369 87.95567917 166.28222656 94.10888672 C160.85340058 97.23680148 155.42680719 100.36858448 150 103.5 C147.83334417 104.75001879 145.6666775 106.00001878 143.5 107.25 C142.4275 107.86875 141.355 108.4875 140.25 109.125 C78.5 144.75 78.5 144.75 75.24829102 146.62597656 C73.08731012 147.87270256 70.92634002 149.11944727 68.76538086 150.36621094 C63.26181149 153.54145883 57.75803968 156.71635495 52.25390625 159.890625 C46.84468656 163.01019674 41.43634189 166.1312815 36.02832031 169.25292969 C33.07967302 170.95403579 30.12977955 172.65296349 27.1796875 174.3515625 C25.43225586 175.35931292 23.68485788 176.3671217 21.9375 177.375 C20.74072632 178.06287598 20.74072632 178.06287598 19.51977539 178.76464844 C16.05917087 180.60672989 16.05917087 180.60672989 13 183 C12.88712039 184.83552526 12.84496508 186.67541475 12.82946587 188.51434231 C12.81699094 189.71890463 12.80451601 190.92346696 12.79166305 192.16453117 C12.78276833 193.51849503 12.7740021 194.87245974 12.76535034 196.22642517 C12.75275487 197.65147047 12.73976562 199.07651233 12.72641385 200.50155073 C12.69100423 204.43630227 12.66222597 208.37107877 12.63473058 212.30589259 C12.61044428 215.67643251 12.58253012 219.04693901 12.55477427 222.41745185 C12.29325018 254.37557953 12.15148182 286.33460316 12.03706169 318.29355526 C12.02189376 322.4558771 12.00643625 326.61819776 11.99072266 330.78051758 C11.98682888 331.8150723 11.9829351 332.84962702 11.97892334 333.91553188 C11.91405821 350.66726521 11.78622998 367.41793952 11.63426696 384.16908412 C11.47959929 401.36113131 11.38940279 418.55262711 11.35982525 435.74534994 C11.33961346 446.35285286 11.2696977 456.95761653 11.13606657 467.5643068 C11.04930995 474.83834835 11.02548689 482.11090969 11.05096339 489.38541698 C11.06383421 493.58288997 11.04925745 497.77548559 10.96004868 501.97213554 C9.88839012 517.87239783 9.88839012 517.87239783 14.65805101 532.29023099 C18.60025799 535.8292866 22.90399824 537.72860708 27.91835618 539.29267895 C31.0517059 540.35735879 33.62716255 541.98591404 36.43359375 543.73046875 C38.43446621 544.88355831 40.43577394 546.03589289 42.4375 547.1875 C44.68620951 548.4830528 46.93490708 549.77862632 49.18359375 551.07421875 C50.87718018 552.0494751 50.87718018 552.0494751 52.60498047 553.04443359 C58.0716998 556.19332054 63.53574887 559.34683264 69 562.5 C71.16665311 563.7500235 73.33331979 565.00002347 75.5 566.25 C244.49999999 663.74999999 244.49999999 663.74999999 247.7512207 665.62573242 C249.91378583 666.8733474 252.07638339 668.12090616 254.23901367 669.3684082 C260.83018885 673.1706083 267.4204723 676.97434274 274.00878906 680.78149414 C276.19012946 682.03997216 278.37304447 683.29572529 280.55761719 684.54858398 C285.76905538 687.53922981 290.95270302 690.56288307 296.08984375 693.6796875 C297.04656982 694.25114502 298.0032959 694.82260254 298.98901367 695.41137695 C300.77912831 696.48190001 302.55998597 697.56811831 304.3293457 698.67260742 C308.82124532 701.41113918 308.82124532 701.41113918 313.9140625 701.69140625 C318.53321733 699.15964164 323.10248982 696.5766106 327.625 693.875 C329.78575431 692.59906743 331.94724252 691.32437705 334.109375 690.05078125 C335.23794922 689.3851416 336.36652344 688.71950195 337.52929688 688.03369141 C343.27945493 684.65487651 349.07947173 681.36261114 354.875 678.0625 C357.24249107 676.71277147 359.6095927 675.36236116 361.9765625 674.01171875 C362.56138397 673.67804291 363.14620544 673.34436707 363.74874878 673.00057983 C378.17052457 664.76808399 392.54048519 656.44587531 406.875 648.0625 C415.51287321 643.01170983 424.18319551 638.01975697 432.875 633.0625 C450.25801694 623.14798769 467.60067715 613.16543095 484.875 603.0625 C494.1456967 597.64050983 503.45936595 592.29676047 512.79046631 586.97976685 C520.88707843 582.36515971 528.95788801 577.70915114 537 573 C545.63497744 567.94368968 554.30612953 562.95404743 563 558 C572.06588976 552.83300152 581.11181502 547.63363364 590.125 542.375 C591.07761719 541.81941406 592.03023437 541.26382813 593.01171875 540.69140625 C595.67768123 539.13278522 598.34224561 537.57259063 601 536 C601.79947115 535.67187885 602.5989423 535.34375771 603.42263985 535.0056935 C606.41129179 533.60879437 608.61113756 532.28777223 611 530 C612.53037218 525.45946507 612.40436171 520.93393193 612.35058594 516.19248962 C612.37070922 514.7652054 612.39514541 513.33797658 612.42351532 511.91083246 C612.48854458 507.99259608 612.49111346 504.07643323 612.48315525 500.15775645 C612.48522938 495.93021274 612.54448652 491.70340526 612.59588623 487.47622681 C612.6866563 479.19478173 612.72157393 470.91400803 612.73406005 462.63210785 C612.74428091 455.89789289 612.76956021 449.16390703 612.80541992 442.42978096 C612.90500155 423.32886216 612.96035703 404.22850035 612.96250916 385.12732141 C612.96269798 383.58280195 612.96269798 383.58280195 612.96289062 382.00708008 C612.96300644 380.9761398 612.96312225 379.94519952 612.96324158 378.88301862 C612.96788481 362.18476075 613.07928167 345.48912758 613.2387166 328.79169672 C613.40119588 311.63881896 613.48122632 294.48723018 613.47665024 277.33356386 C613.47582845 267.70586328 613.50911879 258.08107745 613.63171387 248.4540844 C613.73555891 240.25400114 613.76287331 232.05803142 613.69216228 223.85752117 C613.65828671 219.67480631 613.65925842 215.50007412 613.75710297 211.31818962 C614.7312245 194.90295185 614.7312245 194.90295185 608.8247261 180.40648389 C603.60038181 176.09046976 597.88274823 173.37977253 591.57374763 171.00581086 C588.16797835 169.67484908 585.24898646 167.94121761 582.1484375 166.01171875 C580.22472829 164.90230966 578.30025745 163.79422011 576.375 162.6875 C575.30781738 162.07269775 574.24063477 161.45789551 573.14111328 160.82446289 C564.47295664 155.83532841 555.78603409 150.87926817 547.09838867 145.92419434 C538.01240304 140.7403385 528.96196656 135.49816331 519.93261719 130.21630859 C509.40888681 124.06207011 498.8460408 117.97620913 488.28222656 111.89111328 C482.85340058 108.76319852 477.42680719 105.63141552 472 102.5 C469.83334417 101.24998121 467.6666775 99.99998122 465.5 98.75 C374.5 46.25 374.5 46.25 371.24755859 44.37353516 C369.08909502 43.12830516 366.93056677 41.88318728 364.77197266 40.63818359 C359.22925259 37.44113663 353.68779992 34.24192405 348.1484375 31.0390625 C342.72821909 27.90561388 337.30446502 24.77838521 331.87744141 21.65673828 C330.03737836 20.59728912 328.19840232 19.53594835 326.36083984 18.47216797 C324.0981554 17.16285926 321.83117829 15.86138589 319.5625 14.5625 C318.92425293 14.1907666 318.28600586 13.8190332 317.62841797 13.43603516 C312.52070337 10.53220746 310.34751629 10.57051004 305.37109375 13.53515625 Z " fill="#FEFEFE" transform="translate(0,0)"/>
<path d="M0 0 C2.69529561 0.80512767 4.84280419 1.8283443 7.28051758 3.22729492 C8.17794678 3.7381665 9.07537598 4.24903809 10 4.77539062 C10.96268799 5.33315186 11.92537598 5.89091309 12.91723633 6.46557617 C13.93342041 7.04718506 14.94960449 7.62879395 15.99658203 8.22802734 C24.1132287 12.88454735 32.19357613 17.60433159 40.26806641 22.33349609 C48.01696649 26.86817611 55.80380953 31.3338286 63.60473633 35.77807617 C73.27964417 41.29054477 82.91755996 46.86232316 92.52661133 52.48901367 C100.19047403 56.96973763 107.89152468 61.38314369 115.60473633 65.77807617 C125.27954852 71.29071452 134.9175577 76.86232184 144.52661133 82.48901367 C152.19047607 86.96973883 159.89159467 91.38301841 167.60473633 95.77807617 C177.32740446 101.31874647 187.0161363 106.91411039 196.67602539 112.5637207 C212.38165292 121.74655122 228.15279055 130.81537807 243.95608521 139.82888794 C253.46539814 145.25298734 262.95933913 150.70212945 272.41723633 156.21557617 C273.32812012 156.74610596 274.23900391 157.27663574 275.17749023 157.82324219 C276.94591557 158.85666474 278.69636543 159.9216212 280.4250555 161.02022076 C283.60021643 162.9188565 283.60021643 162.9188565 287.37234592 163.92883778 C292.09691707 165.56022242 295.75460722 167.56589915 298.60473633 171.77807617 C301.51226287 181.33571055 300.77166122 192.05079151 300.69753778 201.95385754 C300.6820889 206.17750889 300.75281745 210.39987169 300.81193542 214.62301636 C300.91323956 222.89069197 300.93235122 231.15658451 300.91997098 239.42479732 C300.91068905 246.14807353 300.92739181 252.87080064 300.96241951 259.59398842 C300.97233145 261.5326334 300.98224221 263.47127838 300.9921518 265.40992337 C300.99709214 266.37493917 301.00203248 267.33995496 301.00712252 268.33421365 C301.09641903 286.57661545 301.08683398 304.81799753 301.04806001 323.06050847 C301.0158399 339.73235449 301.11201289 356.4005834 301.26843607 373.07163318 C301.42795467 390.20555684 301.49803198 407.33775782 301.47291523 424.47243482 C301.46046162 434.08623063 301.48339811 443.6967876 301.60073662 453.3099575 C301.69975913 461.49681308 301.71429892 469.6785775 301.62146734 477.86559322 C301.57643217 482.04078378 301.56912616 486.20657153 301.6675415 490.38105583 C302.20381086 514.70831125 302.20381086 514.70831125 296.22322583 521.47104287 C290.47685065 526.05399492 284.2066428 529.02887181 277.38292229 531.66863978 C273.82512278 533.08940582 270.74026092 534.88487083 267.48754883 536.89916992 C265.56862981 538.00524925 263.6493676 539.11073345 261.72973633 540.21557617 C259.54483095 541.47467419 257.35993541 542.73378928 255.17504883 543.99291992 C254.08998047 544.6179541 253.00491211 545.24298828 251.88696289 545.88696289 C246.4581369 549.01487765 241.03154352 552.14666065 235.60473633 555.27807617 C233.4380805 556.52809496 231.27141383 557.77809496 229.10473633 559.02807617 C227.49598633 559.95620117 227.49598633 559.95620117 225.85473633 560.90307617 C170.60473633 592.77807617 115.35473633 624.65307617 60.10473633 656.52807617 C59.03126953 657.14739014 57.95780273 657.7667041 56.85180664 658.40478516 C54.6949273 659.64912615 52.53802641 660.89342981 50.38110352 662.13769531 C43.66666226 666.0111381 36.9526607 669.88533901 30.24047852 673.76269531 C28.01354505 675.04718052 25.78506943 676.32899642 23.55493164 677.60791016 C19.025667 680.20717767 14.50983365 682.81165603 10.07348633 685.56713867 C9.42863281 685.9603833 8.7837793 686.35362793 8.11938477 686.75878906 C6.5167597 687.74125056 4.92713791 688.74484512 3.33911133 689.75073242 C-0.32778443 691.12843754 -1.79817956 690.19748112 -5.39526367 688.77807617 C-7.20848624 687.8452902 -8.99498228 686.85913656 -10.75463867 685.82885742 C-11.77428711 685.23588867 -12.79393555 684.64291992 -13.84448242 684.03198242 C-14.93374023 683.39131836 -16.02299805 682.7506543 -17.14526367 682.09057617 C-18.30247339 681.41550978 -19.46003224 680.74104155 -20.61791992 680.06713867 C-23.02096949 678.66791812 -25.42250287 677.26614682 -27.82299805 675.86254883 C-33.33313179 672.64358252 -38.86533984 669.46287772 -44.39526367 666.27807617 C-46.56203346 665.02825493 -48.72869982 663.77825437 -50.89526367 662.52807617 C-52.50401367 661.59995117 -52.50401367 661.59995117 -54.14526367 660.65307617 C-118.06193034 623.77807617 -181.97859701 586.90307617 -245.89526367 550.02807617 C-246.96921387 549.40852051 -248.04316406 548.78896484 -249.1496582 548.15063477 C-251.30178498 546.9089609 -253.4538044 545.66710095 -255.60571289 544.42504883 C-260.64557344 541.51640794 -265.68643859 538.60955719 -270.73126221 535.70953369 C-272.51275945 534.68531952 -274.29390689 533.66049966 -276.07495117 532.63549805 C-278.30602992 531.35174242 -280.5377594 530.06911678 -282.77026367 528.7878418 C-283.7834668 528.20454102 -284.79666992 527.62124023 -285.84057617 527.02026367 C-286.72245605 526.51350098 -287.60433594 526.00673828 -288.51293945 525.48461914 C-289.46410645 524.92145996 -290.41527344 524.35830078 -291.39526367 523.77807617 C-292.05347506 523.52132655 -292.71168645 523.26457694 -293.38984364 523.00004703 C-295.89759828 521.85134529 -297.51460045 520.81196593 -299.39526367 518.77807617 C-300.64184724 514.25313259 -300.49780689 509.71597889 -300.44477844 505.05717468 C-300.45757739 503.62722108 -300.47384636 502.19729503 -300.49328679 500.7674163 C-300.53643442 496.8373843 -300.52953597 492.90878432 -300.51435626 488.97860301 C-300.50655741 484.74042354 -300.54461128 480.50261909 -300.57658386 476.2645874 C-300.63148163 467.96124573 -300.64231111 459.6584056 -300.63640783 451.35490569 C-300.63201172 444.6058903 -300.64135857 437.85703049 -300.66048241 431.10804176 C-300.66588541 429.16488149 -300.6712866 427.22172122 -300.67668599 425.27856094 C-300.6793763 424.31142407 -300.6820666 423.3442872 -300.68483844 422.34784315 C-300.73353623 404.05054048 -300.72925009 385.75352531 -300.70951494 367.456188 C-300.6931965 350.71641206 -300.74609018 333.97768418 -300.83133409 317.23814442 C-300.918172 300.05262637 -300.9567813 282.86760899 -300.94377679 265.6818679 C-300.9373729 256.03222525 -300.95037529 246.3835327 -301.0142765 236.73407555 C-301.06820166 228.518107 -301.07682675 220.3036236 -301.02688716 212.08760365 C-301.0026654 207.8953134 -300.99932694 203.70577974 -301.05260086 199.51369667 C-301.10085873 195.67334155 -301.08883748 191.8380101 -301.02924754 187.99785755 C-301.0182184 186.61092401 -301.02903791 185.22360421 -301.06417529 183.83707198 C-301.16629114 179.51079672 -301.01046543 175.8151619 -299.39526367 171.77807617 C-295.41183833 168.18467415 -291.25708667 166.06292723 -286.39526367 163.77807617 C-284.56775058 162.74875777 -282.74692353 161.70730744 -280.93823242 160.64526367 C-279.1542182 159.64582655 -277.3690305 158.64848168 -275.58276367 157.65307617 C-267.58110096 153.16254174 -259.623944 148.60511988 -251.70776367 143.96557617 C-242.96912192 138.84576524 -234.19511885 133.79160959 -225.39526367 128.77807617 C-215.67392268 123.23838718 -205.98631275 117.64432555 -196.32836914 111.99462891 C-185.80441742 105.84040876 -175.2414623 99.75437621 -164.67749023 93.66918945 C-159.24866425 90.54127469 -153.82207086 87.40949169 -148.39526367 84.27807617 C-146.22860785 83.02805738 -144.06194118 81.77805739 -141.89526367 80.52807617 C-140.82276367 79.90932617 -139.75026367 79.29057617 -138.64526367 78.65307617 C-50.89526367 28.02807617 -50.89526367 28.02807617 -47.63964844 26.14990234 C-45.49162321 24.9106135 -43.34367292 23.67119477 -41.19580078 22.43164062 C-36.10870818 19.4960505 -31.0208452 16.56181945 -25.93032837 13.63217163 C-23.5198262 12.24479522 -21.10974991 10.85667993 -18.69970703 9.46850586 C-16.99382399 8.48633802 -15.28732381 7.50524233 -13.58081055 6.52416992 C-12.55149414 5.93120117 -11.52217773 5.33823242 -10.46166992 4.72729492 C-9.55360596 4.20482178 -8.64554199 3.68234863 -7.70996094 3.14404297 C-2.05896566 -0.19076545 -2.05896566 -0.19076545 0 0 Z M-9.19213867 23.75073242 C-10.30218262 24.39534424 -11.41222656 25.03995605 -12.5559082 25.70410156 C-13.752462 26.41608841 -14.94891108 27.12825129 -16.14526367 27.84057617 C-17.39695728 28.57289424 -18.64941167 29.30391337 -19.90258789 30.03369141 C-22.48099963 31.53732308 -25.05537474 33.04753078 -27.62670898 34.56323242 C-32.17643034 37.24223847 -36.752513 39.87483875 -41.32983398 42.50634766 C-44.5442385 44.35435968 -47.75536273 46.20795078 -50.96557617 48.06323242 C-57.44036389 51.80459273 -63.9176271 55.541651 -70.39526367 59.27807617 C-72.56194118 60.52805739 -74.72860785 61.77805738 -76.89526367 63.02807617 C-219.89526367 145.52807617 -219.89526367 145.52807617 -223.14746094 147.40429688 C-225.30685762 148.65013387 -227.46620036 149.89606435 -229.62548828 151.14208984 C-235.15293964 154.3315657 -240.68141488 157.51924502 -246.21166992 160.70385742 C-247.90646484 161.68032227 -247.90646484 161.68032227 -249.63549805 162.67651367 C-251.74972222 163.89458521 -253.86426987 165.11209557 -255.97924805 166.32885742 C-257.94271963 167.46039311 -259.88925619 168.62192261 -261.81602573 169.81488228 C-264.37345369 171.32027611 -266.8575199 172.31169863 -269.67444515 173.23466301 C-274.78663518 175.14726277 -279.06938455 177.33302692 -282.39526367 181.77807617 C-285.48101704 190.83304819 -284.58678538 201.12258526 -284.36837924 210.58429003 C-284.29467124 214.58958921 -284.31982807 218.594448 -284.3327179 222.60023499 C-284.34161471 229.53277612 -284.28847622 236.46258886 -284.19267464 243.39444351 C-284.05426056 253.41612972 -284.0102162 263.43650234 -283.98887878 273.45904075 C-283.95171005 289.72075553 -283.83868453 305.9810172 -283.67773438 322.24194336 C-283.5215894 338.03386179 -283.40130778 353.82538496 -283.32910156 369.61791992 C-283.32463526 370.59204024 -283.32016896 371.56616056 -283.31556732 372.56979968 C-283.29338101 377.45688215 -283.27189813 382.34396741 -283.25076497 387.23105454 C-283.07464973 427.74773906 -282.77533408 468.26282432 -282.39526367 508.77807617 C-281.60990234 509.22610596 -280.82454102 509.67413574 -280.01538086 510.13574219 C-277.0405102 511.83320181 -274.06593818 513.53118259 -271.09155273 515.22949219 C-269.81562631 515.9578842 -268.53958858 516.68608128 -267.26342773 517.4140625 C-258.94785768 522.15786605 -250.65555136 526.93838129 -242.39526367 531.77807617 C-233.75908625 536.83233453 -225.08929722 541.82427843 -216.39526367 546.77807617 C-206.72045148 552.29071452 -197.0824423 557.86232184 -187.47338867 563.48901367 C-179.80952597 567.96973763 -172.10847532 572.38314369 -164.39526367 576.77807617 C-154.72045148 582.29071452 -145.0824423 587.86232184 -135.47338867 593.48901367 C-127.80952597 597.96973763 -120.10847532 602.38314369 -112.39526367 606.77807617 C-102.72045148 612.29071452 -93.0824423 617.86232184 -83.47338867 623.48901367 C-75.80952407 627.96973874 -68.10841105 632.38302854 -60.39526367 636.77807617 C-51.51529989 641.83845868 -42.65777204 646.93469582 -33.83276367 652.09057617 C-32.85839355 652.6579248 -31.88402344 653.22527344 -30.88012695 653.80981445 C-26.19737569 656.53963749 -21.53119367 659.292271 -16.89135742 662.09448242 C-16.02518799 662.61163818 -15.15901855 663.12879395 -14.26660156 663.66162109 C-12.65641898 664.62363629 -11.05220897 665.59575413 -9.45556641 666.58007812 C-8.74215088 667.00377686 -8.02873535 667.42747559 -7.29370117 667.86401367 C-6.37596924 668.42161377 -6.37596924 668.42161377 -5.43969727 668.99047852 C-1.60946957 670.46603554 1.51751481 670.24441383 5.26000977 668.63916016 C6.15236328 668.10621338 7.0447168 667.5732666 7.96411133 667.02416992 C8.98375977 666.42475586 10.0034082 665.8253418 11.05395508 665.20776367 C12.14321289 664.5503418 13.2324707 663.89291992 14.35473633 663.21557617 C15.51147209 662.530602 16.66904057 661.84703232 17.82739258 661.16479492 C20.23234716 659.74687275 22.63361192 658.32298439 25.0324707 656.89477539 C30.52359045 653.63231029 36.06668724 650.45996624 41.60473633 647.27807617 C43.77164722 646.02849959 45.93831318 644.77849817 48.10473633 643.52807617 C217.10473632 546.02807618 217.10473632 546.02807618 220.35644531 544.15209961 C222.51742621 542.90537361 224.67839631 541.6586289 226.83935547 540.41186523 C232.34292484 537.23661734 237.84669665 534.06172122 243.35083008 530.88745117 C244.47166992 530.24098633 245.59250977 529.59452148 246.74731445 528.9284668 C248.83578364 527.72391403 250.92431739 526.51947322 253.01293945 525.31518555 C255.0383331 524.14694597 257.041886 522.94022565 259.02490234 521.70141602 C261.78476731 520.07744419 264.49826484 519.14963943 267.55761719 518.21801758 C273.35142238 516.17114525 278.08971313 513.99668979 281.60473633 508.77807617 C284.88271486 497.38975954 283.82340728 485.03162069 283.37567139 473.31939697 C283.26512913 469.78681568 283.25392082 466.25711189 283.24621868 462.72303581 C283.23222039 459.27473687 283.17495664 455.82822914 283.1035862 452.38068008 C283.07109749 450.75371786 283.04669188 449.12656925 283.03131676 447.49935532 C282.86589437 435.73115655 280.19993201 427.00398302 274.60573769 416.66630936 C273.01434719 413.664399 271.6161006 410.58430529 270.19848633 407.49682617 C269.88258545 406.81990723 269.56668457 406.14298828 269.24121094 405.44555664 C264.76841979 395.83797272 260.31892941 386.21956765 255.8659668 376.6027832 C253.11415892 370.66031562 250.3606364 364.71864709 247.60473633 358.77807617 C247.26425262 358.04378387 246.92376892 357.30949158 246.57296753 356.552948 C243.35088019 349.6080848 240.1195321 342.67471269 236.66723633 335.84057617 C236.08071289 334.67655273 235.49418945 333.5125293 234.88989258 332.31323242 C234.46579102 331.47663086 234.04168945 330.6400293 233.60473633 329.77807617 C232.47036133 329.81288086 231.33598633 329.84768555 230.16723633 329.88354492 C222.2085977 330.05207042 215.98023601 330.04031642 208.60473633 326.77807617 C203.12263395 326.78757722 200.07689685 330.67785437 196.41723633 334.27807617 C195.0689316 335.57172649 193.71997372 336.8646964 192.37036133 338.15698242 C191.7200293 338.78491699 191.06969727 339.41285156 190.3996582 340.05981445 C188.20101255 342.16455712 185.9452055 344.19717152 183.66723633 346.21557617 C179.26739385 350.14610211 174.96466525 354.17396443 170.66723633 358.21557617 C165.87628588 362.718383 161.08225664 367.21655692 156.22973633 371.65307617 C155.37637695 372.43424805 154.52301758 373.21541992 153.64379883 374.02026367 C151.60473633 375.77807617 151.60473633 375.77807617 149.60473633 376.77807617 C149.60473633 377.43807617 149.60473633 378.09807617 149.60473633 378.77807617 C148.94473633 378.77807617 148.28473633 378.77807617 147.60473633 378.77807617 C147.60473633 379.43807617 147.60473633 380.09807617 147.60473633 380.77807617 C146.94473633 380.77807617 146.28473633 380.77807617 145.60473633 380.77807617 C145.60473633 381.43807617 145.60473633 382.09807617 145.60473633 382.77807617 C145.02208008 383.03202148 144.43942383 383.2859668 143.83911133 383.54760742 C141.362856 384.9112795 139.79953007 386.42032821 137.85473633 388.46557617 C132.90339438 393.54576345 127.63355721 398.15194533 122.10473633 402.59057617 C121.27973633 403.31245117 120.45473633 404.03432617 119.60473633 404.77807617 C119.60473633 405.43807617 119.60473633 406.09807617 119.60473633 406.77807617 C118.94473633 406.77807617 118.28473633 406.77807617 117.60473633 406.77807617 C117.60473633 407.43807617 117.60473633 408.09807617 117.60473633 408.77807617 C117.03239258 409.03588867 116.46004883 409.29370117 115.87036133 409.55932617 C113.39344638 410.89173559 111.47061972 412.42863735 109.35473633 414.27807617 C108.64833008 414.88651367 107.94192383 415.49495117 107.21411133 416.12182617 C105.37244128 417.63223985 105.37244128 417.63223985 105.60473633 419.77807617 C105.02981445 420.02428711 104.45489258 420.27049805 103.86254883 420.52416992 C101.24833806 421.9760067 99.54137424 423.68095166 97.47973633 425.84057617 C93.79918077 429.68085395 93.79918077 429.68085395 91.60473633 430.77807617 C92.10272003 434.51295395 92.47965389 436.59045252 94.60473633 439.77807617 C95.55899746 448.31094608 95.04737293 456.29798196 90.60473633 463.77807617 C89.04439585 465.64783261 87.43200928 467.15383355 85.60473633 468.77807617 C85.60473633 469.43807617 85.60473633 470.09807617 85.60473633 470.77807617 C83.94167793 471.45369365 82.27379028 472.11740898 80.60473633 472.77807617 C79.42911133 473.31432617 78.25348633 473.85057617 77.04223633 474.40307617 C68.7539764 477.44678745 60.62108343 476.35651064 52.66333008 472.94604492 C50.59542069 471.77279083 49.26310377 470.45567106 47.60473633 468.77807617 C46.94473633 468.77807617 46.28473633 468.77807617 45.60473633 468.77807617 C45.60473633 467.78807617 45.60473633 466.79807617 45.60473633 465.77807617 C44.63506073 464.74864466 43.63184802 463.75020865 42.60473633 462.77807617 C38.71165723 455.13610609 38.45902543 446.72622527 40.07348633 438.34448242 C42.5300437 430.84320901 47.97597079 425.72376995 54.60473633 421.77807617 C53.3106564 418.97627105 51.90137199 416.77079215 49.85473633 414.46557617 C49.32879883 413.86487305 48.80286133 413.26416992 48.26098633 412.64526367 C47.71442383 412.0290918 47.16786133 411.41291992 46.60473633 410.77807617 C45.51749474 409.55236514 44.43402634 408.32329466 43.35473633 407.09057617 C42.87520508 406.55045898 42.39567383 406.0103418 41.90161133 405.45385742 C40.50978266 403.65538001 39.55636363 401.83843906 38.60473633 399.77807617 C39.79025028 398.05018422 40.97588982 396.32237832 42.16210938 394.5949707 C43.16797607 393.13014163 44.17334488 391.66497054 45.17822266 390.19946289 C48.54874529 385.29085026 51.96903423 380.42225472 55.46020508 375.59838867 C56.78216405 373.85425906 56.78216405 373.85425906 56.60473633 371.77807617 C57.26473633 371.77807617 57.92473633 371.77807617 58.60473633 371.77807617 C58.93473633 372.76807617 59.26473633 373.75807617 59.60473633 374.77807617 C61.81734981 376.42781106 61.81734981 376.42781106 64.47973633 377.90307617 C65.80618164 378.68038086 65.80618164 378.68038086 67.15942383 379.47338867 C73.37660607 382.79054341 80.66081492 382.83968961 87.40551758 381.02416992 C94.87339451 378.13447551 100.56133611 374.93178425 104.60473633 367.77807617 C104.60473633 367.11807617 104.60473633 366.45807617 104.60473633 365.77807617 C105.26473633 365.77807617 105.92473633 365.77807617 106.60473633 365.77807617 C109.2692117 355.61976382 110.17835395 347.42428007 104.99145508 337.96948242 C103.61850977 335.79984209 102.26824035 333.73592675 100.60473633 331.77807617 C99.94473633 331.77807617 99.28473633 331.77807617 98.60473633 331.77807617 C98.60473633 331.11807617 98.60473633 330.45807617 98.60473633 329.77807617 C89.90305892 324.99286568 82.59817783 322.25058123 72.60473633 323.77807617 C67.9952645 325.12818774 64.5264033 327.00303803 60.85473633 330.09057617 C58.60473633 331.77807617 58.60473633 331.77807617 56.24926758 331.55932617 C53.40160811 330.71806784 51.49809137 329.62843683 49.04223633 327.96557617 C43.78782498 324.51207194 38.44303144 321.24775124 33.04223633 318.02807617 C26.54218346 314.1447781 20.05898503 310.23705533 13.60473633 306.27807617 C7.25385475 302.38287818 0.87513163 298.53721483 -5.52026367 294.71557617 C-12.16249894 290.74445387 -18.75273401 286.70331019 -25.30004883 282.57788086 C-31.60850569 278.61583316 -37.99659529 274.78954803 -44.39526367 270.9753418 C-45.58635742 270.26474609 -45.58635742 270.26474609 -46.80151367 269.53979492 C-47.56850586 269.08266113 -48.33549805 268.62552734 -49.12573242 268.15454102 C-52.04773907 266.38235153 -54.92061243 264.53718583 -57.78393555 262.671875 C-59.379652 261.61638647 -59.379652 261.61638647 -61.39526367 261.77807617 C-52.63110504 252.77046869 -43.78467501 249.75877709 -31.22827148 249.53710938 C-22.86283234 249.50288544 -16.91797235 249.89998883 -9.64526367 254.52807617 C-7.53439469 255.99482699 -7.53439469 255.99482699 -5.45068359 255.51318359 C-3.23100171 254.71932896 -1.99977823 253.83978761 -0.25854492 252.26635742 C0.60105835 251.50464233 0.60105835 251.50464233 1.47802734 250.72753906 C2.07671631 250.18734131 2.67540527 249.64714355 3.29223633 249.09057617 C7.93460403 244.99238205 12.55435237 241.31111739 17.79614258 237.99291992 C20.41178494 236.23597657 22.43583767 234.05541976 24.60473633 231.77807617 C37.16297347 220.25866379 37.16297347 220.25866379 41.60473633 218.77807617 C42.76556178 217.65139265 43.92026519 216.51767566 45.04223633 215.35229492 C50.83437648 209.51671372 57.28522704 204.35990707 63.66333008 199.18823242 C66.78278302 196.63218665 69.85114243 194.0225034 72.91723633 191.40307617 C78.07353617 187.00580593 83.3561306 182.79712275 88.70532227 178.63769531 C92.57772806 175.61627751 96.32198811 172.49137888 99.98364258 169.21557617 C102.1239667 167.3176502 104.35096709 165.53883339 106.60473633 163.77807617 C105.99999512 160.75437013 105.04946939 158.73445824 103.29223633 156.21557617 C100.16776493 151.34428215 98.33912977 146.27773402 96.60473633 140.77807617 C96.3030957 139.8628418 96.00145508 138.94760742 95.69067383 138.00463867 C93.12471264 129.25159349 93.24103575 120.79957205 93.60473633 111.77807617 C93.64727539 110.58182617 93.68981445 109.38557617 93.73364258 108.15307617 C94.17260039 100.23315652 95.13013498 92.4899782 99.60473633 85.77807617 C99.60473633 84.78807617 99.60473633 83.79807617 99.60473633 82.77807617 C106.53969709 84.58755129 112.52078572 87.03295618 118.72973633 90.59057617 C120.00554565 91.30636841 120.00554565 91.30636841 121.30712891 92.03662109 C129.0317103 96.39309222 136.68059207 100.88270946 144.32788086 105.37304688 C151.537414 109.5993447 158.80204759 113.71514021 166.10473633 117.77807617 C175.65695124 123.0932824 185.12806899 128.53354905 194.55200195 134.07299805 C197.23258587 135.64772435 199.91808014 137.21373911 202.60473633 138.77807617 C203.46711914 139.28838379 204.32950195 139.79869141 205.21801758 140.32446289 C206.02625977 140.79255371 206.83450195 141.26064453 207.66723633 141.74291992 C208.38008789 142.16049561 209.09293945 142.57807129 209.82739258 143.00830078 C210.41391602 143.26232666 211.00043945 143.51635254 211.60473633 143.77807617 C212.26473633 143.44807617 212.92473633 143.11807617 213.60473633 142.77807617 C200.46003855 134.9974403 187.23664575 127.35614161 173.99975586 119.73364258 C168.53303653 116.58475564 163.06898746 113.43124353 157.60473633 110.27807617 C155.43808322 109.02805267 153.27141653 107.7780527 151.10473633 106.52807617 C120.77140299 89.02807617 90.43806966 71.52807617 60.10473633 54.02807617 C59.0311084 53.40868164 57.95748047 52.78928711 56.85131836 52.15112305 C54.69602322 50.90767108 52.5407496 49.66418181 50.38549805 48.4206543 C45.38135959 45.53344743 40.37703112 42.64657187 35.37188721 39.7611084 C33.62132392 38.75188513 31.87083222 37.74253781 30.12036133 36.7331543 C27.94081468 35.47639958 25.761138 34.21987031 23.58129883 32.96362305 C22.08083008 32.09833984 22.08083008 32.09833984 20.55004883 31.21557617 C19.57326172 30.65612305 18.59647461 30.09666992 17.59008789 29.52026367 C15.50703557 28.30463877 13.44240132 27.05713868 11.39282227 25.78588867 C10.34642578 25.14393555 9.3000293 24.50198242 8.22192383 23.84057617 C7.28719238 23.25405273 6.35246094 22.6675293 5.3894043 22.06323242 C-0.27731537 19.44797621 -4.0082542 20.69799095 -9.19213867 23.75073242 Z " fill="#472849" transform="translate(312.395263671875,11.221923828125)"/>
<path d="M0 0 C4.7412708 3.35408677 7.53393431 7.56049684 8.7890625 13.265625 C9.25516393 19.13850304 8.79420771 23.03085592 5.7890625 28.265625 C1.89838903 32.35365147 -2.22848715 35.86086388 -7.9453125 36.63671875 C-14.96421736 36.79128013 -19.88188355 36.08367378 -25.2109375 31.265625 C-25.5409375 30.605625 -25.8709375 29.945625 -26.2109375 29.265625 C-32.29901959 30.93345253 -37.54408069 34.03076247 -43.0234375 37.078125 C-43.97025391 37.59955078 -44.91707031 38.12097656 -45.89257812 38.65820312 C-48.66847005 40.18847803 -51.44030515 41.72585157 -54.2109375 43.265625 C-55.01281494 43.71035156 -55.81469238 44.15507812 -56.64086914 44.61328125 C-60.11241574 46.53948242 -63.58060097 48.47141079 -67.04296875 50.4140625 C-75.78809458 55.31106826 -84.59441546 60.0825589 -93.44235229 64.79104614 C-104.52522215 70.68980531 -115.47716928 76.74869429 -126.2109375 83.265625 C-125.68825284 86.02838677 -125.10224163 88.5917126 -124.2109375 91.265625 C-124.51064453 93.15087891 -124.51064453 93.15087891 -124.81640625 95.07421875 C-125.52809642 99.96722167 -126.00227715 104.55989378 -124.2109375 109.265625 C-119.64429961 114.30135563 -112.9917668 116.99747046 -106.96044922 119.89648438 C-102.77051982 121.98289212 -98.85424742 124.45891513 -94.8984375 126.953125 C-93.42072375 127.86174217 -91.94157705 128.76803341 -90.4609375 129.671875 C-89.75066406 130.10628906 -89.04039062 130.54070312 -88.30859375 130.98828125 C-84.39953916 133.36865528 -80.46991737 135.71459522 -76.54174805 138.06323242 C-71.50199054 141.08059361 -66.50171812 144.15974708 -61.50390625 147.24609375 C-58.02407413 149.38022567 -54.52698578 151.48327685 -51.0234375 153.578125 C-43.16050732 158.28139581 -35.34432276 163.05970778 -27.53125 167.84521484 C-25.19623414 169.27462585 -22.86005238 170.70211079 -20.5234375 172.12890625 C-19.37198242 172.83249268 -19.37198242 172.83249268 -18.19726562 173.55029297 C-16.67883198 174.47689871 -15.15931914 175.40173854 -13.63867188 176.32470703 C-10.18226657 178.42651317 -6.74979978 180.55057283 -3.3671875 182.76953125 C-2.77719971 183.15085205 -2.18721191 183.53217285 -1.5793457 183.92504883 C-0.01597648 184.93936551 1.53737377 185.96907876 3.08984375 187 C5.69670083 188.48179005 5.69670083 188.48179005 8.4609375 188.12109375 C11.81545363 186.88847792 14.06194314 184.54750038 16.7890625 182.265625 C24.27268034 179.26178395 31.90272962 178.8671956 39.5234375 181.609375 C42.67413608 183.06777696 45.74736901 184.59294249 48.7890625 186.265625 C48.7890625 186.925625 48.7890625 187.585625 48.7890625 188.265625 C49.4490625 188.265625 50.1090625 188.265625 50.7890625 188.265625 C52.2265625 190.05859375 52.2265625 190.05859375 53.7890625 192.453125 C54.3046875 193.23042969 54.8203125 194.00773438 55.3515625 194.80859375 C59.81396571 202.43590794 59.66851088 209.9553334 57.7890625 218.453125 C57.4590625 219.71125 57.1290625 220.969375 56.7890625 222.265625 C56.1290625 222.265625 55.4690625 222.265625 54.7890625 222.265625 C54.44875 223.3484375 54.44875 223.3484375 54.1015625 224.453125 C51.04057564 231.01238256 45.13133476 234.31573093 38.7890625 237.265625 C31.66601048 239.54846926 23.97503044 239.25642963 17.2890625 235.953125 C14.27691536 234.28138333 11.42045963 232.49633211 8.7890625 230.265625 C8.7890625 229.605625 8.7890625 228.945625 8.7890625 228.265625 C8.1290625 228.265625 7.4690625 228.265625 6.7890625 228.265625 C6.57894531 228.92304688 6.36882812 229.58046875 6.15234375 230.2578125 C4.28315388 234.38181307 1.67191964 237.7686652 -1.0234375 241.390625 C-5.75162278 247.83219882 -10.35596954 254.33653621 -14.8359375 260.953125 C-18.69230314 266.63794482 -22.61340795 272.25198804 -26.7109375 277.765625 C-31.45293816 284.14671793 -35.9626908 290.66970847 -40.41455078 297.25610352 C-42.97624499 301.03767048 -45.56371261 304.78229412 -48.29296875 308.4453125 C-48.76597412 309.0839624 -49.23897949 309.7226123 -49.72631836 310.38061523 C-50.60822218 311.56276858 -51.50042669 312.73733334 -52.40454102 313.90258789 C-54.65665274 316.84545283 -54.65665274 316.84545283 -55.08984375 320.40625 C-54.184601 322.32134133 -53.27973332 324.21362973 -52.2734375 326.078125 C-47.10714216 336.35435609 -46.70419952 347.04701165 -49.8984375 358.078125 C-54.47689394 371.32985456 -60.95051479 379.46384555 -73.2109375 386.265625 C-83.74110714 391.22418091 -96.39074802 392.03865552 -107.5234375 388.703125 C-113.30211738 386.52075122 -117.66350128 383.39167716 -122.2109375 379.265625 C-122.83742187 378.74226563 -123.46390625 378.21890625 -124.109375 377.6796875 C-131.07693583 371.44235138 -136.22441194 361.6295315 -137.2109375 352.265625 C-137.51780509 345.14132061 -137.33335293 338.31439391 -136.2109375 331.265625 C-145.19227204 324.75185848 -154.3038161 318.44723074 -163.48339844 312.21630859 C-170.22059 307.6378891 -176.91150083 302.99742748 -183.5859375 298.328125 C-192.59490574 292.02994952 -201.69866608 285.88758004 -210.88037109 279.84399414 C-216.50788653 276.1263198 -222.00130243 272.27253059 -227.43896484 268.28271484 C-232.11663447 264.87890064 -236.87750972 261.59933766 -241.6484375 258.328125 C-242.61458984 257.65716797 -243.58074219 256.98621094 -244.57617188 256.29492188 C-245.50623047 255.65748047 -246.43628906 255.02003906 -247.39453125 254.36328125 C-248.22525146 253.79101807 -249.05597168 253.21875488 -249.91186523 252.62915039 C-252.06539292 251.35194405 -253.76425457 250.7068647 -256.2109375 250.265625 C-256.58863281 250.7503125 -256.96632813 251.235 -257.35546875 251.734375 C-268.96580182 265.8734223 -287.94011108 276.12643035 -306.2109375 278.265625 C-314.46441579 278.78963154 -323.15167815 279.28043984 -331.2109375 277.265625 C-331.2109375 228.425625 -331.2109375 179.585625 -331.2109375 129.265625 C-312.63367806 124.62131014 -293.36291129 129.44968131 -277.0859375 138.578125 C-271.45084929 141.96809891 -265.96187119 145.69337687 -261.2109375 150.265625 C-261.2109375 150.925625 -261.2109375 151.585625 -261.2109375 152.265625 C-260.5509375 152.265625 -259.8909375 152.265625 -259.2109375 152.265625 C-257.76567014 154.00110669 -256.4022153 155.80538463 -255.0859375 157.640625 C-254.36148438 158.63835937 -253.63703125 159.63609375 -252.890625 160.6640625 C-251.2109375 163.265625 -251.2109375 163.265625 -251.2109375 165.265625 C-245.41642223 162.17521686 -240.24874001 158.46192382 -234.97314453 154.5625 C-231.44224535 151.96397735 -227.88864428 149.39670864 -224.3359375 146.828125 C-223.55436279 146.26295166 -222.77278809 145.69777832 -221.9675293 145.11547852 C-216.57365753 141.2248077 -211.12718567 137.42467947 -205.64453125 133.66015625 C-200.52853671 130.11855088 -195.50698279 126.44284844 -190.4765625 122.78125 C-178.75456525 114.265625 -178.75456525 114.265625 -176.2109375 114.265625 C-176.4996875 113.77835937 -176.7884375 113.29109375 -177.0859375 112.7890625 C-180.75968491 105.77322544 -181.14913042 99.0747014 -180.2109375 91.265625 C-179.19461932 88.18342641 -177.96354444 86.0491772 -176.2109375 83.265625 C-175.53117673 81.93891949 -174.86115192 80.60705835 -174.2109375 79.265625 C-174.73824463 78.89912842 -175.26555176 78.53263184 -175.80883789 78.1550293 C-185.76997424 71.22493216 -195.68249916 64.24597997 -205.4453125 57.0390625 C-216.13135644 49.15228512 -226.94013598 41.43528195 -237.80273438 33.79418945 C-244.59960872 29.00655826 -251.34212241 24.14527455 -258.0703125 19.26171875 C-260.63141445 17.40321479 -263.20161877 15.55991799 -265.7890625 13.73828125 C-266.79453125 13.02542969 -267.8 12.31257812 -268.8359375 11.578125 C-269.69445312 10.97613281 -270.55296875 10.37414062 -271.4375 9.75390625 C-272.31535156 9.01720703 -272.31535156 9.01720703 -273.2109375 8.265625 C-273.2109375 7.605625 -273.2109375 6.945625 -273.2109375 6.265625 C-271.2309375 5.275625 -269.2509375 4.285625 -267.2109375 3.265625 C-265.38239058 4.58624222 -263.55385094 5.90686952 -261.7253418 7.22753906 C-260.11234309 8.39241848 -258.49922164 9.55712796 -256.88598633 10.72167969 C-252.74277305 13.71290886 -248.6013077 16.70647402 -244.46484375 19.70703125 C-237.94231702 24.43480597 -231.42031497 29.151276 -224.7734375 33.703125 C-218.6094686 37.9389177 -212.59873606 42.36864957 -206.58813477 46.81860352 C-200.24220465 51.51500892 -193.86651259 56.16781463 -187.44555664 60.76123047 C-184.20189686 63.08438731 -180.98292591 65.41749473 -177.8515625 67.890625 C-176.89765625 68.633125 -175.94375 69.375625 -174.9609375 70.140625 C-173.77757812 71.09582031 -173.77757812 71.09582031 -172.5703125 72.0703125 C-169.35864926 73.69741341 -167.63955131 73.19827902 -164.2109375 72.265625 C-163.37691406 71.92402344 -162.54289063 71.58242187 -161.68359375 71.23046875 C-154.71622594 68.51176441 -147.38946563 69.86207969 -140.6484375 72.578125 C-135.64866472 74.7891799 -135.64866472 74.7891799 -133.62109375 76.99609375 C-133.15574219 77.41503906 -132.69039062 77.83398438 -132.2109375 78.265625 C-129.39952969 77.79896153 -127.09530851 76.81358456 -124.59375 75.48046875 C-123.55734375 74.93036133 -123.55734375 74.93036133 -122.5 74.36914062 C-121.78585938 73.98435547 -121.07171875 73.59957031 -120.3359375 73.203125 C-119.66046875 72.84541016 -118.985 72.48769531 -118.2890625 72.11914062 C-113.68622937 69.66176726 -109.15687137 67.09054002 -104.63671875 64.484375 C-96.29340224 59.68416123 -87.77527005 55.22579625 -79.24536133 50.76831055 C-71.17220573 46.54433585 -63.25149125 42.16659182 -55.46603394 37.43130493 C-50.36773342 34.3352368 -45.18819234 31.45627226 -39.8984375 28.703125 C-39.07666016 28.26677734 -38.25488281 27.83042969 -37.40820312 27.38085938 C-31.46627257 24.265625 -31.46627257 24.265625 -29.2109375 24.265625 C-29.5409375 23.275625 -29.8709375 22.285625 -30.2109375 21.265625 C-30.96416161 14.60497181 -30.70272341 9.44566474 -26.70703125 3.921875 C-19.66531198 -3.87365756 -8.97631391 -5.07823337 0 0 Z " fill="#FCFBFC" transform="translate(362.2109375,154.734375)"/>
<path d="M0 0 C2.69529561 0.80512767 4.84280419 1.8283443 7.28051758 3.22729492 C8.17794678 3.7381665 9.07537598 4.24903809 10 4.77539062 C10.96268799 5.33315186 11.92537598 5.89091309 12.91723633 6.46557617 C13.93342041 7.04718506 14.94960449 7.62879395 15.99658203 8.22802734 C24.1132287 12.88454735 32.19357613 17.60433159 40.26806641 22.33349609 C48.01696649 26.86817611 55.80380953 31.3338286 63.60473633 35.77807617 C73.27964417 41.29054477 82.91755996 46.86232316 92.52661133 52.48901367 C100.19047403 56.96973763 107.89152468 61.38314369 115.60473633 65.77807617 C125.27954852 71.29071452 134.9175577 76.86232184 144.52661133 82.48901367 C152.19047607 86.96973883 159.89159467 91.38301841 167.60473633 95.77807617 C177.32740446 101.31874647 187.0161363 106.91411039 196.67602539 112.5637207 C212.38165292 121.74655122 228.15279055 130.81537807 243.95608521 139.82888794 C253.46539814 145.25298734 262.95933913 150.70212945 272.41723633 156.21557617 C273.32812012 156.74610596 274.23900391 157.27663574 275.17749023 157.82324219 C276.94591557 158.85666474 278.69636543 159.9216212 280.4250555 161.02022076 C283.60021643 162.9188565 283.60021643 162.9188565 287.37234592 163.92883778 C292.09691707 165.56022242 295.75460722 167.56589915 298.60473633 171.77807617 C301.51226287 181.33571055 300.77166122 192.05079151 300.69753778 201.95385754 C300.6820889 206.17750889 300.75281745 210.39987169 300.81193542 214.62301636 C300.91323956 222.89069197 300.93235122 231.15658451 300.91997098 239.42479732 C300.91068905 246.14807353 300.92739181 252.87080064 300.96241951 259.59398842 C300.97233145 261.5326334 300.98224221 263.47127838 300.9921518 265.40992337 C300.99709214 266.37493917 301.00203248 267.33995496 301.00712252 268.33421365 C301.09641903 286.57661545 301.08683398 304.81799753 301.04806001 323.06050847 C301.0158399 339.73235449 301.11201289 356.4005834 301.26843607 373.07163318 C301.42795467 390.20555684 301.49803198 407.33775782 301.47291523 424.47243482 C301.46046162 434.08623063 301.48339811 443.6967876 301.60073662 453.3099575 C301.69975913 461.49681308 301.71429892 469.6785775 301.62146734 477.86559322 C301.57643217 482.04078378 301.56912616 486.20657153 301.6675415 490.38105583 C302.20381086 514.70831125 302.20381086 514.70831125 296.22322583 521.47104287 C290.47685065 526.05399492 284.2066428 529.02887181 277.38292229 531.66863978 C273.82512278 533.08940582 270.74026092 534.88487083 267.48754883 536.89916992 C265.56862981 538.00524925 263.6493676 539.11073345 261.72973633 540.21557617 C259.54483095 541.47467419 257.35993541 542.73378928 255.17504883 543.99291992 C254.08998047 544.6179541 253.00491211 545.24298828 251.88696289 545.88696289 C246.4581369 549.01487765 241.03154352 552.14666065 235.60473633 555.27807617 C233.4380805 556.52809496 231.27141383 557.77809496 229.10473633 559.02807617 C227.49598633 559.95620117 227.49598633 559.95620117 225.85473633 560.90307617 C170.60473633 592.77807617 115.35473633 624.65307617 60.10473633 656.52807617 C59.03126953 657.14739014 57.95780273 657.7667041 56.85180664 658.40478516 C54.6949273 659.64912615 52.53802641 660.89342981 50.38110352 662.13769531 C43.66666226 666.0111381 36.9526607 669.88533901 30.24047852 673.76269531 C28.01354505 675.04718052 25.78506943 676.32899642 23.55493164 677.60791016 C19.025667 680.20717767 14.50983365 682.81165603 10.07348633 685.56713867 C9.42863281 685.9603833 8.7837793 686.35362793 8.11938477 686.75878906 C6.5167597 687.74125056 4.92713791 688.74484512 3.33911133 689.75073242 C-0.32778443 691.12843754 -1.79817956 690.19748112 -5.39526367 688.77807617 C-7.20848624 687.8452902 -8.99498228 686.85913656 -10.75463867 685.82885742 C-11.77428711 685.23588867 -12.79393555 684.64291992 -13.84448242 684.03198242 C-14.93374023 683.39131836 -16.02299805 682.7506543 -17.14526367 682.09057617 C-18.30247339 681.41550978 -19.46003224 680.74104155 -20.61791992 680.06713867 C-23.02096949 678.66791812 -25.42250287 677.26614682 -27.82299805 675.86254883 C-33.33313179 672.64358252 -38.86533984 669.46287772 -44.39526367 666.27807617 C-46.56203346 665.02825493 -48.72869982 663.77825437 -50.89526367 662.52807617 C-52.50401367 661.59995117 -52.50401367 661.59995117 -54.14526367 660.65307617 C-118.06193034 623.77807617 -181.97859701 586.90307617 -245.89526367 550.02807617 C-246.96921387 549.40852051 -248.04316406 548.78896484 -249.1496582 548.15063477 C-251.30178498 546.9089609 -253.4538044 545.66710095 -255.60571289 544.42504883 C-260.64557344 541.51640794 -265.68643859 538.60955719 -270.73126221 535.70953369 C-272.51275945 534.68531952 -274.29390689 533.66049966 -276.07495117 532.63549805 C-278.30602992 531.35174242 -280.5377594 530.06911678 -282.77026367 528.7878418 C-283.7834668 528.20454102 -284.79666992 527.62124023 -285.84057617 527.02026367 C-286.72245605 526.51350098 -287.60433594 526.00673828 -288.51293945 525.48461914 C-289.46410645 524.92145996 -290.41527344 524.35830078 -291.39526367 523.77807617 C-292.05347506 523.52132655 -292.71168645 523.26457694 -293.38984364 523.00004703 C-295.89759828 521.85134529 -297.51460045 520.81196593 -299.39526367 518.77807617 C-300.64184724 514.25313259 -300.49780689 509.71597889 -300.44477844 505.05717468 C-300.45757739 503.62722108 -300.47384636 502.19729503 -300.49328679 500.7674163 C-300.53643442 496.8373843 -300.52953597 492.90878432 -300.51435626 488.97860301 C-300.50655741 484.74042354 -300.54461128 480.50261909 -300.57658386 476.2645874 C-300.63148163 467.96124573 -300.64231111 459.6584056 -300.63640783 451.35490569 C-300.63201172 444.6058903 -300.64135857 437.85703049 -300.66048241 431.10804176 C-300.66588541 429.16488149 -300.6712866 427.22172122 -300.67668599 425.27856094 C-300.6793763 424.31142407 -300.6820666 423.3442872 -300.68483844 422.34784315 C-300.73353623 404.05054048 -300.72925009 385.75352531 -300.70951494 367.456188 C-300.6931965 350.71641206 -300.74609018 333.97768418 -300.83133409 317.23814442 C-300.918172 300.05262637 -300.9567813 282.86760899 -300.94377679 265.6818679 C-300.9373729 256.03222525 -300.95037529 246.3835327 -301.0142765 236.73407555 C-301.06820166 228.518107 -301.07682675 220.3036236 -301.02688716 212.08760365 C-301.0026654 207.8953134 -300.99932694 203.70577974 -301.05260086 199.51369667 C-301.10085873 195.67334155 -301.08883748 191.8380101 -301.02924754 187.99785755 C-301.0182184 186.61092401 -301.02903791 185.22360421 -301.06417529 183.83707198 C-301.16629114 179.51079672 -301.01046543 175.8151619 -299.39526367 171.77807617 C-295.41183833 168.18467415 -291.25708667 166.06292723 -286.39526367 163.77807617 C-284.56775058 162.74875777 -282.74692353 161.70730744 -280.93823242 160.64526367 C-279.1542182 159.64582655 -277.3690305 158.64848168 -275.58276367 157.65307617 C-267.58110096 153.16254174 -259.623944 148.60511988 -251.70776367 143.96557617 C-242.96912192 138.84576524 -234.19511885 133.79160959 -225.39526367 128.77807617 C-215.67392268 123.23838718 -205.98631275 117.64432555 -196.32836914 111.99462891 C-185.80441742 105.84040876 -175.2414623 99.75437621 -164.67749023 93.66918945 C-159.24866425 90.54127469 -153.82207086 87.40949169 -148.39526367 84.27807617 C-146.22860785 83.02805738 -144.06194118 81.77805739 -141.89526367 80.52807617 C-140.82276367 79.90932617 -139.75026367 79.29057617 -138.64526367 78.65307617 C-50.89526367 28.02807617 -50.89526367 28.02807617 -47.63964844 26.14990234 C-45.49162321 24.9106135 -43.34367292 23.67119477 -41.19580078 22.43164062 C-36.10870818 19.4960505 -31.0208452 16.56181945 -25.93032837 13.63217163 C-23.5198262 12.24479522 -21.10974991 10.85667993 -18.69970703 9.46850586 C-16.99382399 8.48633802 -15.28732381 7.50524233 -13.58081055 6.52416992 C-12.55149414 5.93120117 -11.52217773 5.33823242 -10.46166992 4.72729492 C-9.55360596 4.20482178 -8.64554199 3.68234863 -7.70996094 3.14404297 C-2.05896566 -0.19076545 -2.05896566 -0.19076545 0 0 Z M-9.19213867 23.75073242 C-10.30218262 24.39534424 -11.41222656 25.03995605 -12.5559082 25.70410156 C-13.752462 26.41608841 -14.94891108 27.12825129 -16.14526367 27.84057617 C-17.39695728 28.57289424 -18.64941167 29.30391337 -19.90258789 30.03369141 C-22.48099963 31.53732308 -25.05537474 33.04753078 -27.62670898 34.56323242 C-32.17643034 37.24223847 -36.752513 39.87483875 -41.32983398 42.50634766 C-44.5442385 44.35435968 -47.75536273 46.20795078 -50.96557617 48.06323242 C-57.44036389 51.80459273 -63.9176271 55.541651 -70.39526367 59.27807617 C-72.56194118 60.52805739 -74.72860785 61.77805738 -76.89526367 63.02807617 C-219.89526367 145.52807617 -219.89526367 145.52807617 -223.14746094 147.40429688 C-225.30685762 148.65013387 -227.46620036 149.89606435 -229.62548828 151.14208984 C-235.15293964 154.3315657 -240.68141488 157.51924502 -246.21166992 160.70385742 C-247.90646484 161.68032227 -247.90646484 161.68032227 -249.63549805 162.67651367 C-251.74972222 163.89458521 -253.86426987 165.11209557 -255.97924805 166.32885742 C-257.94271963 167.46039311 -259.88925619 168.62192261 -261.81602573 169.81488228 C-264.37345369 171.32027611 -266.8575199 172.31169863 -269.67444515 173.23466301 C-274.78663518 175.14726277 -279.06938455 177.33302692 -282.39526367 181.77807617 C-285.48101704 190.83304819 -284.58678538 201.12258526 -284.36837924 210.58429003 C-284.29467124 214.58958921 -284.31982807 218.594448 -284.3327179 222.60023499 C-284.34161471 229.53277612 -284.28847622 236.46258886 -284.19267464 243.39444351 C-284.05426056 253.41612972 -284.0102162 263.43650234 -283.98887878 273.45904075 C-283.95171005 289.72075553 -283.83868453 305.9810172 -283.67773438 322.24194336 C-283.5215894 338.03386179 -283.40130778 353.82538496 -283.32910156 369.61791992 C-283.32463526 370.59204024 -283.32016896 371.56616056 -283.31556732 372.56979968 C-283.29338101 377.45688215 -283.27189813 382.34396741 -283.25076497 387.23105454 C-283.07464973 427.74773906 -282.77533408 468.26282432 -282.39526367 508.77807617 C-281.60990234 509.22610596 -280.82454102 509.67413574 -280.01538086 510.13574219 C-277.0405102 511.83320181 -274.06593818 513.53118259 -271.09155273 515.22949219 C-269.81562631 515.9578842 -268.53958858 516.68608128 -267.26342773 517.4140625 C-258.94785768 522.15786605 -250.65555136 526.93838129 -242.39526367 531.77807617 C-233.75908625 536.83233453 -225.08929722 541.82427843 -216.39526367 546.77807617 C-206.72045148 552.29071452 -197.0824423 557.86232184 -187.47338867 563.48901367 C-179.80952597 567.96973763 -172.10847532 572.38314369 -164.39526367 576.77807617 C-154.72045148 582.29071452 -145.0824423 587.86232184 -135.47338867 593.48901367 C-127.80952597 597.96973763 -120.10847532 602.38314369 -112.39526367 606.77807617 C-102.72045148 612.29071452 -93.0824423 617.86232184 -83.47338867 623.48901367 C-75.80952407 627.96973874 -68.10841105 632.38302854 -60.39526367 636.77807617 C-51.51529989 641.83845868 -42.65777204 646.93469582 -33.83276367 652.09057617 C-32.85839355 652.6579248 -31.88402344 653.22527344 -30.88012695 653.80981445 C-26.19737569 656.53963749 -21.53119367 659.292271 -16.89135742 662.09448242 C-16.02518799 662.61163818 -15.15901855 663.12879395 -14.26660156 663.66162109 C-12.65641898 664.62363629 -11.05220897 665.59575413 -9.45556641 666.58007812 C-8.74215088 667.00377686 -8.02873535 667.42747559 -7.29370117 667.86401367 C-6.37596924 668.42161377 -6.37596924 668.42161377 -5.43969727 668.99047852 C-1.60946957 670.46603554 1.51751481 670.24441383 5.26000977 668.63916016 C6.15236328 668.10621338 7.0447168 667.5732666 7.96411133 667.02416992 C8.98375977 666.42475586 10.0034082 665.8253418 11.05395508 665.20776367 C12.14321289 664.5503418 13.2324707 663.89291992 14.35473633 663.21557617 C15.51147209 662.530602 16.66904057 661.84703232 17.82739258 661.16479492 C20.23234716 659.74687275 22.63361192 658.32298439 25.0324707 656.89477539 C30.52359045 653.63231029 36.06668724 650.45996624 41.60473633 647.27807617 C43.77164722 646.02849959 45.93831318 644.77849817 48.10473633 643.52807617 C217.10473632 546.02807618 217.10473632 546.02807618 220.35644531 544.15209961 C222.51742621 542.90537361 224.67839631 541.6586289 226.83935547 540.41186523 C232.34292484 537.23661734 237.84669665 534.06172122 243.35083008 530.88745117 C244.47166992 530.24098633 245.59250977 529.59452148 246.74731445 528.9284668 C248.83578364 527.72391403 250.92431739 526.51947322 253.01293945 525.31518555 C254.98066083 524.18021112 256.93167098 523.01573508 258.86424541 521.82189655 C261.60997316 520.21324939 264.3272238 519.13451167 267.33250904 518.09719372 C272.92133177 515.93084327 277.79143077 513.5249251 281.60473633 508.77807617 C284.98057063 499.75364941 284.05556508 489.36198035 283.80998313 479.85579669 C283.72752888 475.85120395 283.75572489 471.84715286 283.77012634 467.84194946 C283.78006556 460.91186918 283.72072618 453.98520058 283.61360741 447.05597878 C283.45884469 437.03825064 283.40967735 427.02216346 283.38583557 417.00336953 C283.34430357 400.74756865 283.21800855 384.49358454 283.03808594 368.23876953 C282.86354519 352.45370544 282.72912603 336.66913569 282.6484375 320.88330078 C282.64344575 319.90944319 282.63845401 318.93558559 282.633311 317.93221716 C282.60851435 313.04640594 282.58450412 308.16059123 282.56088483 303.27477419 C282.3640801 262.77461135 282.02957836 222.27644794 281.60473633 181.77807617 C280.88519775 181.36295776 280.16565918 180.94783936 279.42431641 180.5201416 C208.65112305 139.68945312 137.87792969 98.85876465 67.10473633 58.02807617 C66.03167236 57.40900391 64.9586084 56.78993164 63.85302734 56.15209961 C61.69204645 54.90537361 59.53107635 53.6586289 57.37011719 52.41186523 C51.86654782 49.23661734 46.362776 46.06172122 40.85864258 42.88745117 C39.7484375 42.24686768 38.63823242 41.60628418 37.49438477 40.94628906 C35.29937781 39.68079378 33.10343331 38.41692309 30.90649414 37.15478516 C25.8986176 34.27468097 20.90845789 31.37291835 15.96020508 28.39135742 C14.65877563 27.61453613 14.65877563 27.61453613 13.33105469 26.82202148 C11.73543797 25.86745161 10.14585273 24.90268964 8.56396484 23.92553711 C7.86070068 23.50691406 7.15743652 23.08829102 6.43286133 22.65698242 C5.83376953 22.29161377 5.23467773 21.92624512 4.61743164 21.54980469 C-0.68978352 19.51485719 -4.50845525 20.99255471 -9.19213867 23.75073242 Z " fill="#231F21" transform="translate(312.395263671875,11.221923828125)"/>
<path d="M0 0 C2.89596421 1.42595956 4.82076418 3.4366161 7.1171875 5.69921875 C14.27211055 12.47026032 21.92734705 16.81606368 31.47265625 19.2734375 C34.0546875 20.01171875 34.0546875 20.01171875 37.51171875 21.55078125 C43.33333611 23.77149665 49.397081 23.58080324 55.5546875 23.69921875 C56.75867188 23.73337891 57.96265625 23.76753906 59.203125 23.80273438 C62.15355266 23.8846907 65.10370266 23.95401259 68.0546875 24.01171875 C70.85019552 29.35752795 73.08919355 34.57884745 74.9296875 40.31640625 C75.18089355 41.08042755 75.43209961 41.84444885 75.69091797 42.63162231 C76.4846721 45.04812636 77.27028168 47.46716572 78.0546875 49.88671875 C79.09222336 53.07297857 80.13367613 56.25791869 81.1796875 59.44140625 C81.43000732 60.20354431 81.68032715 60.96568237 81.93823242 61.75091553 C83.52297551 66.53098014 85.25851774 71.21291468 87.19018555 75.86523438 C88.36062743 78.77134142 89.32766024 81.72940853 90.29541016 84.70800781 C91.11888588 87.206502 91.99329393 89.68302882 92.87890625 92.16015625 C93.33813477 93.44986328 93.33813477 93.44986328 93.80664062 94.765625 C94.4390839 96.53752244 95.0745834 98.30833153 95.71289062 100.078125 C96.01517578 100.93019531 96.31746094 101.78226562 96.62890625 102.66015625 C96.90307373 103.42505371 97.17724121 104.18995117 97.4597168 104.97802734 C98.0546875 107.01171875 98.0546875 107.01171875 98.0546875 110.01171875 C96.4453125 111.58984375 96.4453125 111.58984375 94.3046875 113.26171875 C88.37672048 118.24707618 85.88127058 123.55317116 84.0546875 131.01171875 C74.25588607 131.38854378 64.70100529 130.21452603 54.9921875 129.07421875 C44.79289442 127.8804057 34.65049589 126.86388268 24.39149475 126.36659241 C18.02643961 126.04620092 11.74669688 125.35547698 5.4296875 124.51171875 C-2.81856892 123.46248604 -10.97727286 122.68371873 -19.28125 122.25390625 C-24.4093383 121.91494945 -29.47367149 121.22846393 -34.56640625 120.55078125 C-40.67286574 119.76588929 -46.80771126 119.24540411 -52.94018555 118.70922852 C-53.79265869 118.63244873 -54.64513184 118.55566895 -55.5234375 118.4765625 C-56.28043945 118.41073975 -57.03744141 118.34491699 -57.81738281 118.27709961 C-59.9453125 118.01171875 -59.9453125 118.01171875 -61.89111328 117.51391602 C-64.34465209 116.9140908 -66.71627478 116.70911313 -69.234375 116.51171875 C-70.25917969 116.42921875 -71.28398437 116.34671875 -72.33984375 116.26171875 C-73.40589844 116.17921875 -74.47195313 116.09671875 -75.5703125 116.01171875 C-87.86366758 115.03919128 -87.86366758 115.03919128 -93.59375 114.51171875 C-94.78363525 114.4034375 -94.78363525 114.4034375 -95.99755859 114.29296875 C-97.9453125 114.01171875 -97.9453125 114.01171875 -99.9453125 113.01171875 C-100.5859375 111.26171875 -100.5859375 111.26171875 -101.1953125 109.01171875 C-102.61687331 104.440854 -104.76887889 100.9299428 -107.54296875 97.0546875 C-108.88355136 95.10169389 -109.93968113 93.15289559 -110.9453125 91.01171875 C-106.48501963 86.96082474 -101.98819288 82.99581669 -97.2578125 79.26171875 C-93.08497944 75.96362554 -89.0342792 72.54756347 -85.0078125 69.07421875 C-77.85856777 62.91398482 -70.59395687 56.91395074 -63.2109375 51.03515625 C-54.40996046 44.03110275 -54.40996046 44.03110275 -45.87890625 36.703125 C-42.64032275 33.87018226 -39.2800793 31.18619634 -35.94140625 28.47265625 C-32.70312786 25.81279265 -29.50963503 23.10482271 -26.3203125 20.38671875 C-21.99478425 16.70252485 -17.60593501 13.14883358 -13.07421875 9.71875 C-9.86616151 7.14641786 -6.92925359 4.28930058 -3.98828125 1.41796875 C-1.9453125 0.01171875 -1.9453125 0.01171875 0 0 Z " fill="#7F4784" transform="translate(423.9453125,179.98828125)"/>
<path d="M0 0 C2.58167816 1.265306 5.08489264 2.60475786 7.5625 4.0625 C11.95639651 6.53905985 15.22073512 7.18865748 20.1875 7.5625 C21.81751953 7.68818359 21.81751953 7.68818359 23.48046875 7.81640625 C24.72763672 7.90728516 24.72763672 7.90728516 26 8 C27.93592319 13.11814887 28.70979078 18.1139304 29.4375 23.5 C30.26544713 29.31873055 31.14830732 35.07419128 32.4375 40.8125 C34.17329343 48.55199133 35.48758171 56.34809155 36.82421875 64.1640625 C37.70421345 69.30805257 38.60661989 74.44771582 39.51953125 79.5859375 C39.65178604 80.33109619 39.78404083 81.07625488 39.92030334 81.84399414 C40.45040323 84.82995633 40.98063008 87.81589312 41.51333618 90.8013916 C42.95421606 98.88011971 44.31583353 106.96252505 45.53955078 115.07763672 C46.208688 119.32449381 47.03509045 123.53422626 47.875 127.75 C49.65505035 136.85690223 51.14022756 145.99511563 52.56323242 155.16381836 C53.61265635 161.83727869 54.90462166 168.37889772 56.40625 174.96484375 C57.37929038 179.93887252 57.73149885 184.94477152 58 190 C57.113125 190.556875 56.22625 191.11375 55.3125 191.6875 C49.6175925 195.51084166 45.83606575 200.4103042 42 206 C38.17745828 204.61562003 35.04519945 202.84687544 31.6875 200.5625 C30.6253125 199.84191406 29.563125 199.12132812 28.46875 198.37890625 C27.31225928 197.58628861 26.15601464 196.79331183 25 196 C23.82296278 195.19654702 22.64587844 194.39316308 21.46875 193.58984375 C13.5727849 188.18832597 5.7235541 182.72006496 -2.125 177.25 C-11.67825134 170.59280058 -21.28220023 164.01338485 -30.91015625 157.46484375 C-37.31320924 153.1096194 -43.69294703 148.72083316 -50.0703125 144.328125 C-52.10827619 142.92547793 -54.14771642 141.52499906 -56.1875 140.125 C-63.48239511 135.11725813 -70.76576894 130.0952637 -78 125 C-77.09409469 122.00354398 -76.22053461 119.35477307 -74.5625 116.6875 C-66.57459998 102.94831197 -65.58264822 82.74676594 -69.33740234 67.52075195 C-70.3561738 63.80977746 -71.38165354 60.21323841 -73.1328125 56.77734375 C-74 55 -74 55 -74 52 C-71.75390625 50.16015625 -71.75390625 50.16015625 -68.5625 48.0625 C-67.36382886 47.26154463 -66.16595182 46.45939994 -64.96875 45.65625 C-64.32550781 45.22828125 -63.68226562 44.8003125 -63.01953125 44.359375 C-59.49282935 41.98550216 -56.03043517 39.52106675 -52.5625 37.0625 C-51.8394165 36.55146729 -51.11633301 36.04043457 -50.37133789 35.51391602 C-45.90468473 32.35589368 -41.44874416 29.18318641 -37 26 C-24.74025808 17.22785162 -12.41542639 8.55045018 0 0 Z " fill="#804985" transform="translate(189,273)"/>
<path d="M0 0 C8.97244481 0.9176364 19.1712396 9.68081597 26.68603516 14.57666016 C31.4369273 17.6645427 36.26680312 20.5988368 41.13500977 23.49731445 C45.90396781 26.33758286 50.64408615 29.22185499 55.375 32.125 C62.82605917 36.69304783 70.31428054 41.19734207 77.8125 45.6875 C85.18053159 50.10053833 92.53747383 54.52589228 99.83984375 59.046875 C103.88403262 61.54637369 107.94199099 64.02302255 112 66.5 C119.34330173 70.98390806 126.67629792 75.48414837 134 80 C133.67386719 81.02222656 133.34773437 82.04445313 133.01171875 83.09765625 C132.01260428 86.60469794 131.7632025 89.7760403 131.8125 93.4375 C131.81894531 94.48808594 131.82539063 95.53867187 131.83203125 96.62109375 C131.9088185 100.10710904 131.9088185 100.10710904 132.8671875 103.8515625 C133.58059297 109.33541666 130.47503911 112.735234 127.3125 116.9375 C126.42534302 118.17149536 126.42534302 118.17149536 125.52026367 119.43041992 C124.29439159 121.13344642 123.05968254 122.83014522 121.81640625 124.52050781 C119.59975721 127.54635293 117.44797618 130.61435495 115.29907227 133.68847656 C108.79184267 142.98604553 102.16789235 152.20399455 95.54296875 161.41796875 C90.12043532 168.96975245 84.81508274 176.59473653 79.5625 184.265625 C76.40973268 188.86810229 73.21243104 193.43900576 70 198 C66.25806764 197.35726809 63.69642504 195.65323224 60.5625 193.5625 C48.43255983 185.48149674 35.95010695 186.53980189 22 188 C20.08148132 182.8454257 19.15030659 177.73018904 18.265625 172.328125 C18.1071106 171.38509521 17.94859619 170.44206543 17.78527832 169.47045898 C17.44574429 167.44781218 17.10832523 165.42480942 16.77282715 163.40148926 C16.06761167 159.15060251 15.3512051 154.9016267 14.63531494 150.65252686 C14.27392955 148.50714472 13.91304995 146.36167731 13.55267334 144.21612549 C11.9854214 134.88815053 10.38856782 125.5657135 8.75 116.25 C8.62726715 115.55115692 8.5045343 114.85231384 8.37808228 114.1322937 C6.9069871 105.78206446 5.30834013 97.47700561 3.46777344 89.20019531 C1.69644433 81.01100711 0.47577385 72.72606609 -0.8210144 64.45172119 C-2.19004454 55.73571525 -3.7153138 47.09111964 -5.61230469 38.47387695 C-6.79729205 33.06630319 -7.82485531 27.64563153 -8.75 22.1875 C-8.87777832 21.45168701 -9.00555664 20.71587402 -9.13720703 19.95776367 C-9.80025857 15.94261824 -10.38760274 12.06377248 -10 8 C-7.25 5.875 -7.25 5.875 -4 4 C-3.29875 3.236875 -2.5975 2.47375 -1.875 1.6875 C-1.25625 1.130625 -0.6375 0.57375 0 0 Z " fill="#7F4884" transform="translate(232,270)"/>
<path d="M0 0 C8.08691503 -0.13384194 15.91043731 0.35883601 23.9453125 1.2421875 C25.15460419 1.37062042 26.36389587 1.49905334 27.60983276 1.63137817 C31.44882157 2.04052603 35.28688652 2.45772966 39.125 2.875 C41.67702901 3.14764436 44.229112 3.41978398 46.78125 3.69140625 C56.95411837 4.77854368 67.12436458 5.87719109 77.28125 7.10546875 C84.60072252 7.98027712 91.92549412 8.64966828 99.27047729 9.26150513 C113.90118253 10.48502679 128.48682615 11.98493412 143.07275391 13.66357422 C156.04207454 15.15412666 168.95855633 16.36546113 182 17 C182.65134925 18.56020867 183.29582964 20.12328579 183.9375 21.6875 C184.47697266 22.99267578 184.47697266 22.99267578 185.02734375 24.32421875 C185.9570312 26.88179265 186.54162625 29.3221323 187 32 C186.113125 32.721875 185.22625 33.44375 184.3125 34.1875 C181.37033476 36.64273346 178.67951585 39.25668615 176 42 C171.48307017 46.61448771 166.88837167 51.021048 161.98828125 55.2265625 C159.96235019 57.03358156 158.07769631 58.92705839 156.1875 60.875 C153.31866582 63.79358275 150.34828703 66.35542297 147.125 68.875 C140.80317333 73.93246134 135.20377468 79.66068472 129.54541016 85.44091797 C125.45226032 89.60991704 121.28763693 93.59301217 116.85571289 97.40039062 C114.11354776 99.7641146 111.46428885 102.22345219 108.8125 104.6875 C108.27004639 105.18862305 107.72759277 105.68974609 107.16870117 106.20605469 C104.21380336 108.93730879 101.27245638 111.68208401 98.34375 114.44140625 C97.75231201 114.99546143 97.16087402 115.5495166 96.55151367 116.12036133 C95.40977463 117.19029087 94.27177944 118.26423243 93.13793945 119.3425293 C89.22505364 123 89.22505364 123 87 123 C86.78601563 123.55171875 86.57203125 124.1034375 86.3515625 124.671875 C84.546489 127.78119236 82.05199936 129.91272137 79.375 132.25 C78.859375 132.70890625 78.34375 133.1678125 77.8125 133.640625 C76.5465398 134.76592296 75.27392058 135.88372177 74 137 C71.36 135.68 68.72 134.36 66 133 C66 132.34 66 131.68 66 131 C64.7934375 130.96003906 63.586875 130.92007813 62.34375 130.87890625 C49.83248876 130.18129599 49.83248876 130.18129599 45.33984375 127.28515625 C43.29914357 124.96789301 41.65801786 122.60492197 40 120 C38.82451783 118.40371498 37.64852625 116.80768216 36.45336914 115.22607422 C35.30675835 113.70051658 34.1915313 112.15152019 33.078125 110.6015625 C31.17675576 108.22127694 29.45048022 106.75244525 27 105 C27.56714722 104.22136597 27.56714722 104.22136597 28.14575195 103.42700195 C29.87014471 101.05705238 31.59134599 98.6848026 33.3125 96.3125 C33.90740234 95.49587891 34.50230469 94.67925781 35.11523438 93.83789062 C37.47445755 90.58242625 39.76976932 87.39575601 41.79296875 83.91796875 C42.19128906 83.28503906 42.58960938 82.65210938 43 82 C43.66 82 44.32 82 45 82 C45.495 82.556875 45.99 83.11375 46.5 83.6875 C51.8453501 88.63194885 57.68963142 91.30814439 65 91.5625 C71.68688647 91.26951786 77.79042638 89.43625244 83.15625 85.36328125 C85 84 85 84 87 84 C87.28875 83.4225 87.5775 82.845 87.875 82.25 C88.91666667 80.16666667 89.95833333 78.08333333 91 76 C91.66 76 92.32 76 93 76 C93.39383676 72.99699474 93.72906527 70.01524137 94 67 C94.07992187 66.11054688 94.15984375 65.22109375 94.2421875 64.3046875 C94.59743738 56.96982227 92.67892477 52.25417211 89 46 C88.32336141 44.67169942 87.65320251 43.33998086 87 42 C86.34 42 85.68 42 85 42 C85 41.34 85 40.68 85 40 C84.154375 39.731875 83.30875 39.46375 82.4375 39.1875 C79 38 79 38 75.9375 36.375 C69.91886462 33.77270754 62.55677667 33.98303306 56.3359375 35.76171875 C52.82190067 37.24842664 50.18148234 38.84738985 47.25 41.3125 C45 43 45 43 42.64453125 42.78125 C39.79687178 41.93999166 37.89335504 40.85036066 35.4375 39.1875 C30.04461228 35.63858474 24.54702868 32.3025484 19 29 C11.92314934 24.77624101 4.9198768 20.47756734 -2 16 C-1.34 10.72 -0.68 5.44 0 0 Z " fill="#7F4884" transform="translate(326,301)"/>
<path d="M0 0 C4.86254343 1.40954096 8.95531867 3.5702645 13.25 6.1875 C14.73878909 7.07945204 16.22843348 7.96997741 17.71875 8.859375 C18.54375 9.35244141 19.36875 9.84550781 20.21875 10.35351562 C25.69992127 13.59833822 31.22832203 16.76227527 36.75 19.9375 C38.9741704 21.21707937 41.19814063 22.49700677 43.421875 23.77734375 C44.37674805 24.32640381 45.33162109 24.87546387 46.31542969 25.44116211 C47.64429199 26.21278687 47.64429199 26.21278687 49 27 C49.86342514 27.37258942 50.72685028 27.74517883 51.61643982 28.12905884 C54 30 54 30 54.7089386 33.31712341 C54.77218025 34.70845033 54.80765253 36.10120218 54.8215332 37.49389648 C54.86117943 38.6360688 54.86117943 38.6360688 54.90162659 39.80131531 C54.97984015 42.32476526 55.01871789 44.84665765 55.05078125 47.37109375 C55.06616629 48.23596972 55.08155132 49.10084568 55.09740257 49.99193001 C55.17826804 54.57694752 55.22944609 59.16118413 55.25610352 63.74682617 C55.28897447 68.46072398 55.41913492 73.166472 55.57316303 77.87774563 C55.67446793 81.51994454 55.7030465 85.16024061 55.7127285 88.8037281 C55.72958626 90.53871339 55.7729547 92.2736701 55.84450722 94.00726128 C56.34882715 107.14154195 56.34882715 107.14154195 52.46935654 111.86275101 C48.69632086 115.36326289 44.50172845 118.05851186 40.09337425 120.6842823 C36.61772194 122.86878288 33.48382786 125.46443567 30.3125 128.0625 C26.68459275 130.98732358 23.06592429 133.69924507 19 136 C17.5 134.625 17.5 134.625 16 133 C16 132.34 16 131.68 16 131 C15.44054687 130.72285156 14.88109375 130.44570313 14.3046875 130.16015625 C12.75547794 129.38029991 11.21884284 128.57499754 9.6953125 127.74609375 C2.17358338 123.91664199 -4.61697326 123.13461795 -13 123 C-13.23074219 122.27296875 -13.46148438 121.5459375 -13.69921875 120.796875 C-15.40841324 115.52742163 -17.21308394 110.38782906 -19.4375 105.3125 C-21.85247393 99.68249943 -23.53301626 93.96630705 -25.19067383 88.08300781 C-26.49572089 83.51869467 -28.05887593 79.28745458 -30.11328125 75 C-31.05346439 72.87941072 -31.68988512 70.79636673 -32.3125 68.5625 C-33.96011183 62.70841551 -36.25922261 57.12397516 -38.57543945 51.50805664 C-40.40637203 46.95974432 -41.52121673 42.88488334 -42 38 C-41.04480469 37.731875 -40.08960938 37.46375 -39.10546875 37.1875 C-31.00038938 34.77668835 -24.75064013 31.97323813 -18.07421875 26.57421875 C-16 25 -16 25 -14 25 C-14 24.34 -14 23.68 -14 23 C-12.33720673 21.9935725 -10.67016516 20.99414593 -9 20 C-8.34 19.01 -7.68 18.02 -7 17 C-6.34 17 -5.68 17 -5 17 C-4.73445312 16.43796875 -4.46890625 15.8759375 -4.1953125 15.296875 C-2.90668966 12.82069778 -1.43869639 10.56155118 0.125 8.25 C0.66382813 7.45078125 1.20265625 6.6515625 1.7578125 5.828125 C2.16773438 5.22484375 2.57765625 4.6215625 3 4 C2.01 2.68 1.02 1.36 0 0 Z " fill="#7F4884" transform="translate(540,163)"/>
<path d="M0 0 C8.97244481 0.9176364 19.1712396 9.68081597 26.68603516 14.57666016 C31.4369273 17.6645427 36.26680312 20.5988368 41.13500977 23.49731445 C45.90396781 26.33758286 50.64408615 29.22185499 55.375 32.125 C62.82605917 36.69304783 70.31428054 41.19734207 77.8125 45.6875 C85.18053159 50.10053833 92.53747383 54.52589228 99.83984375 59.046875 C103.88403262 61.54637369 107.94199099 64.02302255 112 66.5 C119.34330173 70.98390806 126.67629792 75.48414837 134 80 C133.67386719 81.02222656 133.34773437 82.04445313 133.01171875 83.09765625 C132.01260428 86.60469794 131.7632025 89.7760403 131.8125 93.4375 C131.81894531 94.48808594 131.82539063 95.53867187 131.83203125 96.62109375 C131.90428872 100.10326005 131.90428872 100.10326005 132.890625 103.81640625 C133.63567671 109.46891938 130.17387379 113.17789738 126.9375 117.5 C126.36322266 118.30308594 125.78894531 119.10617187 125.19726562 119.93359375 C123.48995443 122.30881586 121.75222618 124.65776371 120 127 C119.41492676 127.78375 118.82985352 128.5675 118.22705078 129.375 C116.8216321 131.25274845 115.41284053 133.12783298 114 135 C110.34694867 133.31774186 108.83638168 131.72758279 106.5625 128.375 C99.96870576 119.00811472 92.74097227 110.00868797 85 101.5625 C81.12967076 97.29351024 77.63225747 92.75487965 74.125 88.1875 C73.55265625 87.44508057 72.9803125 86.70266113 72.390625 85.93774414 C71.85179687 85.22996826 71.31296875 84.52219238 70.7578125 83.79296875 C70.2745752 83.1589917 69.79133789 82.52501465 69.29345703 81.87182617 C67.98799107 79.98262128 66.97476136 78.07632797 66 76 C64.87335938 76.32226562 63.74671875 76.64453125 62.5859375 76.9765625 C57.9068834 78.13963578 53.4323115 78.38372294 48.625 78.375 C47.79226563 78.37483887 46.95953125 78.37467773 46.1015625 78.37451172 C38.27970687 78.22937963 32.49905628 76.33270419 26 72 C25.6376123 72.50337891 25.27522461 73.00675781 24.90185547 73.52539062 C23.22704113 75.85084076 21.55102685 78.17542363 19.875 80.5 C19.30523437 81.29148437 18.73546875 82.08296875 18.1484375 82.8984375 C17.00389855 84.48518468 15.85644031 86.06983027 14.70605469 87.65234375 C13.56462086 89.22304033 12.4298825 90.79862348 11.30175781 92.37890625 C10.77163086 93.10980469 10.24150391 93.84070313 9.6953125 94.59375 C9.22367676 95.25052734 8.75204102 95.90730469 8.26611328 96.58398438 C7.8482959 97.05126953 7.43047852 97.51855469 7 98 C6.34 98 5.68 98 5 98 C4.08281793 92.81259098 3.16625998 87.62507195 2.25 82.4375 C2.11338959 81.66424377 1.97677917 80.89098755 1.83602905 80.09429932 C0.14558108 70.52391214 -1.53288953 60.95165971 -3.1875 51.375 C-4.89708887 41.49301868 -6.70121237 31.63107719 -8.62890625 21.7890625 C-10.641704 11.28873299 -10.641704 11.28873299 -10 8 C-7.25 5.875 -7.25 5.875 -4 4 C-3.29875 3.236875 -2.5975 2.47375 -1.875 1.6875 C-1.25625 1.130625 -0.6375 0.57375 0 0 Z " fill="#472949" transform="translate(232,270)"/>
<path d="M0 0 C2.37314708 3.55972062 2.7659517 6.74258294 3.375 10.875 C4.43205634 17.63400299 5.61827008 24.3498536 6.9375 31.0625 C8.69400344 40.06573847 10.15660686 49.10128784 11.56347656 58.16503906 C12.61272728 64.83810676 13.90471447 71.37930476 15.40625 77.96484375 C16.37929038 82.93887252 16.73149885 87.94477152 17 93 C16.113125 93.556875 15.22625 94.11375 14.3125 94.6875 C8.6175925 98.51084166 4.83606575 103.4103042 1 109 C-2.82254172 107.61562003 -5.95480055 105.84687544 -9.3125 103.5625 C-10.37082031 102.84449219 -11.42914063 102.12648438 -12.51953125 101.38671875 C-13.67988549 100.59143464 -14.84003573 99.7958528 -16 99 C-17.21217493 98.1730823 -18.42441619 97.34626183 -19.63671875 96.51953125 C-22.99245187 94.22666892 -26.33468599 91.91470519 -29.67578125 89.60058594 C-32.26500777 87.81750095 -34.86685175 86.05359949 -37.46875 84.2890625 C-39.3127505 83.02640742 -41.15650371 81.76339112 -43 80.5 C-43.89138672 79.9004248 -44.78277344 79.30084961 -45.70117188 78.68310547 C-46.9319043 77.83449951 -46.9319043 77.83449951 -48.1875 76.96875 C-48.92355469 76.46794922 -49.65960938 75.96714844 -50.41796875 75.45117188 C-50.94003906 74.97228516 -51.46210938 74.49339844 -52 74 C-52 69.98086352 -50.05115815 67.91628765 -47.75 64.8125 C-47.30180908 64.19665039 -46.85361816 63.58080078 -46.3918457 62.94628906 C-42.54140571 57.67635949 -38.61273921 52.46386457 -34.68139648 47.25415039 C-30.25566347 41.37784267 -25.95010287 35.41908289 -21.65625 29.44604492 C-17.85948073 24.17103471 -13.99518069 18.95600313 -10.078125 13.76953125 C-6.66405136 9.21957221 -3.33109818 4.61089339 0 0 Z " fill="#7F4A84" transform="translate(230,370)"/>
<path d="M0 0 C0 49.83 0 99.66 0 151 C-2.62435307 147.50086257 -4.29230407 144.52426816 -6.1171875 140.59375 C-6.55738976 139.65071518 -6.55738976 139.65071518 -7.00648499 138.68862915 C-7.96713242 136.6278019 -8.92113413 134.56397377 -9.875 132.5 C-10.54461197 131.05955112 -11.21462019 129.61928637 -11.88500977 128.17919922 C-13.25775843 125.22838965 -14.6277758 122.27633503 -15.99560547 119.32324219 C-17.8556981 115.30844633 -19.72533922 111.29816859 -21.59765625 107.2890625 C-26.64521465 96.47181037 -31.65406954 85.64336525 -36.44897461 74.71142578 C-38.53634756 69.9716938 -40.76926851 65.3319123 -43.1875 60.75 C-44 59 -44 59 -44 57 C-42.609375 55.66796875 -42.609375 55.66796875 -40.75 54.1875 C-35.32706789 49.65195678 -32.58491924 46.00966555 -31 39 C-31.12916733 36.53791251 -31.31819472 34.07833935 -31.5625 31.625 C-31.6711588 26.86763432 -31.62797127 24.78729183 -28.62890625 21.02734375 C-21.28337956 15 -21.28337956 15 -18 15 C-18 14.34 -18 13.68 -18 13 C-17.34 13 -16.68 13 -16 13 C-16 12.34 -16 11.68 -16 11 C-14.30189246 9.62101957 -12.53964541 8.32040522 -10.75 7.0625 C-9.77546875 6.37285156 -8.8009375 5.68320312 -7.796875 4.97265625 C-6.87390625 4.32167969 -5.9509375 3.67070312 -5 3 C-4.24203125 2.42121094 -3.4840625 1.84242188 -2.703125 1.24609375 C-1 0 -1 0 0 0 Z " fill="#7F4983" transform="translate(594,281)"/>
<path d="M0 0 C5.90864239 3.22822891 11.70777232 6.58978784 17.4375 10.125 C18.99605878 11.0820882 20.55465369 12.03911756 22.11328125 12.99609375 C22.90943848 13.48577637 23.7055957 13.97545898 24.52587891 14.47998047 C28.72070177 17.0571432 32.92324907 19.6216543 37.125 22.1875 C38.64847214 23.11843289 40.17191292 24.04941711 41.6953125 24.98046875 C42.78585937 25.64691406 43.87640625 26.31335938 45 27 C44.51080078 28.53333984 44.51080078 28.53333984 44.01171875 30.09765625 C43.01260428 33.60469794 42.7632025 36.7760403 42.8125 40.4375 C42.82216797 42.01337891 42.82216797 42.01337891 42.83203125 43.62109375 C42.90192451 47.10106759 42.90192451 47.10106759 43.90234375 50.796875 C44.66431072 56.53950414 41.02036861 60.42115599 37.75 64.8125 C37.15058594 65.65748047 36.55117188 66.50246094 35.93359375 67.37304688 C33.46913822 70.81290221 31.07120942 74.0756695 28 77 C27.40574219 76.21238281 26.81148438 75.42476563 26.19921875 74.61328125 C21.3588558 68.23824143 16.38881161 62.02461784 11.1784668 55.94848633 C7.36644093 51.48319932 3.73960492 46.89171331 0.14501953 42.25048828 C-3.57015761 37.4787868 -7.4569861 32.8714097 -11.47265625 28.34960938 C-14.04800978 25.38718635 -15.78475753 22.7418483 -17 19 C-16.40832031 18.56429688 -15.81664062 18.12859375 -15.20703125 17.6796875 C-8.36000021 12.51928237 -3.59638229 7.9498977 0 0 Z " fill="#7F4984" transform="translate(321,323)"/>
<path d="M0 0 C1.32 0.33 2.64 0.66 4 1 C3.45841777 4.71118317 2.60287192 6.96354083 0.26953125 9.890625 C-0.28420166 10.59566162 -0.83793457 11.30069824 -1.40844727 12.02709961 C-1.99553467 12.76065674 -2.58262207 13.49421387 -3.1875 14.25 C-4.36811514 15.77662681 -5.5478137 17.30396293 -6.7265625 18.83203125 C-8.5581673 21.18344403 -10.41040996 23.48521713 -12.3359375 25.76171875 C-14.00143111 27.86054214 -15.22676616 29.43404568 -16 32 C-15.38645758 34.75873388 -14.37660357 36.99678291 -13.1171875 39.5234375 C-11.06047469 44.08272394 -11.2093512 48.35132651 -12.625 53.09375 C-15.00991082 58.63015011 -19.03107427 62.65179809 -24 66 C-29.46025717 67.86316467 -35.16167681 67.53881887 -40.625 65.9375 C-45.79115743 62.97174295 -49.75205878 59.49588245 -52.4375 54.125 C-53.63431325 47.47603752 -53.77973843 41.95238164 -50.41015625 35.92578125 C-47.20547216 31.54930131 -43.1741347 27.72471157 -38 26 C-36.4198921 25.88121566 -34.83451865 25.82480216 -33.25 25.8125 C-32.02023438 25.79123047 -32.02023438 25.79123047 -30.765625 25.76953125 C-27.34099978 26.05491668 -24.27319065 26.98015119 -21 28 C-10.13831922 14.2671133 -10.13831922 14.2671133 0 0 Z " fill="#472849" transform="translate(172,449)"/>
<path d="M0 0 C3.64269195 0.42093329 6.59260567 2.29586269 9.75 4.0625 C10.73484375 4.61035156 11.7196875 5.15820312 12.734375 5.72265625 C13.48203125 6.14417969 14.2296875 6.56570313 15 7 C14.236875 7.804375 13.47375 8.60875 12.6875 9.4375 C5.59992547 17.95062068 5.26875164 30.43752364 6 41 C7.84064083 51.41989891 13.08466817 61.02696958 21 68 C19.50548809 72.53448501 16.94362819 75.94125958 14 79.625 C8.64922471 85.95719248 8.64922471 85.95719248 6.375 93.6875 C6.30023438 94.49574219 6.22546875 95.30398438 6.1484375 96.13671875 C6.09945312 96.75160156 6.05046875 97.36648438 6 98 C5.67 98 5.34 98 5 98 C4.08281793 92.81259098 3.16625998 87.62507195 2.25 82.4375 C2.11338959 81.66424377 1.97677917 80.89098755 1.83602905 80.09429932 C0.14558108 70.52391214 -1.53288953 60.95165971 -3.1875 51.375 C-4.89708887 41.49301868 -6.70121237 31.63107719 -8.62890625 21.7890625 C-10.641704 11.28873299 -10.641704 11.28873299 -10 8 C-7.25 5.875 -7.25 5.875 -4 4 C-3.29875 3.236875 -2.5975 2.47375 -1.875 1.6875 C-1.25625 1.130625 -0.6375 0.57375 0 0 Z " fill="#804C84" transform="translate(232,270)"/>
<path d="M0 0 C0.33 0 0.66 0 1 0 C1.72775026 4.85166843 1.83285299 7.60624602 -0.72265625 11.8828125 C-3.08119928 14.98168721 -5.52675303 17.99210088 -8 21 C-9.41041301 22.90596352 -10.80707271 24.82220792 -12.1875 26.75 C-16.33056064 32.49071147 -20.5944088 38.1387364 -24.859375 43.7890625 C-30.23902525 50.92298653 -35.55822328 58.08864005 -40.70214844 65.39501953 C-43.02889637 68.69008471 -45.44916261 71.87522419 -48 75 C-49.32 74.67 -50.64 74.34 -52 74 C-52 69.98086352 -50.05115815 67.91628765 -47.75 64.8125 C-47.30180908 64.19665039 -46.85361816 63.58080078 -46.3918457 62.94628906 C-42.54140571 57.67635949 -38.61273921 52.46386457 -34.68139648 47.25415039 C-30.25566347 41.37784267 -25.95010287 35.41908289 -21.65625 29.44604492 C-17.85900206 24.17036968 -13.99641063 18.95320444 -10.07421875 13.76953125 C-7.16506872 9.88518592 -4.34555744 5.93780688 -1.53125 1.984375 C-1.0259375 1.32953125 -0.520625 0.6746875 0 0 Z " fill="#4B274D" transform="translate(230,370)"/>
<path d="M0 0 C7.2003122 3.47715727 14.11905811 7.30657529 21 11.375 C23.12726524 12.62427522 25.25488158 13.87295275 27.3828125 15.12109375 C29.01911621 16.08184814 29.01911621 16.08184814 30.68847656 17.06201172 C36.07000956 20.21142258 41.47200344 23.3250995 46.875 26.4375 C47.95104492 27.05786133 49.02708984 27.67822266 50.13574219 28.31738281 C55.63836181 31.48913407 61.14290495 34.65752698 66.6484375 37.82421875 C80.48821599 45.78973485 94.27400167 53.83989191 108 62 C107.01 62.495 107.01 62.495 106 63 C103.85888672 62.05053711 103.85888672 62.05053711 101.1796875 60.52734375 C100.18195313 59.96466797 99.18421875 59.40199219 98.15625 58.82226562 C97.0734375 58.20029297 95.990625 57.57832031 94.875 56.9375 C93.75351562 56.30134766 92.63203125 55.66519531 91.4765625 55.00976562 C82.95306711 50.16807805 74.48980712 45.22216996 66.03588867 40.26025391 C57.76319806 35.41450187 49.41050947 30.72127219 41.03466797 26.05664062 C34.52961163 22.42982784 28.06107565 18.74780124 21.625 15 C13.85303801 10.47461548 6.06575239 5.98694366 -2 2 C-1.34 2 -0.68 2 0 2 C0 1.34 0 0.68 0 0 Z " fill="#6A516C" transform="translate(418,92)"/>
<path d="M0 0 C1.29118633 2.58237266 1.10679965 4.39764174 1.08229065 7.28970337 C1.07525116 8.41153519 1.06821167 9.533367 1.06095886 10.68919373 C1.04801285 11.9256514 1.03506683 13.16210907 1.02172852 14.43603516 C1.0073172 16.38231056 1.0073172 16.38231056 0.99261475 18.36790466 C0.96611069 21.93177052 0.93333594 25.49555474 0.89946485 29.05935717 C0.8651446 32.78159773 0.83655033 36.50388209 0.80735779 40.22616577 C0.75118227 47.27745647 0.68983102 54.32869232 0.62663645 61.37992322 C0.55495245 69.40638684 0.48901369 77.4328944 0.42356598 85.45941091 C0.28878607 101.97299812 0.14676373 118.48651485 0 135 C-0.33 135 -0.66 135 -1 135 C-1 92.1 -1 49.2 -1 5 C-2.32 4.67 -3.64 4.34 -5 4 C-3.35 2.68 -1.7 1.36 0 0 Z " fill="#774F7B" transform="translate(593,281)"/>
<path d="M0 0 C0.66 0.66 1.32 1.32 2 2 C1.01 2 0.02 2 -1 2 C-1 2.66 -1 3.32 -1 4 C-1.66 4 -2.32 4 -3 4 C-3 3.34 -3 2.68 -3 2 C-4.32 2 -5.64 2 -7 2 C-7 2.66 -7 3.32 -7 4 C-7.66 4 -8.32 4 -9 4 C-9 4.66 -9 5.32 -9 6 C-10.98 6 -12.96 6 -15 6 C-9.90853123 1.75710936 -6.80791702 -0.59199278 0 0 Z " fill="#765174" transform="translate(315,32)"/>
<path d="M0 0 C0 3 0 3 -1.28515625 4.61328125 C-2.16494141 5.45439453 -2.16494141 5.45439453 -3.0625 6.3125 C-3.69414063 6.91835938 -4.32578125 7.52421875 -4.9765625 8.1484375 C-7.92275265 10.84437212 -10.93716246 13.43721756 -14 16 C-14.66 15.67 -15.32 15.34 -16 15 C-10.85228904 9.74723372 -5.66129431 4.69766975 0 0 Z " fill="#724576" transform="translate(517,338)"/>
<path d="M0 0 C-0.66 1.65 -1.32 3.3 -2 5 C-2.53625 4.773125 -3.0725 4.54625 -3.625 4.3125 C-7.02760062 3.86478939 -9.00148421 5.468843 -12 7 C-12.99 6.67 -13.98 6.34 -15 6 C-13.07010782 4.80017556 -11.13080772 3.61547182 -9.1875 2.4375 C-8.10855469 1.77621094 -7.02960938 1.11492187 -5.91796875 0.43359375 C-3 -1 -3 -1 0 0 Z " fill="#795A7B" transform="translate(100,155)"/>
<path d="M0 0 C1.32 0.33 2.64 0.66 4 1 C3.625 3.4375 3.625 3.4375 3 6 C2.01 6.495 2.01 6.495 1 7 C1 6.34 1 5.68 1 5 C-0.65 5.66 -2.3 6.32 -4 7 C-2.79618552 4.50638429 -1.54571278 2.31856917 0 0 Z " fill="#4E2E4E" transform="translate(172,449)"/>
<path d="M0 0 C0.99 0.66 1.98 1.32 3 2 C2.75 4.375 2.75 4.375 2 7 C-0.0625 8.3125 -0.0625 8.3125 -2 9 C-2.66 8.01 -3.32 7.02 -4 6 C-3.34 6 -2.68 6 -2 6 C-1.7834375 5.071875 -1.7834375 5.071875 -1.5625 4.125 C-1 2 -1 2 0 0 Z " fill="#502F52" transform="translate(346,396)"/>
<path d="M0 0 C0 3.67718093 -0.82184858 5.07076189 -3 8 C-4.64551962 8.71727778 -6.31422289 9.38325228 -8 10 C-10.27191416 12.02040748 -10.27191416 12.02040748 -12 14 C-12.66 13.67 -13.32 13.34 -14 13 C-9.38 8.71 -4.76 4.42 0 0 Z " fill="#522955" transform="translate(429,410)"/>
<path d="M0 0 C0.66 0.66 1.32 1.32 2 2 C1.34 2 0.68 2 0 2 C0 2.66 0 3.32 0 4 C-3.08809695 5.76462683 -4.23312136 6 -8 6 C-8 6.66 -8 7.32 -8 8 C-9.32 7.67 -10.64 7.34 -12 7 C-8.04 4.69 -4.08 2.38 0 0 Z " fill="#735376" transform="translate(174,110)"/>
<path d="M0 0 C0.33 0 0.66 0 1 0 C1 3.63 1 7.26 1 11 C-1.0625 9.25 -1.0625 9.25 -3 7 C-2.81367553 3.92564622 -1.75085936 2.62628904 0 0 Z " fill="#825786" transform="translate(309,469)"/>
<path d="M0 0 C0.66 0 1.32 0 2 0 C0.54955729 4.10958767 -1.51110752 7.43258745 -4 11 C-6 8 -6 8 -6 6 C-5.34 6 -4.68 6 -4 6 C-4 5.34 -4 4.68 -4 4 C-3.34 4 -2.68 4 -2 4 C-2 3.34 -2 2.68 -2 2 C-1.34 2 -0.68 2 0 2 C0 1.34 0 0.68 0 0 Z " fill="#855B84" transform="translate(338,412)"/>
<path d="M0 0 C0.33 0.99 0.66 1.98 1 3 C-2.63 6.3 -6.26 9.6 -10 13 C-10.66 12.67 -11.32 12.34 -12 12 C-10.54782324 10.49403892 -9.08807139 8.99537896 -7.625 7.5 C-6.40683594 6.24703125 -6.40683594 6.24703125 -5.1640625 4.96875 C-3 3 -3 3 -1 3 C-0.67 2.01 -0.34 1.02 0 0 Z " fill="#542C56" transform="translate(507,337)"/>
<path d="M0 0 C1.859375 0.90234375 1.859375 0.90234375 3.859375 3.90234375 C2.539375 3.90234375 1.219375 3.90234375 -0.140625 3.90234375 C-0.140625 3.24234375 -0.140625 2.58234375 -0.140625 1.90234375 C-2.780625 3.88234375 -5.420625 5.86234375 -8.140625 7.90234375 C-8.800625 7.57234375 -9.460625 7.24234375 -10.140625 6.90234375 C-8.90509224 5.69979851 -7.65160161 4.51568143 -6.390625 3.33984375 C-5.69453125 2.67855469 -4.9984375 2.01726562 -4.28125 1.3359375 C-2.140625 -0.09765625 -2.140625 -0.09765625 0 0 Z " fill="#704473" transform="translate(424.140625,180.09765625)"/>
<path d="M0 0 C1.32 0.33 2.64 0.66 4 1 C2.37829621 2.00533667 0.75252763 3.00411907 -0.875 4 C-2.23238281 4.8353125 -2.23238281 4.8353125 -3.6171875 5.6875 C-6 7 -6 7 -8 7 C-8 6.01 -8 5.02 -8 4 C-6.68 4 -5.36 4 -4 4 C-4 3.34 -4 2.68 -4 2 C-2.68 2 -1.36 2 0 2 C0 1.34 0 0.68 0 0 Z " fill="#725374" transform="translate(560,536)"/>
<path d="M0 0 C2.31 0 4.62 0 7 0 C7 0.66 7 1.32 7 2 C7.66 2 8.32 2 9 2 C9 2.66 9 3.32 9 4 C9.66 4.33 10.32 4.66 11 5 C10.01 5.495 10.01 5.495 9 6 C6.8359375 5.00390625 6.8359375 5.00390625 4.375 3.5625 C3.55773437 3.08941406 2.74046875 2.61632812 1.8984375 2.12890625 C1.27195312 1.75636719 0.64546875 1.38382813 0 1 C0 0.67 0 0.34 0 0 Z " fill="#75507A" transform="translate(257,650)"/>
<path d="M0 0 C0.66 0.33 1.32 0.66 2 1 C-0.64 3.97 -3.28 6.94 -6 10 C-7.32 9.67 -8.64 9.34 -10 9 C-6.7 6.03 -3.4 3.06 0 0 Z " fill="#572B5A" transform="translate(476,366)"/>
<path d="M0 0 C2.9375 1.3125 2.9375 1.3125 6 3 C6.33 3.99 6.66 4.98 7 6 C5.02 6 3.04 6 1 6 C1 4.68 1 3.36 1 2 C0.34 1.67 -0.32 1.34 -1 1 C-0.67 0.67 -0.34 0.34 0 0 Z " fill="#764D79" transform="translate(411,88)"/>
<path d="M0 0 C0.66 0 1.32 0 2 0 C3.625 2 3.625 2 5 4 C0.545 5.485 0.545 5.485 -4 7 C-2.68 4.69 -1.36 2.38 0 0 Z " fill="#88618A" transform="translate(369,383)"/>
<path d="M0 0 C0.33 0.99 0.66 1.98 1 3 C-0.07356677 4.15498897 -1.15929788 5.29867867 -2.25 6.4375 C-2.85328125 7.07558594 -3.4565625 7.71367187 -4.078125 8.37109375 C-6.10048016 10.08516306 -7.41270605 10.59358878 -10 11 C-9.278125 10.29875 -8.55625 9.5975 -7.8125 8.875 C-5.00176187 6.07229255 -2.50483774 3.07737208 0 0 Z " fill="#734576" transform="translate(317,330)"/>
<path d="M0 0 C0.33 0.66 0.66 1.32 1 2 C0.34 2 -0.32 2 -1 2 C-1 3.32 -1 4.64 -1 6 C-1.66 6 -2.32 6 -3 6 C-3.33 6.99 -3.66 7.98 -4 9 C-4.66 7.68 -5.32 6.36 -6 5 C-4.02 3.35 -2.04 1.7 0 0 Z " fill="#754679" transform="translate(319,266)"/>
<path d="M0 0 C0.33 0.66 0.66 1.32 1 2 C3.52733235 2.65555119 3.52733235 2.65555119 6 3 C5.34 3.66 4.68 4.32 4 5 C1.27130593 4.96712417 -1.2966618 4.43602229 -4 4 C-2.68 2.68 -1.36 1.36 0 0 Z " fill="#F1E9F0" transform="translate(129,308)"/>
<path d="M0 0 C0.99 0 1.98 0 3 0 C2.67 0.99 2.34 1.98 2 3 C-1.5625 4.6875 -1.5625 4.6875 -5 6 C-5.33 5.34 -5.66 4.68 -6 4 C-5.34 4 -4.68 4 -4 4 C-4 3.34 -4 2.68 -4 2 C-2.68 2 -1.36 2 0 2 C0 1.34 0 0.68 0 0 Z " fill="#765179" transform="translate(542,546)"/>
<path d="M0 0 C1.98 0 3.96 0 6 0 C2.80009492 2.74277578 -0.00499382 4.6302836 -4 6 C-4 5.34 -4 4.68 -4 4 C-3.34 4 -2.68 4 -2 4 C-2 3.34 -2 2.68 -2 2 C-1.34 2 -0.68 2 0 2 C0 1.34 0 0.68 0 0 Z " fill="#755175" transform="translate(576,526)"/>
<path d="M0 0 C0.66 0.33 1.32 0.66 2 1 C1.67 1.66 1.34 2.32 1 3 C0.01 3.33 -0.98 3.66 -2 4 C-2.73323796 6.01508358 -2.73323796 6.01508358 -3 8 C-3.99 7.67 -4.98 7.34 -6 7 C-6 6.01 -6 5.02 -6 4 C-3 1.8125 -3 1.8125 0 0 Z " fill="#89678B" transform="translate(121,321)"/>
<path d="M0 0 C0 1.32 0 2.64 0 4 C-0.66 4 -1.32 4 -2 4 C-2 4.66 -2 5.32 -2 6 C-2.66 6 -3.32 6 -4 6 C-4 5.34 -4 4.68 -4 4 C-4.99 3.67 -5.98 3.34 -7 3 C-2.25 0 -2.25 0 0 0 Z " fill="#725179" transform="translate(300,38)"/>
<path d="M0 0 C0 0.99 0 1.98 0 3 C0.66 3.33 1.32 3.66 2 4 C0.68 4.33 -0.64 4.66 -2 5 C-2.99 3.68 -3.98 2.36 -5 1 C-2 0 -2 0 0 0 Z " fill="#86618A" transform="translate(232,229)"/>
<path d="M0 0 C1.98 0.99 3.96 1.98 6 3 C5.67 3.66 5.34 4.32 5 5 C3.35 5 1.7 5 0 5 C0 3.35 0 1.7 0 0 Z " fill="#76507B" transform="translate(548,167)"/>
<path d="M0 0 C1.32 0.33 2.64 0.66 4 1 C-1.75 5 -1.75 5 -4 5 C-4 4.01 -4 3.02 -4 2 C-2.68 2 -1.36 2 0 2 C0 1.34 0 0.68 0 0 Z " fill="#715474" transform="translate(404,626)"/>
<path d="M0 0 C0.66 0.33 1.32 0.66 2 1 C1.01 2.485 1.01 2.485 0 4 C-0.66 4 -1.32 4 -2 4 C-2 4.66 -2 5.32 -2 6 C-3.32 5.67 -4.64 5.34 -6 5 C-4.02 3.35 -2.04 1.7 0 0 Z " fill="#522B56" transform="translate(368,216)"/>
<path d="M0 0 C0.99 0.33 1.98 0.66 3 1 C2.01 2.485 2.01 2.485 1 4 C-2.125 4.1875 -2.125 4.1875 -5 4 C-2.6875 1.9375 -2.6875 1.9375 0 0 Z " fill="#725176" transform="translate(201,94)"/>
</svg>
