<?xml version="1.0" encoding="UTF-8"?>
<svg version="1.1" xmlns="http://www.w3.org/2000/svg" width="764" height="798">
<path d="M0 0 C252.12 0 504.24 0 764 0 C764 263.34 764 526.68 764 798 C511.88 798 259.76 798 0 798 C0 534.66 0 271.32 0 0 Z " fill="#7F4884" transform="translate(0,0)"/>
<path d="M0 0 C252.12 0 504.24 0 764 0 C764 263.34 764 526.68 764 798 C511.88 798 259.76 798 0 798 C0 534.66 0 271.32 0 0 Z M376.37109375 51.53515625 C375.43217285 52.08937256 374.49325195 52.64358887 373.52587891 53.21459961 C372.50671387 53.82440674 371.48754883 54.43421387 370.4375 55.0625 C368.24649757 56.35745433 366.05507723 57.65170178 363.86328125 58.9453125 C362.72842285 59.61723633 361.59356445 60.28916016 360.42431641 60.98144531 C355.01298019 64.17130186 349.56959648 67.30486218 344.125 70.4375 C341.94006709 71.69655024 339.75517147 72.9556652 337.5703125 74.21484375 C336.48524414 74.83987793 335.40017578 75.46491211 334.28222656 76.10888672 C328.85340058 79.23680148 323.42680719 82.36858448 318 85.5 C315.83334417 86.75001879 313.6666775 88.00001878 311.5 89.25 C310.4275 89.86875 309.355 90.4875 308.25 91.125 C142.5 186.75 142.5 186.75 139.24682617 188.62670898 C137.09059787 189.87076792 134.93450951 191.11506942 132.77856445 192.35961914 C127.78593048 195.24130659 122.79212484 198.12087122 117.79293823 200.99118042 C116.04975268 201.9921981 114.30703628 202.99402783 112.56445312 203.99609375 C110.39870382 205.24118039 108.23211129 206.4848021 106.06445312 207.7265625 C104.11913058 208.84572027 102.18227451 209.97979332 100.25637341 211.13205147 C97 213 97 213 93.62122822 214.60206413 C86.89118235 217.93173929 86.89118235 217.93173929 82.80849266 223.99113846 C82.3541156 227.7255729 82.3255195 231.266947 82.43237305 235.02783203 C82.42616084 236.45462834 82.41422028 237.88140917 82.39707279 239.30811596 C82.36648134 243.21719042 82.41655301 247.12167019 82.47996235 251.03019547 C82.53405813 255.25071887 82.51251129 259.47093918 82.50006104 263.69169617 C82.48863749 271.00311374 82.52419857 278.31307828 82.59176636 285.62417603 C82.68922527 296.19920478 82.7146186 306.77343373 82.72093689 317.34886611 C82.73175401 333.49696824 82.78570076 349.64453055 82.87205398 365.79239404 C83.00594057 390.89969225 83.01939693 416.00591761 82.98817039 441.11350632 C82.97821263 449.20932661 82.96997511 457.30514905 82.96142709 465.40097094 C82.95931601 467.38191371 82.95715786 469.36285644 82.95495188 471.34379911 C82.93115964 492.90240166 82.94311951 514.46093213 82.96484375 536.01953125 C82.96566546 536.85330158 82.96648718 537.68707191 82.96733379 538.54610801 C82.97701314 548.36407354 82.98772496 558.18203734 83 568 C83.77306992 568.42821045 84.54613983 568.8564209 85.34263611 569.29760742 C88.25061874 570.908975 91.15811153 572.52121981 94.06529236 574.1340332 C95.31613914 574.82773676 96.56717204 575.52110484 97.81840515 576.21411133 C106.12811583 580.81688556 114.37391627 585.50813187 122.5390625 590.36328125 C128.14245845 593.68875802 133.79157467 596.93494253 139.4375 600.1875 C141.09857788 601.14462891 141.09857788 601.14462891 142.79321289 602.12109375 C145.06369079 603.42906691 147.334281 604.73684513 149.60498047 606.04443359 C155.0716998 609.19332054 160.53574887 612.34683264 166 615.5 C168.16665311 616.7500235 170.33331979 618.00002347 172.5 619.25 C315.49999999 701.74999999 315.49999999 701.74999999 318.7512207 703.62573242 C320.91378583 704.8733474 323.07638339 706.12090616 325.23901367 707.3684082 C331.83018885 711.1706083 338.4204723 714.97434274 345.00878906 718.78149414 C347.19012946 720.03997216 349.37304447 721.29572529 351.55761719 722.54858398 C356.76905538 725.53922981 361.95270302 728.56288307 367.08984375 731.6796875 C368.04656982 732.25114502 369.0032959 732.82260254 369.98901367 733.41137695 C371.77912831 734.48190001 373.55998597 735.56811831 375.3293457 736.67260742 C376.12300537 737.14287354 376.91666504 737.61313965 377.734375 738.09765625 C378.41725586 738.51539307 379.10013672 738.93312988 379.80371094 739.36352539 C383.85287405 740.5369545 387.10309124 738.46124873 390.68701172 736.61816406 C391.59209473 736.08932617 392.49717773 735.56048828 393.4296875 735.015625 C394.4594873 734.41758057 395.48928711 733.81953613 396.55029297 733.20336914 C397.64744629 732.55875732 398.74459961 731.91414551 399.875 731.25 C401.03892834 730.5716745 402.20315883 729.89386723 403.36767578 729.21655273 C406.34667457 727.48216421 409.32193544 725.74148059 412.29589844 723.99847412 C416.81930947 721.34809872 421.34775402 718.70631708 425.875 716.0625 C426.84695313 715.49426514 427.81890625 714.92603027 428.8203125 714.34057617 C437.65842533 709.18092398 446.54271872 704.10330653 455.43261719 699.03369141 C466.56868885 692.68237863 477.67347797 686.27749144 488.7734375 679.86328125 C492.03524007 677.9796495 495.29861844 676.09877679 498.5625 674.21875 C509.01713032 668.19560214 519.46042007 662.15466632 529.875 656.0625 C538.51282001 651.01161981 547.1831964 646.01975647 555.875 641.0625 C573.25801694 631.14798769 590.60067715 621.16543095 607.875 611.0625 C617.1399684 605.64386005 626.44728971 600.3022985 635.77334595 594.98983765 C645.19505205 589.62197604 654.57794681 584.19048454 663.92382812 578.69140625 C668.52409929 575.99231781 673.14700358 573.35370506 677.83374023 570.80712891 C678.80649399 570.27809967 679.77924774 569.74907043 680.78147888 569.20401001 C681.51359085 568.80668671 682.24570282 568.4093634 683 568 C683.01123187 558.94236738 683.02105542 549.88473392 683.03005028 540.82709885 C683.03342697 537.43206125 683.03704231 534.03702402 683.0408268 530.64198685 C683.06272593 510.64111609 683.06809712 490.640438 683.02788734 470.63958716 C683.01187846 462.56611436 682.9985108 454.49263661 682.98551655 446.41915846 C682.98214124 444.35750286 682.9786226 442.29584749 682.97496319 440.23419237 C682.92918743 414.10657469 683.00778664 387.98588911 683.33290768 361.86010742 C683.53124437 345.91140499 683.66364073 329.96311533 683.74712467 314.01339722 C683.80539859 303.57767185 683.93223176 293.14704519 684.14412087 282.71329606 C684.28345666 275.56071007 684.3423492 268.41025362 684.33908015 261.2563237 C684.33983367 257.13410442 684.37632228 253.02054305 684.51124001 248.90034866 C685.62073471 232.72840918 685.62073471 232.72840918 679.84625626 218.43181419 C674.63074207 214.12583127 668.91467886 211.42268595 662.62479973 209.03693485 C659.01714508 207.61172027 655.87839712 205.74125304 652.5703125 203.72265625 C650.42267629 202.50119423 648.27424651 201.28112637 646.125 200.0625 C643.73349477 198.70206314 641.34308862 197.33970556 638.953125 195.9765625 C638.07145157 195.47372993 638.07145157 195.47372993 637.17196655 194.96073914 C630.39853639 191.09278902 623.66614102 187.15529232 616.93359375 183.21679688 C606.40942072 177.06259503 595.84635645 170.97639095 585.28222656 164.89111328 C579.85340058 161.76319852 574.42680719 158.63141552 569 155.5 C566.83334417 154.24998121 564.6666775 152.99998122 562.5 151.75 C471.5 99.25 471.5 99.25 468.25048828 97.37524414 C466.08223736 96.1243552 463.91394303 94.87354148 461.74560547 93.62280273 C456.35282085 90.51201665 450.96077907 87.39995762 445.5703125 84.28515625 C430.85564098 75.7848576 416.12259429 67.31707323 401.34960938 58.91845703 C398.94628102 57.54197349 396.55315419 56.15344216 394.16601562 54.74951172 C393.5304071 54.37857895 392.89479858 54.00764618 392.2399292 53.62547302 C391.01259569 52.9087849 389.78819278 52.18704749 388.56719971 51.45960999 C383.48778132 48.50597948 381.33577876 48.57750254 376.37109375 51.53515625 Z " fill="#FEFEFE" transform="translate(0,0)"/>
<path d="M0 0 C1.93527142 0.95454667 3.8329214 1.98709091 5.69921875 3.0703125 C7.36911865 4.03239624 7.36911865 4.03239624 9.07275391 5.01391602 C10.27773761 5.71749364 11.48265113 6.4211915 12.6875 7.125 C13.94411816 7.85213915 15.20112306 8.57861033 16.45849609 9.30444336 C19.04627864 10.7996765 21.63175689 12.2987785 24.21533203 13.80126953 C28.78153198 16.45609767 33.3593331 19.09067624 37.93676758 21.72607422 C42.22090654 24.19374351 46.50148784 26.66755173 50.78222656 29.14111328 C56.18670645 32.26324605 61.59347412 35.38141204 67 38.5 C69.1666775 39.74998122 71.33334417 40.99998121 73.5 42.25 C75.10875 43.178125 75.10875 43.178125 76.75 44.125 C132 76 187.25 107.875 242.5 139.75 C244.11092529 140.6793335 244.11092529 140.6793335 245.75439453 141.62744141 C247.9065213 142.86911527 250.05854073 144.11097522 252.21044922 145.35302734 C257.25030977 148.26166823 262.29117492 151.16851898 267.33599854 154.06854248 C269.11749578 155.09275665 270.89864322 156.11757651 272.6796875 157.14257812 C274.91076625 158.42633375 277.14249573 159.70895939 279.375 160.99023438 C280.38820313 161.57353516 281.40140625 162.15683594 282.4453125 162.7578125 C283.32719238 163.2645752 284.20907227 163.77133789 285.11767578 164.29345703 C286.06884277 164.85661621 287.02000977 165.41977539 288 166 C288.98817876 166.38758358 288.98817876 166.38758358 289.99632072 166.78299713 C292.49746297 167.93249461 294.12051386 168.97314416 296 171 C297.23595942 175.4980446 297.06844988 179.93979759 297 184.57958984 C297.00762034 185.99448225 297.01875047 187.40935939 297.03308773 188.82419968 C297.06233157 192.71377598 297.04172151 196.60174463 297.01306796 200.49126673 C296.99086008 204.68826172 297.0147758 208.88502241 297.03309631 213.08200073 C297.05853661 220.35923191 297.05468772 227.63597723 297.03103638 234.91320801 C296.99685894 245.44333878 297.00677767 255.97306482 297.02743971 266.50321388 C297.05985529 283.63925203 297.05639052 300.77509056 297.03076172 317.91113281 C297.00572741 334.70739537 296.99783405 351.50352771 297.01220703 368.29980469 C297.01353484 369.8623152 297.01353484 369.8623152 297.01488948 371.45639157 C297.01943758 376.68865183 297.0243121 381.92091173 297.02934647 387.15317154 C297.07087093 430.76884092 297.05408535 474.38435164 297 518 C296.42707529 518.31432102 295.85415058 518.62864204 295.26386452 518.95248795 C292.63992312 520.39250776 290.01649135 521.83345361 287.39306641 523.27441406 C286.49185562 523.76881989 285.59064484 524.26322571 284.66212463 524.77261353 C278.17438343 528.3373065 271.7495947 531.98628276 265.375 535.75 C263.33887061 536.94457127 261.30239995 538.138561 259.265625 539.33203125 C258.23759766 539.9348291 257.20957031 540.53762695 256.15039062 541.15869141 C250.82118683 544.27345078 245.47337925 547.35581864 240.125 550.4375 C239.04524902 551.05979492 237.96549805 551.68208984 236.85302734 552.32324219 C234.66285466 553.58528726 232.47258757 554.84716852 230.28222656 556.10888672 C224.85340058 559.23680148 219.42680719 562.36858448 214 565.5 C211.83334417 566.75001879 209.6666775 568.00001878 207.5 569.25 C205.89125 570.178125 205.89125 570.178125 204.25 571.125 C157.66666667 598 111.08333333 624.875 64.5 651.75 C63.42709717 652.3689917 62.35419434 652.9879834 61.2487793 653.62573242 C59.08621417 654.8733474 56.92361661 656.12090616 54.76098633 657.3684082 C48.16981115 661.1706083 41.5795277 664.97434274 34.99121094 668.78149414 C32.80987054 670.03997216 30.62695553 671.29572529 28.44238281 672.54858398 C23.23094462 675.53922981 18.04729698 678.56288307 12.91015625 681.6796875 C11.47506714 682.53687378 11.47506714 682.53687378 10.01098633 683.41137695 C8.22087169 684.48190001 6.44001403 685.56811831 4.6706543 686.67260742 C3.87699463 687.14287354 3.08333496 687.61313965 2.265625 688.09765625 C1.58274414 688.51539307 0.89986328 688.93312988 0.19628906 689.36352539 C-3.84154117 690.53367028 -7.08081784 688.47285989 -10.65527344 686.6340332 C-11.54762695 686.11156006 -12.43998047 685.58908691 -13.359375 685.05078125 C-14.37902344 684.4578125 -15.39867187 683.86484375 -16.44921875 683.25390625 C-17.53847656 682.61324219 -18.62773437 681.97257813 -19.75 681.3125 C-20.90720972 680.63743361 -22.06476857 679.96296538 -23.22265625 679.2890625 C-25.62570582 677.88984195 -28.0272392 676.48807065 -30.42773438 675.08447266 C-35.93786812 671.86550635 -41.47007617 668.68480155 -47 665.5 C-49.16676979 664.25017876 -51.33343615 663.0001782 -53.5 661.75 C-55.10875 660.821875 -55.10875 660.821875 -56.75 659.875 C-248.5 549.25 -248.5 549.25 -251.75415039 547.37255859 C-253.90692816 546.13060256 -256.05975963 544.8887396 -258.21264648 543.64697266 C-263.24616915 540.74353087 -268.27918048 537.839215 -273.31021118 534.93145752 C-275.08362608 533.90654597 -276.85721646 532.88193877 -278.63085938 531.85742188 C-280.84995773 530.57547262 -283.06873016 529.29295893 -285.28710938 528.00976562 C-286.29708984 527.42646484 -287.30707031 526.84316406 -288.34765625 526.2421875 C-289.22429932 525.7354248 -290.10094238 525.22866211 -291.00415039 524.70654297 C-293.55673344 523.25250047 -296.11863976 521.81877135 -298.6872406 520.39334106 C-299.49552024 519.94467745 -300.30379988 519.49601383 -301.13657284 519.03375435 C-302.05896928 518.52204595 -302.05896928 518.52204595 -303 518 C-303.01227504 508.18203312 -303.02292594 498.36406508 -303.03264093 488.54609537 C-303.03431948 486.86004079 -303.03602693 485.17398625 -303.03776312 483.48793173 C-303.060049 461.78463625 -303.06577476 440.08146587 -303.03735352 418.37817383 C-303.03488068 416.387222 -303.03243015 414.39627014 -303.03000164 412.40531826 C-303.0287897 411.4134732 -303.02757776 410.42162814 -303.0263291 409.39972717 C-303.02387844 407.38474364 -303.02143719 405.36976011 -303.01900524 403.35477656 C-303.0128196 398.23973106 -303.00637493 393.12468618 -302.99942589 388.00964165 C-302.96674494 362.9064908 -303.01299401 337.80578153 -303.18642902 312.70317936 C-303.29673917 296.62966299 -303.35841862 280.55642364 -303.38443279 264.48255062 C-303.40379137 253.94172067 -303.46931445 243.40311947 -303.59217858 232.86298156 C-303.67231319 225.63861947 -303.69776831 218.41535634 -303.68046069 211.19057584 C-303.67223225 207.02318824 -303.68859433 202.85969674 -303.77112961 198.69303513 C-304.23130178 174.34516679 -304.23130178 174.34516679 -300.54752922 168.82245636 C-297.11758763 165.56048461 -293.38189056 163.91769518 -288.88217545 162.61139488 C-285.91412129 161.6472695 -283.39814941 160.00909043 -280.76171875 158.3671875 C-278.73774693 157.20179059 -276.71298949 156.03775716 -274.6875 154.875 C-272.42055224 153.57034843 -270.15362576 152.26565987 -267.88671875 150.9609375 C-266.74509277 150.30448242 -265.6034668 149.64802734 -264.42724609 148.97167969 C-258.94844203 145.81974768 -253.47438887 142.65959203 -248 139.5 C-245.83335774 138.2499577 -243.66669103 136.99995776 -241.5 135.75 C-240.4275 135.13125 -239.355 134.5125 -238.25 133.875 C-72.5 38.25 -72.5 38.25 -69.24902344 36.37451172 C-67.08552524 35.12628966 -64.92211357 33.87791761 -62.75878906 32.62939453 C-57.29434983 29.47594744 -51.82836355 26.32523904 -46.359375 23.1796875 C-45.26455811 22.54933594 -44.16974121 21.91898438 -43.04174805 21.26953125 C-40.86706042 20.01791247 -38.69145781 18.767882 -36.51489258 17.51953125 C-31.18627429 14.45438604 -25.89450653 11.34389098 -20.65234375 8.1328125 C-19.14365723 7.21556396 -19.14365723 7.21556396 -17.60449219 6.27978516 C-15.70811583 5.12272258 -13.81895231 3.95372516 -11.93847656 2.77099609 C-11.09639648 2.25875488 -10.25431641 1.74651367 -9.38671875 1.21875 C-8.65670654 0.76435547 -7.92669434 0.30996094 -7.17456055 -0.15820312 C-4.30162176 -1.27035008 -2.91957145 -0.93914354 0 0 Z M-11.796875 22.97265625 C-12.90691895 23.61726807 -14.01696289 24.26187988 -15.16064453 24.92602539 C-16.35719833 25.63801224 -17.5536474 26.35017512 -18.75 27.0625 C-20.0016936 27.79481807 -21.25414799 28.5258372 -22.50732422 29.25561523 C-25.08573596 30.75924691 -27.66011106 32.2694546 -30.23144531 33.78515625 C-34.78116666 36.4641623 -39.35724932 39.09676258 -43.93457031 41.72827148 C-47.14897483 43.57628351 -50.36009906 45.42987461 -53.5703125 47.28515625 C-60.04510022 51.02651656 -66.52236343 54.76357483 -73 58.5 C-75.1666775 59.74998122 -77.33334417 60.99998121 -79.5 62.25 C-222.5 144.75 -222.5 144.75 -225.75219727 146.6262207 C-227.91159395 147.8720577 -230.07093669 149.11798818 -232.23022461 150.36401367 C-237.75767597 153.55348953 -243.28615121 156.74116885 -248.81640625 159.92578125 C-250.51120117 160.90224609 -250.51120117 160.90224609 -252.24023438 161.8984375 C-254.35445854 163.11650904 -256.46900619 164.3340194 -258.58398438 165.55078125 C-260.54745596 166.68231694 -262.49399251 167.84384643 -264.42076206 169.03680611 C-266.97819002 170.54219993 -269.46225623 171.53362245 -272.27918148 172.45658684 C-277.39137151 174.3691866 -281.67412088 176.55495075 -285 181 C-288.08575337 190.05497202 -287.19152171 200.34450909 -286.97311556 209.80621386 C-286.89940756 213.81151304 -286.9245644 217.81637183 -286.93745422 221.82215881 C-286.94635103 228.75469995 -286.89321255 235.68451269 -286.79741096 242.61636734 C-286.65899689 252.63805355 -286.61495253 262.65842616 -286.59361511 272.68096457 C-286.55644638 288.94267936 -286.44342085 305.20294103 -286.2824707 321.46386719 C-286.12632572 337.25578562 -286.0060441 353.04730879 -285.93383789 368.83984375 C-285.92937159 369.81396407 -285.92490529 370.78808439 -285.92030365 371.7917235 C-285.89811733 376.67880598 -285.87663446 381.56589124 -285.85550129 386.45297837 C-285.67938606 426.96966289 -285.38007041 467.48474815 -285 508 C-284.21463867 508.44802979 -283.42927734 508.89605957 -282.62011719 509.35766602 C-279.64524653 511.05512564 -276.67067451 512.75310642 -273.69628906 514.45141602 C-272.42036264 515.17980803 -271.14432491 515.90800511 -269.86816406 516.63598633 C-261.55259401 521.37978988 -253.26028769 526.16030512 -245 531 C-236.36382258 536.05425836 -227.69403355 541.04620226 -219 546 C-209.32518781 551.51263835 -199.68717863 557.08424567 -190.078125 562.7109375 C-182.4142623 567.19166146 -174.71321165 571.60506752 -167 576 C-157.32518781 581.51263835 -147.68717863 587.08424567 -138.078125 592.7109375 C-130.4142623 597.19166146 -122.71321165 601.60506752 -115 606 C-105.32518781 611.51263835 -95.68717863 617.08424567 -86.078125 622.7109375 C-78.4142604 627.19166257 -70.71314738 631.60495237 -63 636 C-54.12003621 641.06038251 -45.26250837 646.15661965 -36.4375 651.3125 C-35.46312988 651.87984863 -34.48875977 652.44719727 -33.48486328 653.03173828 C-28.80211202 655.76156132 -24.13593 658.51419483 -19.49609375 661.31640625 C-18.62992432 661.83356201 -17.76375488 662.35071777 -16.87133789 662.88354492 C-15.26115531 663.84556012 -13.6569453 664.81767796 -12.06030273 665.80200195 C-11.34688721 666.22570068 -10.63347168 666.64939941 -9.8984375 667.0859375 C-8.98070557 667.6435376 -8.98070557 667.6435376 -8.04443359 668.21240234 C-4.21420589 669.68795937 -1.08722151 669.46633766 2.65527344 667.86108398 C3.54762695 667.32813721 4.43998047 666.79519043 5.359375 666.24609375 C6.37902344 665.64667969 7.39867187 665.04726563 8.44921875 664.4296875 C9.53847656 663.77226563 10.62773437 663.11484375 11.75 662.4375 C12.90673576 661.75252583 14.06430424 661.06895615 15.22265625 660.38671875 C17.62761083 658.96879658 20.02887559 657.54490821 22.42773438 656.11669922 C27.91885412 652.85423411 33.46195091 649.68189007 39 646.5 C41.16691089 645.25042342 43.33357685 644.000422 45.5 642.75 C214.49999999 545.25000001 214.49999999 545.25000001 217.75170898 543.37402344 C219.91268988 542.12729744 222.07365998 540.88055273 224.23461914 539.63378906 C229.73818851 536.45854117 235.24196032 533.28364505 240.74609375 530.109375 C241.86693359 529.46291016 242.98777344 528.81644531 244.14257812 528.15039062 C246.23104731 526.94583786 248.31958107 525.74139704 250.40820312 524.53710938 C252.43360899 523.36886275 254.43708086 522.16196842 256.41992188 520.92285156 C259.18073695 519.29819015 261.89374244 518.37330795 264.95507812 517.44433594 C270.754272 515.40057313 275.49241567 513.23020928 279 508 C282.25449394 496.56979856 281.17533375 484.17147152 280.71264648 472.42474365 C280.59637609 468.87647249 280.5760313 465.33062396 280.55935097 461.78069687 C280.53780563 458.32397665 280.47748161 454.86882332 280.40397263 451.41284943 C280.36958869 449.77863279 280.34166138 448.14426486 280.32085037 446.50981903 C280.11899184 434.76186943 277.61470144 426.28589297 272 416 C271.18582265 414.30784932 270.38057686 412.61129022 269.59375 410.90625 C268.89612834 409.43735985 268.19821494 407.96860823 267.5 406.5 C258.97641792 388.52839661 250.55436553 370.50162994 242.46875 352.328125 C242.07220215 351.43826904 241.6756543 350.54841309 241.26708984 349.6315918 C240.53450751 347.98367304 239.80535584 346.3342224 239.08056641 344.68286133 C236.67823412 339.27848451 233.94747054 334.12659634 231 329 C229.865625 329.03480469 228.73125 329.06960938 227.5625 329.10546875 C219.60386137 329.27399425 213.37549968 329.26224024 206 326 C202.08284832 326.34045368 200.08763786 327.40708163 197.30078125 330.125 C196.32334961 331.06085938 196.32334961 331.06085938 195.32617188 332.015625 C194.66166016 332.67046875 193.99714844 333.3253125 193.3125 334 C191.97701096 335.29347652 190.63985029 336.58523002 189.30078125 337.875 C188.71466064 338.44992187 188.12854004 339.02484375 187.5246582 339.6171875 C186 341 186 341 184 342 C184 342.66 184 343.32 184 344 C183.38125 344.2475 182.7625 344.495 182.125 344.75 C179.86253506 345.82143729 179.86253506 345.82143729 179 348 C178 350 178 350 176.234375 350.86328125 C173.46845531 352.27041871 171.5268512 354.08105008 169.25 356.1875 C165.3743113 359.75267358 161.43851248 363.21246881 157.3984375 366.58984375 C155.76528324 367.90568483 155.76528324 367.90568483 156 370 C155.40703125 370.26425781 154.8140625 370.52851563 154.203125 370.80078125 C151.91970946 372.04370425 150.52573277 373.30401646 148.75 375.1875 C144.25688862 379.81444874 139.38699151 383.95506958 134.4921875 388.1484375 C133.66976563 388.86257813 132.84734375 389.57671875 132 390.3125 C131.236875 390.96863281 130.47375 391.62476563 129.6875 392.30078125 C127.76511472 393.8373854 127.76511472 393.8373854 128 396 C127.34 396 126.68 396 126 396 C126 396.66 126 397.32 126 398 C125.47535156 398.20625 124.95070313 398.4125 124.41015625 398.625 C120.95616007 400.59551322 118.30406938 403.2656346 115.4375 406 C114.29214118 407.08521148 113.14506568 408.16861465 111.99609375 409.25 C111.49263428 409.72953125 110.9891748 410.2090625 110.47045898 410.703125 C109 412 109 412 106 414 C106 414.66 106 415.32 106 416 C105.45601563 416.21527344 104.91203125 416.43054688 104.3515625 416.65234375 C101.19070887 418.46379641 98.87236204 420.95496023 96.375 423.5625 C91.23986486 428.88006757 91.23986486 428.88006757 89 430 C89 431.32 89 432.64 89 434 C89.66 434 90.32 434 91 434 C92.84226469 443.87034495 93.7901259 454.30556175 88 463 C86.42405828 464.81255619 84.77502472 466.372894 83 468 C83 468.66 83 469.32 83 470 C81.3369416 470.67561748 79.66905395 471.33933281 78 472 C76.824375 472.53625 75.64875 473.0725 74.4375 473.625 C67.33076158 476.25812047 58.8631398 476.14107071 51.8828125 473.1328125 C48.80235509 471.27942526 46.24721181 468.91116196 43.6640625 466.42578125 C42.1120953 464.78311848 42.1120953 464.78311848 40 465 C39.87625 464.278125 39.7525 463.55625 39.625 462.8125 C39.1174234 460.04676375 39.1174234 460.04676375 37.98828125 457.83984375 C35.64834139 451.11598496 35.77343763 441.91131264 37.91015625 435.09765625 C40.986339 429.31126747 45.74882203 423.40429922 52 421 C48.79391714 415.84238844 44.99820096 411.25415764 41.12109375 406.5859375 C39.35175431 404.42884227 37.65147769 402.24769808 36 400 C37.29601873 397.29271944 38.71842691 394.82266972 40.42578125 392.35546875 C40.89306641 391.67806641 41.36035156 391.00066406 41.84179688 390.30273438 C42.32712891 389.60470703 42.81246094 388.90667969 43.3125 388.1875 C43.78623047 387.50107422 44.25996094 386.81464844 44.74804688 386.10742188 C47.07510258 382.7425821 49.43300823 379.41011596 51.85546875 376.11328125 C54.18909136 373.35555941 54.18909136 373.35555941 54 371 C54.94875 371.9075 55.8975 372.815 56.875 373.75 C63.64208231 379.48435489 70.72191 381.64478864 79.54296875 381.25 C86.86524056 380.50496757 94.63761248 376.61203114 99.68359375 371.19140625 C101.19309034 369.16721437 101.19309034 369.16721437 103 366 C103.4125 365.319375 103.825 364.63875 104.25 363.9375 C107.15422152 356.43492775 106.89051224 347.66682717 104.1015625 340.19921875 C100.05146985 332.11339549 93.16454368 327.41012038 85.1875 323.6875 C76.43439876 321.7995762 68.89460429 322.74465068 61 327 C60.071875 327.763125 59.14375 328.52625 58.1875 329.3125 C56 331 56 331 53.83984375 330.89453125 C49.92588833 329.66166221 46.79936984 327.60244742 43.375 325.375 C42.66786865 324.92423096 41.9607373 324.47346191 41.23217773 324.0090332 C39.14993813 322.68005979 37.07417806 321.34151075 35 320 C29.21176537 316.27644931 23.4465218 312.64452418 17.40234375 309.3515625 C13.47583044 307.14249973 9.67169998 304.73786237 5.84375 302.36328125 C1.32065437 299.56882616 -3.24799786 296.85107615 -7.8125 294.125 C-14.55861317 290.09171641 -21.25390378 285.99058237 -27.90356445 281.80053711 C-34.21247423 277.83831631 -40.60092227 274.01171586 -47 270.19726562 C-52.03870644 267.19121917 -57.03840794 264.13179113 -62 261 C-61.17382812 257.17236328 -61.17382812 257.17236328 -59.609375 255.62109375 C-48.66756744 248.65603558 -34.22529155 247.01295037 -21.625 249.75 C-18.11112506 250.96168101 -15.0584153 252.42245552 -11.859375 254.29296875 C-9.39958239 255.22831006 -8.42872981 254.99898698 -6 254 C-3.59982496 252.33419008 -3.59982496 252.33419008 -1.125 250.1875 C-0.16078125 249.37925781 0.8034375 248.57101562 1.796875 247.73828125 C5.85543053 244.27888201 9.89600738 240.79828845 13.93359375 237.31445312 C17.85360785 233.94393328 21.85546405 230.72189603 25.97265625 227.59375 C28.82456498 225.35178707 31.50175573 222.93025733 34.17578125 220.48046875 C36 219 36 219 37.91796875 218.11328125 C40.8193909 216.56186415 42.72490646 214.36471844 45 212 C50.69100914 206.63665503 56.47848439 201.49641879 62.703125 196.76171875 C70.2695597 190.95821186 77.52707112 184.75238374 84.76074219 178.54199219 C88.78396296 175.10801852 88.78396296 175.10801852 91 174 C91 173.34 91 172.68 91 172 C91.56203125 171.74476563 92.1240625 171.48953125 92.703125 171.2265625 C95.29386482 169.84307219 97.45107845 168.20061417 99.75 166.375 C100.54921875 165.74335938 101.3484375 165.11171875 102.171875 164.4609375 C103.07679688 163.73777344 103.07679688 163.73777344 104 163 C102.55606965 159.10424732 100.70080402 155.65663229 98.625 152.0625 C89.53417595 134.96264099 87.59129931 114.0088489 92.8125 95.1875 C94.15334623 90.88754484 95.91774052 86.99149454 98 83 C102.95627111 83.55577234 106.9297134 85.17116165 111.3125 87.4375 C112.01125244 87.79312012 112.71000488 88.14874023 113.42993164 88.51513672 C119.08333162 91.43428264 124.56610285 94.60760453 130.02441406 97.8737793 C137.34451002 102.24573031 144.79324143 106.37695247 152.24511719 110.51904297 C160.98307475 115.39218572 169.62325418 120.42143282 178.20922852 125.55761719 C182.71360871 128.22291254 186.89056365 130.66038307 192 132 C189.50615208 129.20436225 186.74784919 127.56746596 183.49609375 125.734375 C182.3762207 125.09935059 181.25634766 124.46432617 180.10253906 123.81005859 C179.50606567 123.47480164 178.90959229 123.13954468 178.29504395 122.79412842 C176.40871093 121.73381762 174.52570916 120.66780633 172.64355469 119.60009766 C170.69286855 118.49354106 168.74201842 117.38728903 166.79019165 116.28274536 C160.42430861 112.67986501 154.08408493 109.0335258 147.75 105.375 C146.14572144 104.44917114 146.14572144 104.44917114 144.5090332 103.50463867 C136.38282255 98.81030256 128.2796094 94.07718621 120.17871094 89.33935547 C111.88649945 84.49838683 103.55194662 79.73339232 95.20953369 74.97976685 C86.13221364 69.80621213 77.09428467 64.56857846 68.078125 59.2890625 C59.82805577 54.46560933 51.533381 49.72254576 43.23013306 44.99157715 C32.76294908 39.02607447 22.34604801 32.97800146 11.94921875 26.890625 C10.664104 26.14522461 10.664104 26.14522461 9.35302734 25.38476562 C7.88616407 24.52151096 6.43080841 23.63800135 4.99462891 22.72460938 C-1.29803519 18.79878452 -5.532204 19.28344961 -11.796875 22.97265625 Z " fill="#48284A" transform="translate(386,50)"/>
<path d="M0 0 C4.6246046 3.32393456 8.1214394 6.47482175 10 12 C10.59659271 19.51706812 9.61256966 25.37029639 4.6875 31.3125 C1.39522719 35.07826823 -1.63458938 36.69592629 -6.61328125 37.3359375 C-12.74315146 37.42464763 -18.08275443 36.99295129 -23 33 C-23.69585648 31.68166545 -24.36604389 30.34919304 -25 29 C-29.66095903 31.44994204 -34.31987696 33.90370997 -38.97705078 36.36083984 C-40.55724247 37.19389142 -42.13795963 38.02594712 -43.71923828 38.85693359 C-51.43896098 42.91454875 -59.11004466 46.97208328 -66.54443359 51.53808594 C-71.20418829 54.31225686 -76.0163443 56.81145919 -80.80761719 59.34936523 C-83.90920715 60.99307458 -87.00555306 62.64659037 -90.1015625 64.30078125 C-90.70558899 64.62345978 -91.30961548 64.94613831 -91.9319458 65.27859497 C-103.10410396 71.2570568 -114.08272722 77.56956092 -125 84 C-124.47731534 86.76276177 -123.89130413 89.3260876 -123 92 C-122.91978001 93.40824893 -122.89234023 94.81997231 -122.90234375 96.23046875 C-122.90556641 97.03291016 -122.90878906 97.83535156 -122.91210938 98.66210938 C-122.92048828 99.49548828 -122.92886719 100.32886719 -122.9375 101.1875 C-122.94426758 102.4549707 -122.94426758 102.4549707 -122.95117188 103.74804688 C-122.96294597 105.83206155 -122.9808811 107.91603977 -123 110 C-121.845 110.61875 -120.69 111.2375 -119.5 111.875 C-114.38451847 114.71604746 -109.44632068 117.81043435 -104.49560547 120.92553711 C-97.13044041 125.55775365 -89.70377329 130.0866091 -82.2734375 134.61328125 C-80.03466092 135.97885803 -77.79818081 137.34811176 -75.5625 138.71875 C-67.69147354 143.54231205 -59.79886523 148.32617933 -51.875 153.0625 C-45.22914214 157.03591244 -38.6356697 161.07988845 -32.08422852 165.20678711 C-25.86011384 169.11509731 -19.56213159 172.89717498 -13.24389648 176.65112305 C-9.46137421 178.90208994 -5.70146489 181.1675046 -2.015625 183.57421875 C-1.42418701 183.95626465 -0.83274902 184.33831055 -0.22338867 184.73193359 C1.31552948 185.73314655 2.84380757 186.75066257 4.37109375 187.76953125 C7.48846686 189.22862862 8.79464262 189.1393192 12 188 C12.763125 187.38125 13.52625 186.7625 14.3125 186.125 C19.97282777 181.649392 25.90245574 180.35528285 33.06640625 180.59375 C42.63117255 181.9182982 50.09004074 186.45663492 56 194 C60.47086288 201.35529055 60.9487599 209.16994961 59.3125 217.5 C55.94409019 226.48242616 52.38832209 231.20891716 44 236 C42.515 236.99 42.515 236.99 41 238 C31.89091967 240.33373132 23.23105628 239.60381114 15 235 C12.46069237 233.13420049 10.28517187 231.18581657 8 229 C7.76023437 229.69609375 7.52046875 230.3921875 7.2734375 231.109375 C5.78574606 234.4863433 3.80439859 237.29987988 1.625 240.25 C0.71816487 241.49827305 -0.18805871 242.74699054 -1.09375 243.99609375 C-1.56941406 244.6494873 -2.04507812 245.30288086 -2.53515625 245.97607422 C-5.01293475 249.39953818 -7.44256765 252.85674384 -9.875 256.3125 C-10.8905709 257.75264232 -11.90619638 259.19274615 -12.921875 260.6328125 C-13.94796653 262.08850652 -14.97400807 263.54423578 -16 265 C-18.04116957 267.8961842 -20.08279223 270.79204778 -22.125 273.6875 C-22.62572021 274.39769287 -23.12644043 275.10788574 -23.64233398 275.83959961 C-26.32391104 279.63919409 -29.02056789 283.42713348 -31.7355957 287.20288086 C-36.80944587 294.26174736 -41.73668929 301.41489785 -46.62280273 308.60498047 C-47.41086304 309.76344482 -47.41086304 309.76344482 -48.21484375 310.9453125 C-48.68011475 311.63125488 -49.14538574 312.31719727 -49.62475586 313.02392578 C-50.60036845 314.42577351 -51.6259666 315.79341743 -52.68383789 317.13427734 C-54.21484282 318.88121307 -54.21484282 318.88121307 -53.84375 320.90625 C-52.80673513 323.4795832 -51.68547017 325.9912143 -50.5 328.5 C-46.02631148 337.96757338 -45.46367394 348.48955997 -47.87109375 358.69140625 C-51.56814824 368.9583084 -57.96797985 377.74276542 -67 384 C-69.23828125 384.6875 -69.23828125 384.6875 -71 385 C-71 385.66 -71 386.32 -71 387 C-83.43347413 391.29136857 -95.87524795 393.62118485 -108.4453125 388.25 C-109.28835938 387.8375 -110.13140625 387.425 -111 387 C-111.86367188 386.5875 -112.72734375 386.175 -113.6171875 385.75 C-124.76189653 379.78808879 -131.15530132 369.43615281 -134.75 357.625 C-136.93115261 349.03078454 -136.03812042 340.71279635 -135 332 C-145.1109042 324.6930986 -155.36420032 317.61114288 -165.67333984 310.58740234 C-169.18414173 308.19209973 -172.68634555 305.78437331 -176.1875 303.375 C-177.15985596 302.70609741 -177.15985596 302.70609741 -178.15185547 302.02368164 C-179.45073185 301.13011572 -180.74956025 300.23648003 -182.04833984 299.34277344 C-185.36491764 297.06091481 -188.6825171 294.78054245 -192 292.5 C-193.33333808 291.58334024 -194.66667142 290.66667358 -196 289.75 C-196.99 289.069375 -196.99 289.069375 -198 288.375 C-203.99999999 284.25 -203.99999999 284.25 -205.99926758 282.87548828 C-207.33502333 281.95716639 -208.67079812 281.0388722 -210.0065918 280.12060547 C-213.95527064 277.4060991 -217.90332823 274.69069361 -221.85058594 271.97412109 C-223.15405302 271.07778472 -224.45808609 270.18227083 -225.76269531 269.28759766 C-229.54881852 266.69078878 -233.32392195 264.07916467 -237.08984375 261.453125 C-238.80986206 260.26036796 -240.52991361 259.06765885 -242.25 257.875 C-243.06057861 257.30604004 -243.87115723 256.73708008 -244.70629883 256.15087891 C-245.46837646 255.62413574 -246.2304541 255.09739258 -247.015625 254.5546875 C-247.68883789 254.08530762 -248.36205078 253.61592773 -249.05566406 253.13232422 C-251.10220694 251.94047768 -252.64069202 251.24687278 -255 251 C-257.00061226 252.75626267 -258.68049364 254.46061402 -260.4375 256.4375 C-266.33382028 262.72254816 -272.48917118 266.81611549 -280 271 C-280.80695313 271.52207031 -281.61390625 272.04414063 -282.4453125 272.58203125 C-285.53121027 274.29484607 -288.53731825 275.18727344 -291.9375 276.125 C-293.71447266 276.62386719 -293.71447266 276.62386719 -295.52734375 277.1328125 C-302.33207354 278.83208136 -308.64303821 279.15393078 -315.625 279.125 C-317.03652344 279.13080078 -317.03652344 279.13080078 -318.4765625 279.13671875 C-319.3840625 279.13542969 -320.2915625 279.13414062 -321.2265625 279.1328125 C-322.45753662 279.13112061 -322.45753662 279.13112061 -323.71337891 279.12939453 C-326 279 -326 279 -330 278 C-330 229.16 -330 180.32 -330 130 C-308.40526671 127.30065834 -287.25728082 129.87693607 -269.26806641 143.29150391 C-263.13983522 148.30222348 -257.75725173 154.11624744 -252.62109375 160.125 C-251.14488588 161.83242115 -249.60401245 163.41418633 -248 165 C-242.05968226 161.09710703 -236.24163522 157.0638132 -230.5 152.875 C-223.74381956 147.97020499 -216.95202062 143.12086935 -210.12402344 138.31665039 C-205.65132912 135.16875436 -201.19526703 131.9989799 -196.75 128.8125 C-194.50190193 127.20565315 -192.25168617 125.6018145 -190 124 C-189.39542969 123.56961426 -188.79085937 123.13922852 -188.16796875 122.69580078 C-186.36577437 121.41671703 -184.55874256 120.14480184 -182.75 118.875 C-181.69296875 118.12992187 -180.6359375 117.38484375 -179.546875 116.6171875 C-177 115 -177 115 -175 115 C-175.433125 114.01773438 -175.433125 114.01773438 -175.875 113.015625 C-179.30695334 104.5787397 -180.88983518 97.1014626 -177.6484375 88.3515625 C-176.1934512 85.17265878 -174.66543574 82.07312546 -173 79 C-173.54398438 78.74863281 -174.08796875 78.49726563 -174.6484375 78.23828125 C-185.61928517 72.46127342 -195.6318675 63.97072968 -205.65185547 56.70263672 C-209.51479569 53.9016235 -213.38213894 51.10671256 -217.25 48.3125 C-218.00240967 47.76883789 -218.75481934 47.22517578 -219.5300293 46.66503906 C-224.56561973 43.02898752 -229.61472853 39.41247527 -234.67285156 35.80786133 C-240.22978984 31.84419896 -245.76266277 27.84736304 -251.28857422 23.84057617 C-254.92624742 21.2057909 -258.57355784 18.58888197 -262.2578125 16.01953125 C-262.91265625 15.560625 -263.5675 15.10171875 -264.2421875 14.62890625 C-265.47004862 13.77042244 -266.70166892 12.91728294 -267.9375 12.0703125 C-269.32744511 11.09602083 -270.66976221 10.05435246 -272 9 C-272 8.34 -272 7.68 -272 7 C-270.02 6.01 -268.04 5.02 -266 4 C-258.02239117 9.648095 -250.10910794 15.37546236 -242.25 21.1875 C-236.7529498 25.24990563 -231.24962869 29.28917005 -225.62890625 33.1796875 C-215.9103621 39.90902119 -206.27428826 46.75183162 -196.75976562 53.76660156 C-190.86580911 58.11034103 -184.92988239 62.39498305 -178.98852539 66.67358398 C-178.26656982 67.19380127 -177.54461426 67.71401855 -176.80078125 68.25 C-176.16309814 68.70890625 -175.52541504 69.1678125 -174.8684082 69.640625 C-173.53031154 70.61416769 -172.22582932 71.63457518 -170.94604492 72.68359375 C-168.98444084 74.29981485 -168.98444084 74.29981485 -166.0625 73.8125 C-163.06897253 73.10249789 -163.06897253 73.10249789 -160.64453125 71.96484375 C-152.72985592 69.07721479 -144.1882498 71.14750489 -136.75 74.4375 C-134 76 -134 76 -132.375 77.75 C-131.92125 78.1625 -131.4675 78.575 -131 79 C-128.18900981 78.53100964 -125.88447243 77.54801361 -123.3828125 76.21484375 C-122.34640625 75.66473633 -122.34640625 75.66473633 -121.2890625 75.10351562 C-120.57492187 74.71873047 -119.86078125 74.33394531 -119.125 73.9375 C-118.44953125 73.57978516 -117.7740625 73.22207031 -117.078125 72.85351562 C-112.49820706 70.40837628 -107.99239678 67.84942477 -103.49609375 65.25390625 C-94.71285213 60.19804665 -85.72512855 55.53508194 -76.73803711 50.85449219 C-68.27613701 46.44220898 -60.02730401 41.88734227 -51.94116211 36.8125 C-47.66509226 34.17735909 -43.2670768 31.81652563 -38.8125 29.5 C-37.56629883 28.83871094 -37.56629883 28.83871094 -36.29492188 28.1640625 C-30.25667217 25 -30.25667217 25 -28 25 C-28.33 24.34 -28.66 23.68 -29 23 C-29.74600404 16.0728196 -29.70993703 10.36290287 -25.49609375 4.62109375 C-19.20867409 -2.19164557 -8.31473115 -4.81379172 0 0 Z " fill="#FDFBFC" transform="translate(432,192)"/>
<path d="M0 0 C1.93527142 0.95454667 3.8329214 1.98709091 5.69921875 3.0703125 C7.36911865 4.03239624 7.36911865 4.03239624 9.07275391 5.01391602 C10.27773761 5.71749364 11.48265113 6.4211915 12.6875 7.125 C13.94411816 7.85213915 15.20112306 8.57861033 16.45849609 9.30444336 C19.04627864 10.7996765 21.63175689 12.2987785 24.21533203 13.80126953 C28.78153198 16.45609767 33.3593331 19.09067624 37.93676758 21.72607422 C42.22090654 24.19374351 46.50148784 26.66755173 50.78222656 29.14111328 C56.18670645 32.26324605 61.59347412 35.38141204 67 38.5 C69.1666775 39.74998122 71.33334417 40.99998121 73.5 42.25 C75.10875 43.178125 75.10875 43.178125 76.75 44.125 C132 76 187.25 107.875 242.5 139.75 C244.11092529 140.6793335 244.11092529 140.6793335 245.75439453 141.62744141 C247.9065213 142.86911527 250.05854073 144.11097522 252.21044922 145.35302734 C257.25030977 148.26166823 262.29117492 151.16851898 267.33599854 154.06854248 C269.11749578 155.09275665 270.89864322 156.11757651 272.6796875 157.14257812 C274.91076625 158.42633375 277.14249573 159.70895939 279.375 160.99023438 C280.38820313 161.57353516 281.40140625 162.15683594 282.4453125 162.7578125 C283.32719238 163.2645752 284.20907227 163.77133789 285.11767578 164.29345703 C286.06884277 164.85661621 287.02000977 165.41977539 288 166 C288.98817876 166.38758358 288.98817876 166.38758358 289.99632072 166.78299713 C292.49746297 167.93249461 294.12051386 168.97314416 296 171 C297.23595942 175.4980446 297.06844988 179.93979759 297 184.57958984 C297.00762034 185.99448225 297.01875047 187.40935939 297.03308773 188.82419968 C297.06233157 192.71377598 297.04172151 196.60174463 297.01306796 200.49126673 C296.99086008 204.68826172 297.0147758 208.88502241 297.03309631 213.08200073 C297.05853661 220.35923191 297.05468772 227.63597723 297.03103638 234.91320801 C296.99685894 245.44333878 297.00677767 255.97306482 297.02743971 266.50321388 C297.05985529 283.63925203 297.05639052 300.77509056 297.03076172 317.91113281 C297.00572741 334.70739537 296.99783405 351.50352771 297.01220703 368.29980469 C297.01353484 369.8623152 297.01353484 369.8623152 297.01488948 371.45639157 C297.01943758 376.68865183 297.0243121 381.92091173 297.02934647 387.15317154 C297.07087093 430.76884092 297.05408535 474.38435164 297 518 C296.42707529 518.31432102 295.85415058 518.62864204 295.26386452 518.95248795 C292.63992312 520.39250776 290.01649135 521.83345361 287.39306641 523.27441406 C286.49185562 523.76881989 285.59064484 524.26322571 284.66212463 524.77261353 C278.17438343 528.3373065 271.7495947 531.98628276 265.375 535.75 C263.33887061 536.94457127 261.30239995 538.138561 259.265625 539.33203125 C258.23759766 539.9348291 257.20957031 540.53762695 256.15039062 541.15869141 C250.82118683 544.27345078 245.47337925 547.35581864 240.125 550.4375 C239.04524902 551.05979492 237.96549805 551.68208984 236.85302734 552.32324219 C234.66285466 553.58528726 232.47258757 554.84716852 230.28222656 556.10888672 C224.85340058 559.23680148 219.42680719 562.36858448 214 565.5 C211.83334417 566.75001879 209.6666775 568.00001878 207.5 569.25 C205.89125 570.178125 205.89125 570.178125 204.25 571.125 C157.66666667 598 111.08333333 624.875 64.5 651.75 C63.42709717 652.3689917 62.35419434 652.9879834 61.2487793 653.62573242 C59.08621417 654.8733474 56.92361661 656.12090616 54.76098633 657.3684082 C48.16981115 661.1706083 41.5795277 664.97434274 34.99121094 668.78149414 C32.80987054 670.03997216 30.62695553 671.29572529 28.44238281 672.54858398 C23.23094462 675.53922981 18.04729698 678.56288307 12.91015625 681.6796875 C11.47506714 682.53687378 11.47506714 682.53687378 10.01098633 683.41137695 C8.22087169 684.48190001 6.44001403 685.56811831 4.6706543 686.67260742 C3.87699463 687.14287354 3.08333496 687.61313965 2.265625 688.09765625 C1.58274414 688.51539307 0.89986328 688.93312988 0.19628906 689.36352539 C-3.84154117 690.53367028 -7.08081784 688.47285989 -10.65527344 686.6340332 C-11.54762695 686.11156006 -12.43998047 685.58908691 -13.359375 685.05078125 C-14.37902344 684.4578125 -15.39867187 683.86484375 -16.44921875 683.25390625 C-17.53847656 682.61324219 -18.62773437 681.97257813 -19.75 681.3125 C-20.90720972 680.63743361 -22.06476857 679.96296538 -23.22265625 679.2890625 C-25.62570582 677.88984195 -28.0272392 676.48807065 -30.42773438 675.08447266 C-35.93786812 671.86550635 -41.47007617 668.68480155 -47 665.5 C-49.16676979 664.25017876 -51.33343615 663.0001782 -53.5 661.75 C-55.10875 660.821875 -55.10875 660.821875 -56.75 659.875 C-248.5 549.25 -248.5 549.25 -251.75415039 547.37255859 C-253.90692816 546.13060256 -256.05975963 544.8887396 -258.21264648 543.64697266 C-263.24616915 540.74353087 -268.27918048 537.839215 -273.31021118 534.93145752 C-275.08362608 533.90654597 -276.85721646 532.88193877 -278.63085938 531.85742188 C-280.84995773 530.57547262 -283.06873016 529.29295893 -285.28710938 528.00976562 C-286.29708984 527.42646484 -287.30707031 526.84316406 -288.34765625 526.2421875 C-289.22429932 525.7354248 -290.10094238 525.22866211 -291.00415039 524.70654297 C-293.55673344 523.25250047 -296.11863976 521.81877135 -298.6872406 520.39334106 C-299.49552024 519.94467745 -300.30379988 519.49601383 -301.13657284 519.03375435 C-302.05896928 518.52204595 -302.05896928 518.52204595 -303 518 C-303.01227504 508.18203312 -303.02292594 498.36406508 -303.03264093 488.54609537 C-303.03431948 486.86004079 -303.03602693 485.17398625 -303.03776312 483.48793173 C-303.060049 461.78463625 -303.06577476 440.08146587 -303.03735352 418.37817383 C-303.03488068 416.387222 -303.03243015 414.39627014 -303.03000164 412.40531826 C-303.0287897 411.4134732 -303.02757776 410.42162814 -303.0263291 409.39972717 C-303.02387844 407.38474364 -303.02143719 405.36976011 -303.01900524 403.35477656 C-303.0128196 398.23973106 -303.00637493 393.12468618 -302.99942589 388.00964165 C-302.96674494 362.9064908 -303.01299401 337.80578153 -303.18642902 312.70317936 C-303.29673917 296.62966299 -303.35841862 280.55642364 -303.38443279 264.48255062 C-303.40379137 253.94172067 -303.46931445 243.40311947 -303.59217858 232.86298156 C-303.67231319 225.63861947 -303.69776831 218.41535634 -303.68046069 211.19057584 C-303.67223225 207.02318824 -303.68859433 202.85969674 -303.77112961 198.69303513 C-304.23130178 174.34516679 -304.23130178 174.34516679 -300.54752922 168.82245636 C-297.11758763 165.56048461 -293.38189056 163.91769518 -288.88217545 162.61139488 C-285.91412129 161.6472695 -283.39814941 160.00909043 -280.76171875 158.3671875 C-278.73774693 157.20179059 -276.71298949 156.03775716 -274.6875 154.875 C-272.42055224 153.57034843 -270.15362576 152.26565987 -267.88671875 150.9609375 C-266.74509277 150.30448242 -265.6034668 149.64802734 -264.42724609 148.97167969 C-258.94844203 145.81974768 -253.47438887 142.65959203 -248 139.5 C-245.83335774 138.2499577 -243.66669103 136.99995776 -241.5 135.75 C-240.4275 135.13125 -239.355 134.5125 -238.25 133.875 C-72.5 38.25 -72.5 38.25 -69.24902344 36.37451172 C-67.08552524 35.12628966 -64.92211357 33.87791761 -62.75878906 32.62939453 C-57.29434983 29.47594744 -51.82836355 26.32523904 -46.359375 23.1796875 C-45.26455811 22.54933594 -44.16974121 21.91898438 -43.04174805 21.26953125 C-40.86706042 20.01791247 -38.69145781 18.767882 -36.51489258 17.51953125 C-31.18627429 14.45438604 -25.89450653 11.34389098 -20.65234375 8.1328125 C-19.14365723 7.21556396 -19.14365723 7.21556396 -17.60449219 6.27978516 C-15.70811583 5.12272258 -13.81895231 3.95372516 -11.93847656 2.77099609 C-11.09639648 2.25875488 -10.25431641 1.74651367 -9.38671875 1.21875 C-8.65670654 0.76435547 -7.92669434 0.30996094 -7.17456055 -0.15820312 C-4.30162176 -1.27035008 -2.91957145 -0.93914354 0 0 Z M-11.796875 22.97265625 C-12.90691895 23.61726807 -14.01696289 24.26187988 -15.16064453 24.92602539 C-16.35719833 25.63801224 -17.5536474 26.35017512 -18.75 27.0625 C-20.0016936 27.79481807 -21.25414799 28.5258372 -22.50732422 29.25561523 C-25.08573596 30.75924691 -27.66011106 32.2694546 -30.23144531 33.78515625 C-34.78116666 36.4641623 -39.35724932 39.09676258 -43.93457031 41.72827148 C-47.14897483 43.57628351 -50.36009906 45.42987461 -53.5703125 47.28515625 C-60.04510022 51.02651656 -66.52236343 54.76357483 -73 58.5 C-75.1666775 59.74998122 -77.33334417 60.99998121 -79.5 62.25 C-222.5 144.75 -222.5 144.75 -225.75219727 146.6262207 C-227.91159395 147.8720577 -230.07093669 149.11798818 -232.23022461 150.36401367 C-237.75767597 153.55348953 -243.28615121 156.74116885 -248.81640625 159.92578125 C-250.51120117 160.90224609 -250.51120117 160.90224609 -252.24023438 161.8984375 C-254.35445854 163.11650904 -256.46900619 164.3340194 -258.58398438 165.55078125 C-260.54745596 166.68231694 -262.49399251 167.84384643 -264.42076206 169.03680611 C-266.97819002 170.54219993 -269.46225623 171.53362245 -272.27918148 172.45658684 C-277.39137151 174.3691866 -281.67412088 176.55495075 -285 181 C-288.08575337 190.05497202 -287.19152171 200.34450909 -286.97311556 209.80621386 C-286.89940756 213.81151304 -286.9245644 217.81637183 -286.93745422 221.82215881 C-286.94635103 228.75469995 -286.89321255 235.68451269 -286.79741096 242.61636734 C-286.65899689 252.63805355 -286.61495253 262.65842616 -286.59361511 272.68096457 C-286.55644638 288.94267936 -286.44342085 305.20294103 -286.2824707 321.46386719 C-286.12632572 337.25578562 -286.0060441 353.04730879 -285.93383789 368.83984375 C-285.92937159 369.81396407 -285.92490529 370.78808439 -285.92030365 371.7917235 C-285.89811733 376.67880598 -285.87663446 381.56589124 -285.85550129 386.45297837 C-285.67938606 426.96966289 -285.38007041 467.48474815 -285 508 C-284.21463867 508.44802979 -283.42927734 508.89605957 -282.62011719 509.35766602 C-279.64524653 511.05512564 -276.67067451 512.75310642 -273.69628906 514.45141602 C-272.42036264 515.17980803 -271.14432491 515.90800511 -269.86816406 516.63598633 C-261.55259401 521.37978988 -253.26028769 526.16030512 -245 531 C-236.36382258 536.05425836 -227.69403355 541.04620226 -219 546 C-209.32518781 551.51263835 -199.68717863 557.08424567 -190.078125 562.7109375 C-182.4142623 567.19166146 -174.71321165 571.60506752 -167 576 C-157.32518781 581.51263835 -147.68717863 587.08424567 -138.078125 592.7109375 C-130.4142623 597.19166146 -122.71321165 601.60506752 -115 606 C-105.32518781 611.51263835 -95.68717863 617.08424567 -86.078125 622.7109375 C-78.4142604 627.19166257 -70.71314738 631.60495237 -63 636 C-54.12003621 641.06038251 -45.26250837 646.15661965 -36.4375 651.3125 C-35.46312988 651.87984863 -34.48875977 652.44719727 -33.48486328 653.03173828 C-28.80211202 655.76156132 -24.13593 658.51419483 -19.49609375 661.31640625 C-18.62992432 661.83356201 -17.76375488 662.35071777 -16.87133789 662.88354492 C-15.26115531 663.84556012 -13.6569453 664.81767796 -12.06030273 665.80200195 C-11.34688721 666.22570068 -10.63347168 666.64939941 -9.8984375 667.0859375 C-8.98070557 667.6435376 -8.98070557 667.6435376 -8.04443359 668.21240234 C-4.21420589 669.68795937 -1.08722151 669.46633766 2.65527344 667.86108398 C3.54762695 667.32813721 4.43998047 666.79519043 5.359375 666.24609375 C6.37902344 665.64667969 7.39867187 665.04726563 8.44921875 664.4296875 C9.53847656 663.77226563 10.62773437 663.11484375 11.75 662.4375 C12.90673576 661.75252583 14.06430424 661.06895615 15.22265625 660.38671875 C17.62761083 658.96879658 20.02887559 657.54490821 22.42773438 656.11669922 C27.91885412 652.85423411 33.46195091 649.68189007 39 646.5 C41.16691089 645.25042342 43.33357685 644.000422 45.5 642.75 C214.49999999 545.25000001 214.49999999 545.25000001 217.75170898 543.37402344 C219.91268988 542.12729744 222.07365998 540.88055273 224.23461914 539.63378906 C229.73818851 536.45854117 235.24196032 533.28364505 240.74609375 530.109375 C241.86693359 529.46291016 242.98777344 528.81644531 244.14257812 528.15039062 C246.23104731 526.94583786 248.31958107 525.74139704 250.40820312 524.53710938 C252.37592451 523.40213495 254.32693465 522.2376589 256.25950909 521.04382038 C259.00523683 519.43517322 261.72248747 518.3564355 264.72777271 517.31911755 C270.31659544 515.1527671 275.18669444 512.74684892 279 508 C282.3758343 498.97557324 281.45082875 488.58390418 281.20524681 479.07772052 C281.12279255 475.07312778 281.15098856 471.06907669 281.16539001 467.06387329 C281.17532923 460.133793 281.11598985 453.20712441 281.00887108 446.2779026 C280.85410836 436.26017447 280.80494102 426.24408729 280.78109924 416.22529336 C280.73956724 399.96949248 280.61327222 383.71550836 280.43334961 367.46069336 C280.25880886 351.67562927 280.1243897 335.89105952 280.04370117 320.10522461 C280.03870943 319.13136701 280.03371768 318.15750942 280.02857467 317.15414099 C280.00377802 312.26832977 279.9797678 307.38251506 279.95614851 302.49669802 C279.75934377 261.99653518 279.42484203 221.49837177 279 181 C278.28046143 180.58488159 277.56092285 180.16976318 276.81958008 179.74206543 C206.04638672 138.91137695 135.27319336 98.08068848 64.5 57.25 C63.42693604 56.63092773 62.35387207 56.01185547 61.24829102 55.37402344 C59.08731012 54.12729744 56.92634002 52.88055273 54.76538086 51.63378906 C49.26181149 48.45854117 43.75803968 45.28364505 38.25390625 42.109375 C37.14370117 41.4687915 36.03349609 40.82820801 34.88964844 40.16821289 C32.69464148 38.90271761 30.49869698 37.63884692 28.30175781 36.37670898 C23.29388127 33.4966048 18.30372156 30.59484218 13.35546875 27.61328125 C12.05403931 26.83645996 12.05403931 26.83645996 10.72631836 26.04394531 C9.13070164 25.08937544 7.54111641 24.12461347 5.95922852 23.14746094 C5.25596436 22.72883789 4.5527002 22.31021484 3.828125 21.87890625 C3.2290332 21.5135376 2.62994141 21.14816895 2.01269531 20.77172852 C-3.29451985 18.73678102 -7.11319158 20.21447854 -11.796875 22.97265625 Z " fill="#242022" transform="translate(386,50)"/>
<path d="M0 0 C2.1875 1.125 2.1875 1.125 2.98828125 2.97265625 C4.63043313 5.91997119 6.68655078 6.96424356 9.5625 8.6875 C14.97893493 11.96510011 14.97893493 11.96510011 17.296875 13.7421875 C19.20006911 15.13419311 20.84690585 15.90892776 23.0625 16.6875 C24.11630859 17.06068359 24.11630859 17.06068359 25.19140625 17.44140625 C25.85011719 17.66699219 26.50882813 17.89257812 27.1875 18.125 C28.5796875 18.62 28.5796875 18.62 30 19.125 C31.051875 19.455 32.10375 19.785 33.1875 20.125 C33.94289063 20.36581299 34.69828125 20.60662598 35.4765625 20.85473633 C42.50214291 22.94984627 49.06603458 23.64841162 56.375 23.8125 C57.42236328 23.84666016 58.46972656 23.88082031 59.54882812 23.91601562 C62.09494469 23.99739835 64.64076444 24.06689347 67.1875 24.125 C72.67852729 36.72373101 77.09186103 49.69823007 81.375 62.75 C82.51165921 66.20332481 83.74277423 69.57518096 85.125 72.9375 C87.05614886 77.65221889 88.6728314 82.44725873 90.24829102 87.29150391 C91.32010595 90.57375562 92.43306633 93.82787123 93.65234375 97.05859375 C93.88832275 97.68926758 94.12430176 98.31994141 94.36743164 98.96972656 C95.02606751 100.71590974 95.69629416 102.45770819 96.3671875 104.19921875 C97.20080444 107.1724525 97.5129199 108.3735703 96.1875 111.125 C94.4453125 112.8359375 94.4453125 112.8359375 92.3125 114.5 C86.73157249 119.18399273 84.97158761 124.26312456 83.1875 131.125 C74.42742471 131.37157813 65.81771178 130.70012395 57.10595703 129.89819336 C54.7963864 129.68601969 52.48618975 129.48212272 50.17578125 129.27929688 C48.6926651 129.14631467 47.20959051 129.01286792 45.7265625 128.87890625 C45.04316803 128.8184462 44.35977356 128.75798615 43.65567017 128.69569397 C40.1059189 128.36546714 36.67609299 127.84529558 33.1875 127.125 C31.85793455 127.0010967 30.52527507 126.90612218 29.19140625 126.84375 C28.46759766 126.80636719 27.74378906 126.76898438 26.99804688 126.73046875 C26.25619141 126.69566406 25.51433594 126.66085937 24.75 126.625 C16.9793194 126.25852249 16.9793194 126.25852249 13.19921875 125.62109375 C8.5501873 124.85529998 3.87558046 124.77367353 -0.828125 124.60742188 C-4.72044673 124.43080111 -8.39185292 124.05418231 -12.19506836 123.19335938 C-18.87585679 121.82260948 -25.60904476 121.26208269 -32.39453125 120.65234375 C-33.78078619 120.52361262 -35.16699048 120.39433508 -36.55314636 120.26454163 C-40.17239922 119.92676024 -43.79215853 119.59479511 -47.41210938 119.2645874 C-53.22196685 118.73401486 -59.03114854 118.19620732 -64.84003258 117.65509224 C-66.85885744 117.46814718 -68.87798407 117.2847784 -70.89717102 117.10179138 C-72.12582382 116.98819778 -73.35447662 116.87460419 -74.62036133 116.75756836 C-75.69828445 116.65923203 -76.77620758 116.56089569 -77.88679504 116.45957947 C-80.57609583 116.15203484 -83.16232681 115.66361331 -85.8125 115.125 C-89.45095422 114.90448762 -93.08826068 114.74648806 -96.73046875 114.6015625 C-97.74753906 114.44429688 -98.76460938 114.28703125 -99.8125 114.125 C-101.59478443 111.45157336 -102.20227029 109.98747098 -103 107 C-104.74531859 101.46406761 -108.062521 97.47086608 -111.8125 93.125 C-110.24566567 88.87358966 -107.03364188 86.51710503 -103.625 83.75 C-102.44768075 82.77762932 -101.27059555 81.80497519 -100.09375 80.83203125 C-99.52785156 80.36748535 -98.96195312 79.90293945 -98.37890625 79.42431641 C-96.42417705 77.80289047 -94.52417421 76.12341948 -92.625 74.4375 C-89.8125 72.125 -89.8125 72.125 -87.8125 72.125 C-87.8125 71.465 -87.8125 70.805 -87.8125 70.125 C-86.42166005 69.17786359 -85.0250735 68.23826629 -83.60351562 67.33789062 C-79.6698069 64.67395048 -76.21794528 61.34574684 -72.671875 58.1953125 C-68.02008929 54.125 -68.02008929 54.125 -65.8125 54.125 C-65.8125 53.465 -65.8125 52.805 -65.8125 52.125 C-63.92799324 50.53679934 -62.05063233 49.07217539 -60.0625 47.625 C-59.52367187 47.22152344 -58.98484375 46.81804687 -58.4296875 46.40234375 C-55.66447831 44.35878671 -52.95626045 42.52900952 -49.8125 41.125 C-49.8125 40.465 -49.8125 39.805 -49.8125 39.125 C-47.59974901 37.20807133 -45.38100904 35.40528372 -43.0625 33.625 C-42.42828125 33.12613281 -41.7940625 32.62726563 -41.140625 32.11328125 C-38.12166092 29.76729458 -35.28318158 27.76250822 -31.8125 26.125 C-31.8125 25.465 -31.8125 24.805 -31.8125 24.125 C-30.30078125 22.78515625 -30.30078125 22.78515625 -28.125 21.1875 C-24.03388709 18.09816039 -20.09136437 14.88193671 -16.1875 11.5625 C-15.62716064 11.08981689 -15.06682129 10.61713379 -14.48950195 10.13012695 C-12.14794841 8.14812098 -9.83910899 6.14996356 -7.6015625 4.05078125 C-3.44018503 0.15289711 -3.44018503 0.15289711 0 0 Z " fill="#7F4884" transform="translate(495.8125,217.875)"/>
<path d="M0 0 C2.59229942 1.24430372 5.07965579 2.61592763 7.5625 4.0625 C11.95639651 6.53905985 15.22073512 7.18865748 20.1875 7.5625 C21.81751953 7.68818359 21.81751953 7.68818359 23.48046875 7.81640625 C24.72763672 7.90728516 24.72763672 7.90728516 26 8 C28.87786181 19.16261551 30.63349744 30.48561339 32.48388672 41.85253906 C34.61562226 54.85269731 36.91634399 67.8062722 39.56811523 80.71044922 C40.88542487 87.20657466 41.9348584 93.72556821 42.92602539 100.27832031 C43.79979062 105.96878321 44.95135943 111.55869958 46.21386719 117.17651367 C47.05873887 121.28568616 47.70900474 125.39592198 48.33203125 129.54296875 C49.44089678 136.73830839 50.68682196 143.89801048 52.04296875 151.05078125 C52.21800934 151.97510956 52.39304993 152.89943787 52.57339478 153.85177612 C53.29359266 157.64183859 54.01790925 161.43108704 54.74682617 165.21948242 C55.28778608 168.03736799 55.82203149 170.85646344 56.35546875 173.67578125 C56.52104782 174.52578201 56.68662689 175.37578278 56.85722351 176.25154114 C57.66303676 180.53066972 58.41360722 184.62918901 58 189 C55.76953125 191.2734375 55.76953125 191.2734375 52.8125 193.375 C47.79511802 197.18329638 44.92391927 200.45463587 42 206 C38.18311466 204.61352824 35.01915474 202.84323689 31.6484375 200.5859375 C30.63136719 199.90660156 29.61429687 199.22726562 28.56640625 198.52734375 C26.98666016 197.46193359 26.98666016 197.46193359 25.375 196.375 C24.34503906 195.68792969 23.31507813 195.00085938 22.25390625 194.29296875 C16.31945067 190.31427086 10.50351592 186.20807816 4.74267578 181.98291016 C-0.01281753 178.54476553 -4.88506901 175.28050411 -9.75 172 C-11.9603278 170.50361088 -14.1701998 169.00658977 -16.37890625 167.5078125 C-16.9337117 167.13133575 -17.48851715 166.75485901 -18.06013489 166.36697388 C-23.63287296 162.57961489 -29.16313502 158.73242024 -34.6875 154.875 C-43.2419363 148.90247765 -51.83674887 142.9930819 -60.46948242 137.13427734 C-66.34948275 133.14071848 -72.18712748 129.09065485 -78 125 C-76.93112246 121.58926011 -75.72905577 118.28856418 -74.30859375 115.01171875 C-74.00373047 114.30466797 -73.69886719 113.59761719 -73.38476562 112.86914062 C-72.75690813 111.42312657 -72.12156202 109.98033943 -71.47851562 108.54101562 C-69.25829743 103.34165115 -68.31264797 98.63321345 -68 93 C-67.95593018 92.29431885 -67.91186035 91.5886377 -67.86645508 90.86157227 C-67.29747676 79.36927129 -67.87028332 67.23095255 -73.1328125 56.7421875 C-74 55 -74 55 -74 52 C-71.859375 50.23046875 -71.859375 50.23046875 -68.75 48.1875 C-67.55006831 47.38517981 -66.35089934 46.58171819 -65.15234375 45.77734375 C-64.48960449 45.33632324 -63.82686523 44.89530273 -63.14404297 44.44091797 C-59.16245716 41.76506743 -55.24042215 39.0037471 -51.3125 36.25 C-50.45906006 35.65292236 -49.60562012 35.05584473 -48.72631836 34.44067383 C-42.31031562 29.94314924 -35.94861745 25.37447449 -29.60571289 20.7746582 C-24.34415011 16.96173653 -19.05782143 13.18576218 -13.75 9.4375 C-12.7132312 8.70442627 -12.7132312 8.70442627 -11.65551758 7.95654297 C-7.80775251 5.24487494 -3.92887458 2.59281319 0 0 Z " fill="#804984" transform="translate(260,311)"/>
<path d="M0 0 C8.74014551 0.89387852 19.14002868 9.67012012 26.33447266 14.36572266 C32.24314612 18.20288091 38.28488054 21.80758129 44.33447266 25.41699219 C49.91071711 28.74442849 55.46512913 32.10421559 61 35.5 C67.31175192 39.36988767 73.64716019 43.1979494 80 47 C88.61061495 52.15459178 97.18256791 57.36963953 105.73828125 62.61474609 C108.10534439 64.06452116 110.47428572 65.51118415 112.84375 66.95703125 C113.64409668 67.44550537 114.44444336 67.93397949 115.26904297 68.43725586 C116.78354155 69.36149235 118.29817849 70.28550217 119.81298828 71.20922852 C124.56145352 74.10873872 129.28757426 77.04228495 134 80 C133.67 80.928125 133.34 81.85625 133 82.8125 C131.41864171 88.37529228 131.15481637 94.75834634 132.6171875 100.3671875 C133.74081603 104.93866247 133.39147135 107.27933684 131.109375 111.48046875 C128.78045337 114.99592415 126.25308011 118.35891337 123.70605469 121.71826172 C120.71733903 125.71547645 117.90570948 129.83624019 115.0625 133.9375 C108.25219684 143.66743197 101.39755586 153.36610741 94.54101562 163.06347656 C86.32564558 174.68455074 78.15341619 186.33537804 70 198 C66.39292102 197.21720721 64.40861627 195.92280685 61.5 193.625 C49.59320199 185.11015326 35.8374263 186.50116852 22 188 C20.4351857 183.63472786 19.42603749 179.38684408 18.6328125 174.8203125 C18.51331238 174.13907822 18.39381226 173.45784393 18.27069092 172.75596619 C17.88435375 170.54639118 17.50464064 168.33573446 17.125 166.125 C16.85728406 164.58774817 16.58921463 163.05055786 16.32080078 161.51342773 C15.13660167 154.71052747 13.97630712 147.9041451 12.859375 141.08984375 C12.60583252 139.54369385 12.60583252 139.54369385 12.34716797 137.96630859 C12.04987259 136.13795741 11.75664579 134.30893547 11.46923828 132.47900391 C10.52952928 126.65590725 9.34779438 120.90772069 8.1015625 115.14453125 C5.85634666 104.69564215 4.15583646 94.18072089 2.5 83.625 C0.37872614 70.15551708 -1.94216818 56.75121346 -4.54345703 43.36590576 C-5.65882236 37.58583808 -6.70563691 31.79325941 -7.75 26 C-7.97042969 24.80117188 -8.19085938 23.60234375 -8.41796875 22.3671875 C-8.62550781 21.21476562 -8.83304687 20.06234375 -9.046875 18.875 C-9.23088867 17.86179687 -9.41490234 16.84859375 -9.60449219 15.8046875 C-9.98465446 13.10882071 -10.27743526 10.71113955 -10 8 C-7.25 5.9375 -7.25 5.9375 -4 4 C-3.29875 3.236875 -2.5975 2.47375 -1.875 1.6875 C-1.25625 1.130625 -0.6375 0.57375 0 0 Z " fill="#7F4884" transform="translate(303,308)"/>
<path d="M0 0 C22.45882353 -0.27058824 22.45882353 -0.27058824 27 2 C29.14659318 2.23718022 31.29928607 2.41971213 33.453125 2.578125 C34.84849362 2.68524031 36.24383742 2.79267928 37.63916016 2.90039062 C38.76152069 2.9851062 38.76152069 2.9851062 39.90655518 3.0715332 C62.15891951 4.76617869 84.32323671 7.21445417 106.4967041 9.7175293 C108.82288596 9.98001454 111.149205 10.24123915 113.47558594 10.50195312 C117.15081528 10.91426484 120.82554911 11.33079981 124.5 11.75 C125.51271973 11.86537109 126.52543945 11.98074219 127.56884766 12.09960938 C128.48456543 12.20595703 129.4002832 12.31230469 130.34375 12.421875 C131.10880859 12.51049805 131.87386719 12.59912109 132.66210938 12.69042969 C134.40344933 12.92100812 136.13846219 13.2003864 137.8684082 13.50488281 C141.17365561 14.02745565 144.42221895 14.29135403 147.76171875 14.5 C149.68854492 14.62375 149.68854492 14.62375 151.65429688 14.75 C152.99868478 14.83354492 154.34308593 14.91687719 155.6875 15 C164.47133383 15.55249667 173.24033351 16.1390316 182 17 C186.42376951 27.52581032 186.42376951 27.52581032 187 33 C186.13890625 33.53109375 185.2778125 34.0621875 184.390625 34.609375 C180.71145323 37.06071506 177.78723356 40.06014164 174.75 43.25 C172.87061261 45.22106483 170.97438965 47.12019189 169 49 C168.34 49 167.68 49 167 49 C167 49.66 167 50.32 167 51 C165.70703125 52.3046875 165.70703125 52.3046875 163.8125 53.875 C159.94042713 57.16832888 156.17094533 60.55156274 152.4375 64 C151.58792725 64.78419312 151.58792725 64.78419312 150.72119141 65.58422852 C147.26623034 68.78780061 143.90458974 72.06149244 140.60546875 75.42578125 C138.16352735 77.82019095 135.55888537 80.01849876 132.96875 82.25 C131.06976929 83.93798286 129.27994012 85.68769734 127.5 87.5 C117.70224719 97.43258427 117.70224719 97.43258427 113 99 C113 99.66 113 100.32 113 101 C111.35546875 102.62109375 111.35546875 102.62109375 109.1875 104.4375 C106.17536735 106.97339332 106.17536735 106.97339332 103.36328125 109.72265625 C102 111 102 111 100 111 C100 111.66 100 112.32 100 113 C98.35546875 114.69140625 98.35546875 114.69140625 96.1875 116.5625 C95.47980469 117.18253906 94.77210938 117.80257812 94.04296875 118.44140625 C92 120 92 120 89 121 C88.31879597 122.32596504 87.65399443 123.66040547 87 125 C85.23046875 126.74609375 85.23046875 126.74609375 83.1875 128.4375 C79.9595887 131.16564361 76.94106875 133.96702285 74 137 C71.83714948 135.9958194 70.03136246 135.02595514 68.1875 133.5 C64.42853954 130.92242711 60.74070151 129.92880064 56.23046875 130.11328125 C52.81428969 130.19660269 50.26739547 130.04606666 47 129 C43.43253484 125.57949008 40.79015847 121.8075239 38.10644531 117.67724609 C36.53790926 115.29952264 34.81345858 113.05797617 33.0625 110.8125 C32.53785156 110.11769531 32.01320313 109.42289062 31.47265625 108.70703125 C29.92010725 106.75342192 29.92010725 106.75342192 27 105 C27.72703125 104.01773438 27.72703125 104.01773438 28.46875 103.015625 C33.52122004 96.13649271 38.31778693 89.13539385 43 82 C46 83 46 83 47.5625 84.8125 C53.52633687 90.16466129 60.70667776 91.60071512 68.54296875 91.25 C75.43086949 90.54916431 81.6067863 87.26562121 87 83 C90.83442032 78.24747904 93.73629265 73.19712278 94 67 C94.04898438 66.32453125 94.09796875 65.6490625 94.1484375 64.953125 C94.49524917 57.216557 92.7952185 50.85651877 87.9375 44.75 C83.08466456 39.56605425 75.80098193 35.48728768 68.65234375 34.76171875 C60.4377205 34.53714632 53.63588849 36.01049168 47.1875 41.3125 C45 43 45 43 42.83984375 42.89453125 C38.92588833 41.66166221 35.79936984 39.60244742 32.375 37.375 C31.31430298 36.69884644 31.31430298 36.69884644 30.23217773 36.0090332 C28.14993813 34.68005979 26.07417806 33.34151075 24 32 C18.12980764 28.22372619 12.28293708 24.53222303 6.1484375 21.19921875 C2.68330407 19.26504427 -0.65885865 17.13942293 -4 15 C-3.01 14.67 -2.02 14.34 -1 14 C-0.67 9.38 -0.34 4.76 0 0 Z " fill="#7F4884" transform="translate(397,339)"/>
<path d="M0 0 C4.9575275 0.42365677 8.95239463 2.18289011 13.3125 4.4375 C14.01125244 4.79312012 14.71000488 5.14874023 15.42993164 5.51513672 C21.08333162 8.43428264 26.56610285 11.60760453 32.02441406 14.8737793 C39.34871037 19.24823898 46.80141068 23.38247497 54.25830078 27.52563477 C59.71460485 30.5676048 65.13906102 33.65092454 70.515625 36.83203125 C71.57257568 37.4569043 72.62952637 38.08177734 73.71850586 38.72558594 C75.71039057 39.90817416 77.69851132 41.09713731 79.68188477 42.29394531 C84.32883074 45.0525968 88.89974512 47.45063611 93.921875 49.45703125 C100.47037761 52.08119869 106.3961591 55.50400703 112.4375 59.125 C113.48615234 59.74503906 114.53480469 60.36507812 115.61523438 61.00390625 C118.41501595 62.66131991 121.20921995 64.32748596 124 66 C124.90758057 66.51546387 125.81516113 67.03092773 126.75024414 67.56201172 C129.22596244 69.1444296 129.97235064 70.2907426 131 73 C121.08364 87.01168789 112.43433382 96.31358966 96.625 103.4375 C95.83955811 103.79199219 95.05411621 104.14648438 94.24487305 104.51171875 C93.49633057 104.8365625 92.74778809 105.16140625 91.9765625 105.49609375 C91.30705566 105.78669678 90.63754883 106.0772998 89.94775391 106.37670898 C88 107 88 107 84 107 C84 109.97 84 112.94 84 116 C83.34 116 82.68 116 82 116 C81.68417969 115.18660156 81.36835937 114.37320313 81.04296875 113.53515625 C79.30308262 110.82648376 79.30308262 110.82648376 76.86181641 110.55810547 C74.00577078 110.42255891 71.17164425 110.41054849 68.3125 110.4375 C56.60462156 110.25235898 45.12995998 109.45109328 35 103 C33.948125 102.5875 32.89625 102.175 31.8125 101.75 C26.71734966 99.64936784 22.41106144 96.25103355 18 93 C16.86111328 92.24203125 16.86111328 92.24203125 15.69921875 91.46875 C15.13847656 90.9840625 14.57773437 90.499375 14 90 C14 89.01 14 88.02 14 87 C12.02 86.67 10.04 86.34 8 86 C8 85.34 8 84.68 8 84 C6.02 84.495 6.02 84.495 4 85 C4.25136719 84.1646875 4.50273437 83.329375 4.76171875 82.46875 C5.0787298 77.85390063 3.20426576 75.24333516 0.8125 71.5 C-9.19447644 54.50844407 -11.29668335 34.38647172 -6.70703125 15.06030273 C-3.50014658 3.50014658 -3.50014658 3.50014658 0 0 Z " fill="#462948" transform="translate(484,132)"/>
<path d="M0 0 C3.63632623 1.37448867 6.97064121 3.00434858 10.359375 4.90625 C11.38514648 5.48076904 12.41091797 6.05528809 13.46777344 6.6472168 C14.5509082 7.25863525 15.63404297 7.87005371 16.75 8.5 C17.86149414 9.12495361 18.97298828 9.74990723 20.11816406 10.39379883 C29.14569172 15.48432861 38.10312534 20.68484836 47 26 C47.87800766 26.38268539 48.75601532 26.76537079 49.66062927 27.15965271 C52 29 52 29 52.68202209 32.2926178 C52.73307669 33.67231285 52.75635819 35.05319959 52.75805664 36.43383789 C52.78806511 37.56619873 52.78806511 37.56619873 52.81867981 38.72143555 C52.87645448 41.2221876 52.89588575 43.7212998 52.91015625 46.22265625 C52.93130862 47.96561728 52.95291662 49.70857284 52.97496033 51.45152283 C53.01396163 55.11095673 53.03118333 58.76981434 53.03637695 62.42944336 C53.04700871 67.09951739 53.13578389 71.7644843 53.24463749 76.43315983 C53.31560225 80.03751845 53.33174675 83.64066949 53.33321953 87.2456646 C53.34276069 88.96530799 53.37187246 90.68496621 53.42158699 92.40391731 C53.79618483 106.51905604 53.79618483 106.51905604 49.37896729 111.23414612 C46.48182695 113.84432587 43.30201121 115.9296471 40 118 C38.64417657 119.05033245 37.29842486 120.11426626 35.9765625 121.20703125 C34.86088658 122.07746178 33.74377199 122.94605248 32.625 123.8125 C31.49148846 124.69311136 30.35866966 125.57461516 29.2265625 126.45703125 C28.6912793 126.87307617 28.15599609 127.28912109 27.60449219 127.71777344 C25.94565081 129.04343304 24.34660814 130.425647 22.7421875 131.81640625 C20 134 20 134 17.5 134.125 C13.62078262 132.37935218 9.944942 129.88988401 8 126 C2.99650794 124.22806269 -1.61426144 123.65764984 -6.9375 123.375 C-7.62134766 123.33632813 -8.30519531 123.29765625 -9.00976562 123.2578125 C-10.67279513 123.16477588 -12.33635847 123.08136213 -14 123 C-18.44665837 112.93400696 -21.94668807 102.61302449 -25.4375 92.1875 C-28.92539148 81.77100082 -32.48697756 71.4517011 -36.69848633 61.30249023 C-38.44286599 56.87626181 -39.81598154 52.37122153 -41.140625 47.8046875 C-41.95460184 44.98955269 -41.95460184 44.98955269 -43.109375 42.3203125 C-44 40 -44 40 -44 37 C-42.865625 36.55269531 -41.73125 36.10539062 -40.5625 35.64453125 C-29.30227819 31.23728049 -29.30227819 31.23728049 -19 25 C-18.30132813 24.5359375 -17.60265625 24.071875 -16.8828125 23.59375 C-9.74100639 18.5524751 -1.81548842 10.44646526 1 2 C0.505 1.01 0.505 1.01 0 0 Z " fill="#7F4883" transform="translate(613,202)"/>
<path d="M0 0 C8.74014551 0.89387852 19.14002868 9.67012012 26.33447266 14.36572266 C32.24314612 18.20288091 38.28488054 21.80758129 44.33447266 25.41699219 C49.91071711 28.74442849 55.46512913 32.10421559 61 35.5 C67.31175192 39.36988767 73.64716019 43.1979494 80 47 C88.61061495 52.15459178 97.18256791 57.36963953 105.73828125 62.61474609 C108.10534439 64.06452116 110.47428572 65.51118415 112.84375 66.95703125 C113.64409668 67.44550537 114.44444336 67.93397949 115.26904297 68.43725586 C116.78354155 69.36149235 118.29817849 70.28550217 119.81298828 71.20922852 C124.56145352 74.10873872 129.28757426 77.04228495 134 80 C133.67 80.928125 133.34 81.85625 133 82.8125 C131.41864171 88.37529228 131.15481637 94.75834634 132.6171875 100.3671875 C133.48108145 103.88193413 133.75238465 106.48547004 132.09667969 109.81835938 C129.50181989 114.1029445 126.51872061 118.09685394 123.47460938 122.06982422 C121.36011184 124.83757546 119.34280505 127.66998847 117.3125 130.5 C116.21056246 132.00163833 115.1073653 133.50235982 114 135 C110.188025 133.72934167 109.50504161 132.21633051 107.25 128.9375 C104.30209239 124.76532475 101.25332306 120.88296205 97.84375 117.0859375 C92.0881334 110.57428652 86.73460726 103.69658922 81.328125 96.89453125 C79.43778815 94.54429702 77.52980631 92.21225754 75.609375 89.88671875 C75.01479492 89.16379639 74.42021484 88.44087402 73.80761719 87.69604492 C72.61431511 86.2463215 71.41711922 84.79979333 70.21582031 83.35668945 C69.67022461 82.69241943 69.12462891 82.02814941 68.5625 81.34375 C67.82193359 80.44946289 67.82193359 80.44946289 67.06640625 79.53710938 C66 78 66 78 66 76 C64.329375 76.495 64.329375 76.495 62.625 77 C51.48244871 79.43688126 39.14069868 79.57942056 29 74 C27.66759003 73.3314898 26.33452807 72.66427182 25 72 C24.76796875 72.52078125 24.5359375 73.0415625 24.296875 73.578125 C22.55423351 76.8324555 20.41169915 79.7668871 18.25 82.75 C17.80333984 83.36891113 17.35667969 83.98782227 16.89648438 84.62548828 C16.00736906 85.85525957 15.11677918 87.08396631 14.22460938 88.31152344 C13.16856726 89.76758151 12.12239447 91.23078824 11.078125 92.6953125 C10.29695313 93.77425781 10.29695313 93.77425781 9.5 94.875 C9.0565625 95.49117188 8.613125 96.10734375 8.15625 96.7421875 C7.7746875 97.15726562 7.393125 97.57234375 7 98 C6.34 98 5.68 98 5 98 C4.85965584 97.17339622 4.85965584 97.17339622 4.71647644 96.33009338 C3.72725001 90.50437433 2.73724657 84.67878767 1.74682617 78.85327148 C1.3791208 76.68989271 1.01160228 74.52648217 0.64428711 72.36303711 C-3.77960863 46.17120402 -3.77960863 46.17120402 -8.72460938 20.07421875 C-10.45440632 11.2181927 -10.45440632 11.2181927 -10 8 C-7.25 5.9375 -7.25 5.9375 -4 4 C-3.29875 3.236875 -2.5975 2.47375 -1.875 1.6875 C-1.25625 1.130625 -0.6375 0.57375 0 0 Z " fill="#472949" transform="translate(303,308)"/>
<path d="M0 0 C0 49.83 0 99.66 0 151 C-2.16236997 148.11684004 -3.61084065 145.99597395 -5.0859375 142.83984375 C-5.45662354 142.052146 -5.82730957 141.26444824 -6.20922852 140.45288086 C-6.59393311 139.62280518 -6.9786377 138.79272949 -7.375 137.9375 C-7.77710693 137.07842041 -8.17921387 136.21934082 -8.59350586 135.33422852 C-9.73445598 132.89197228 -10.86879036 130.44678033 -12 128 C-12.46792969 126.989375 -12.93585937 125.97875 -13.41796875 124.9375 C-15.25874095 120.91670067 -17.05523614 116.87752309 -18.83203125 112.828125 C-21.86116449 105.93898112 -24.89664445 99.08383861 -28.3125 92.375 C-31.64596175 85.77800926 -34.85322658 79.12557661 -38 72.4375 C-38.50571533 71.38933105 -39.01143066 70.34116211 -39.5324707 69.26123047 C-39.99613037 68.26623535 -40.45979004 67.27124023 -40.9375 66.24609375 C-41.35902344 65.35591553 -41.78054688 64.4657373 -42.21484375 63.54858398 C-43.13369576 60.56602923 -42.94303977 58.95019789 -42 56 C-40.2578125 53.82421875 -40.2578125 53.82421875 -38.125 51.6875 C-33.31923234 46.42527054 -30.84437261 42.7268664 -31.1484375 35.4453125 C-31.22320313 34.14335937 -31.29796875 32.84140625 -31.375 31.5 C-31.50851856 24.7639886 -31.50851856 24.7639886 -29.359375 21.53515625 C-27.01539591 19.46573415 -24.59899053 17.7365279 -22 16 C-20.36604859 14.6776515 -18.74107389 13.34413838 -17.125 12 C-1.95833333 0 -1.95833333 0 0 0 Z " fill="#7E4983" transform="translate(665,319)"/>
<path d="M0 0 C5.90864239 3.22822891 11.70777232 6.58978784 17.4375 10.125 C18.99605878 11.0820882 20.55465369 12.03911756 22.11328125 12.99609375 C22.90943848 13.48577637 23.7055957 13.97545898 24.52587891 14.47998047 C28.72070177 17.0571432 32.92324907 19.6216543 37.125 22.1875 C38.64847214 23.11843289 40.17191292 24.04941711 41.6953125 24.98046875 C42.78585937 25.64691406 43.87640625 26.31335938 45 27 C44.67386719 28.04542969 44.34773438 29.09085937 44.01171875 30.16796875 C43.14184215 33.46275234 42.75632487 35.947099 42.8125 39.3125 C42.81636719 40.73949219 42.81636719 40.73949219 42.8203125 42.1953125 C42.90789282 44.95363246 42.90789282 44.95363246 43.6171875 47.3671875 C44.49769062 50.9495084 44.75543137 53.51772321 43.03222656 56.89892578 C40.40379523 61.1759173 37.42653973 65.18243366 34.37744141 69.16601562 C32.46910199 71.70686031 30.73263227 74.33695661 29 77 C25.28802425 73.50637577 22.29009981 69.82409789 19.33203125 65.671875 C18.08643118 63.8678526 18.08643118 63.8678526 16 63 C14.25160484 60.34243936 13.00872518 58.02617555 12 55 C10.515 54.505 10.515 54.505 9 54 C7.62699377 52.02702466 6.30029915 50.02163298 5 48 C3.2737252 45.88772586 1.53520862 43.81031352 -0.25 41.75 C-4.95259331 36.25916999 -9.54996605 30.69898216 -14 25 C-14.5878125 24.31035156 -15.175625 23.62070312 -15.78125 22.91015625 C-16.1834375 22.27980469 -16.585625 21.64945312 -17 21 C-15.81427674 17.44283021 -14.81144761 16.92733575 -11.8125 14.8125 C-6.52464138 10.84028085 -2.12188202 6.36564605 0 0 Z " fill="#804984" transform="translate(392,361)"/>
<path d="M0 0 C1.32 0.33 2.64 0.66 4 1 C3.51895426 5.67301572 1.39255369 8.48038545 -1.5 12 C-6.65292207 18.46510438 -11.36279688 25.15620506 -16 32 C-15.525625 32.7425 -15.05125 33.485 -14.5625 34.25 C-11.5194781 39.60571855 -11.48629154 44.94758037 -12 51 C-13.62764921 56.22561064 -15.82004984 59.4631191 -20 63 C-20.66 63 -21.32 63 -22 63 C-22 63.66 -22 64.32 -22 65 C-30.16237828 67.2911939 -36.18803005 68.1190387 -44 64 C-49.27303962 60.65364794 -51.07730841 57.67549668 -52.59765625 51.62109375 C-53.6539524 44.73978582 -52.0093522 39.14954581 -49 33 C-48.34 33 -47.68 33 -47 33 C-47 32.34 -47 31.68 -47 31 C-40.69285104 26.73429539 -35.63536537 24.82720788 -28 26 C-25.17960211 26.80452193 -22.69139496 27.80382446 -20 29 C-19.7421875 28.26652344 -19.484375 27.53304687 -19.21875 26.77734375 C-17.9516137 23.88973507 -16.53045911 21.96326825 -14.5 19.5625 C-9.32840264 13.27862894 -4.67834209 6.653216 0 0 Z " fill="#48284A" transform="translate(243,487)"/>
<path d="M0 0 C3.87805318 0.38605054 6.96773762 2.60027793 10.25 4.5625 C11.32765625 5.20316406 12.4053125 5.84382813 13.515625 6.50390625 C14.33546875 6.99761719 15.1553125 7.49132812 16 8 C15.04287109 8.18369141 15.04287109 8.18369141 14.06640625 8.37109375 C13.38449219 8.57863281 12.70257813 8.78617187 12 9 C10.81971716 11.15097933 10.81971716 11.15097933 10 14 C9.48349571 15.35582375 8.96238942 16.70990035 8.4375 18.0625 C3.69385463 30.47462907 5.23853289 42.02546335 10.39453125 53.890625 C11.8615942 56.95146819 11.8615942 56.95146819 13.69921875 59.234375 C15 61 15 61 15 64 C15.61875 64.2475 16.2375 64.495 16.875 64.75 C19.37480203 66.22047178 19.83316022 67.41403076 21 70 C20.58113525 70.55985596 20.16227051 71.11971191 19.73071289 71.6965332 C17.83721094 74.23215872 15.94980055 76.77225582 14.0625 79.3125 C13.40314453 80.19357422 12.74378906 81.07464844 12.06445312 81.98242188 C11.43603516 82.82998047 10.80761719 83.67753906 10.16015625 84.55078125 C9.28822632 85.72120972 9.28822632 85.72120972 8.39868164 86.9152832 C5.91514148 90.61696751 5.90351595 93.65821762 6 98 C5.67 98 5.34 98 5 98 C4.85965584 97.17339622 4.85965584 97.17339622 4.71647644 96.33009338 C3.72725001 90.50437433 2.73724657 84.67878767 1.74682617 78.85327148 C1.3791208 76.68989271 1.01160228 74.52648217 0.64428711 72.36303711 C-3.77960863 46.17120402 -3.77960863 46.17120402 -8.72460938 20.07421875 C-10.45440632 11.2181927 -10.45440632 11.2181927 -10 8 C-7.25 5.9375 -7.25 5.9375 -4 4 C-3.29875 3.236875 -2.5975 2.47375 -1.875 1.6875 C-1.25625 1.130625 -0.6375 0.57375 0 0 Z " fill="#804A83" transform="translate(303,308)"/>
<path d="M0 0 C0.33 0 0.66 0 1 0 C2.47585219 7.11926625 2.47585219 7.11926625 0.40234375 10.95703125 C-0.41105469 11.89933594 -1.22445312 12.84164063 -2.0625 13.8125 C-2.99890242 14.93907761 -3.93232251 16.06813854 -4.86328125 17.19921875 C-5.37068848 17.80556152 -5.8780957 18.4119043 -6.40087891 19.03662109 C-9.32499077 22.62680546 -12.02261657 26.38461021 -14.75 30.125 C-15.95015368 31.75938425 -17.1506792 33.39349552 -18.3515625 35.02734375 C-18.95387695 35.84831543 -19.55619141 36.66928711 -20.17675781 37.51513672 C-23.15584783 41.57528377 -26.13943404 45.63211314 -29.125 49.6875 C-29.69718262 50.46472412 -30.26936523 51.24194824 -30.85888672 52.04272461 C-36.5257998 59.7303163 -42.2545656 67.37098913 -48 75 C-49.32 74.67 -50.64 74.34 -52 74 C-52 70.57077803 -51.48822215 69.93510591 -49.5078125 67.26171875 C-48.97236816 66.53073975 -48.43692383 65.79976074 -47.88525391 65.04663086 C-47.30437012 64.26811768 -46.72348633 63.48960449 -46.125 62.6875 C-44.92667049 61.05759511 -43.72875827 59.42738335 -42.53125 57.796875 C-41.933125 56.98669922 -41.335 56.17652344 -40.71875 55.34179688 C-38.3155436 52.06742816 -35.97008328 48.75358351 -33.625 45.4375 C-30.4857682 41.02115615 -27.25141698 36.70232222 -23.89453125 32.44921875 C-21.45702365 29.29804914 -19.10203189 26.0902493 -16.75 22.875 C-16.28811279 22.24400391 -15.82622559 21.61300781 -15.3503418 20.96289062 C-12.85340964 17.54725564 -10.3653602 14.12532066 -7.8828125 10.69921875 C-7.37911133 10.00650879 -6.87541016 9.31379883 -6.35644531 8.60009766 C-5.38164803 7.25934977 -4.40956396 5.91662432 -3.44042969 4.57177734 C-2.31801133 3.02979818 -1.16244345 1.51203438 0 0 Z " fill="#4B284D" transform="translate(301,408)"/>
<path d="M0 0 C1.32 0.66 2.64 1.32 4 2 C3.8359375 4.26171875 3.8359375 4.26171875 3 7 C0.6640625 8.95703125 0.6640625 8.95703125 -2.375 10.8125 C-7.71628065 14.16677314 -12.78447579 17.73612668 -17.8203125 21.53125 C-20 23 -20 23 -22 23 C-22.33 23.66 -22.66 24.32 -23 25 C-23.94570936 22.44658473 -24.06035686 21.20279742 -23.27294922 18.55712891 C-21.84428692 15.68720008 -20.61876096 14.58885803 -18.0078125 12.7734375 C-17.22019531 12.2165625 -16.43257812 11.6596875 -15.62109375 11.0859375 C-14.79738281 10.52132813 -13.97367188 9.95671875 -13.125 9.375 C-11.50258676 8.23700398 -9.88019036 7.09898396 -8.2578125 5.9609375 C-7.17717529 5.21529541 -7.17717529 5.21529541 -6.07470703 4.45458984 C-4.01617108 3.01133765 -2.00304565 1.51906559 0 0 Z " fill="#F8F2F8" transform="translate(208,340)"/>
<path d="M0 0 C3.78518732 1.4160506 7.19749321 3.15421065 10.69921875 5.16796875 C11.81264648 5.80621582 12.92607422 6.44446289 14.07324219 7.10205078 C15.27804914 7.79710633 16.48280029 8.4922586 17.6875 9.1875 C18.94288672 9.90894749 20.19842292 10.63013494 21.45410156 11.35107422 C24.68120292 13.2050294 27.90596414 15.06301465 31.13006592 16.92218018 C32.90920925 17.94766871 34.68904049 18.97194872 36.46923828 19.99560547 C48.33255673 26.81731929 60.17654238 33.67192285 72 40.5625 C72.96067383 41.12211426 73.92134766 41.68172852 74.91113281 42.25830078 C80.96815336 45.79387081 86.99448873 49.37764105 93 53 C92.01 53.495 92.01 53.495 91 54 C88.67529297 52.95874023 88.67529297 52.95874023 85.7421875 51.30859375 C84.65349365 50.70039795 83.5647998 50.09220215 82.44311523 49.46557617 C81.2535853 48.78982917 80.06421757 48.11379657 78.875 47.4375 C77.65270171 46.74991501 76.4301235 46.06282739 75.20727539 45.3762207 C66.23409567 40.32416469 57.33259397 35.14961384 48.453125 29.93481445 C41.74739445 26.00013504 34.99633932 22.16303297 28.18164062 18.42041016 C24.79459514 16.55940471 21.42651183 14.67840444 18.09765625 12.71484375 C11.86143175 9.04138411 6.00548941 5.9325488 -1 4 C-0.67 2.68 -0.34 1.36 0 0 Z " fill="#6B526D" transform="translate(485,128)"/>
<path d="M0 0 C0.66 0 1.32 0 2 0 C2.04637854 10.32706102 2.08189728 20.65409719 2.10362434 30.98124123 C2.11405321 35.77675688 2.12819609 40.57220119 2.15087891 45.36767578 C2.17263919 49.99718297 2.18457538 54.6266216 2.18975449 59.25617599 C2.19344451 61.02077692 2.20065022 62.78537416 2.21146011 64.54994583 C2.22601736 67.02507838 2.22797617 69.49992906 2.22705078 71.97509766 C2.23783661 73.0648288 2.23783661 73.0648288 2.24884033 74.17657471 C2.23142057 78.49380334 1.5839923 81.98551635 0 86 C-0.33 86 -0.66 86 -1 86 C-0.67 57.62 -0.34 29.24 0 0 Z " fill="#1D2219" transform="translate(666,232)"/>
<path d="M0 0 C-0.6875 2.4375 -0.6875 2.4375 -2 5 C-4.4375 5.75 -4.4375 5.75 -7 6 C-7.99 6.33 -8.98 6.66 -10 7 C-9.67 7.99 -9.34 8.98 -9 10 C-11.31 10 -13.62 10 -16 10 C-16 10.66 -16 11.32 -16 12 C-17.65 12 -19.3 12 -21 12 C-17.32988259 9.09213774 -13.38139357 6.71863867 -9.375 4.3125 C-8.694375 3.89677734 -8.01375 3.48105469 -7.3125 3.05273438 C-2.23964748 0 -2.23964748 0 0 0 Z " fill="#725575" transform="translate(170,192)"/>
<path d="M0 0 C0 3 0 3 -1.26928711 4.50219727 C-1.8494458 5.01838623 -2.42960449 5.5345752 -3.02734375 6.06640625 C-3.96803711 6.9181543 -3.96803711 6.9181543 -4.92773438 7.78710938 C-5.59095703 8.37298828 -6.25417969 8.95886719 -6.9375 9.5625 C-8.24052638 10.72796348 -9.541415 11.89582279 -10.83984375 13.06640625 C-11.42113037 13.58146729 -12.00241699 14.09652832 -12.60131836 14.62719727 C-14.11989579 15.96889825 -14.11989579 15.96889825 -15 18 C-15.66 18 -16.32 18 -17 18 C-17 18.66 -17 19.32 -17 20 C-18.32 19.67 -19.64 19.34 -21 19 C-18.90114686 17.01492207 -16.79636118 15.03689607 -14.6875 13.0625 C-13.79514648 12.21655273 -13.79514648 12.21655273 -12.88476562 11.35351562 C-12.01948242 10.54624023 -12.01948242 10.54624023 -11.13671875 9.72265625 C-10.60780029 9.22515869 -10.07888184 8.72766113 -9.53393555 8.21508789 C-8 7 -8 7 -5 6 C-5 5.34 -5 4.68 -5 4 C-3.37373596 2.61767557 -1.7074998 1.28062485 0 0 Z " fill="#542B57" transform="translate(569,384)"/>
<path d="M0 0 C7.26 0 14.52 0 22 0 C22 0.66 22 1.32 22 2 C25.96 2.33 29.92 2.66 34 3 C34 3.33 34 3.66 34 4 C26.71079063 4.12567602 26.71079063 4.12567602 23.3046875 3.5234375 C18.32186831 2.73419664 13.31864558 2.64581841 8.28125 2.48242188 C2.21632846 2.21632846 2.21632846 2.21632846 0 0 Z " fill="#643969" transform="translate(486,340)"/>
<path d="M0 0 C2.31 0 4.62 0 7 0 C4.40533198 2.05411219 1.69670039 3.92577727 -1.0625 5.75 C-1.73410156 6.19859375 -2.40570313 6.6471875 -3.09765625 7.109375 C-5 8 -5 8 -8 7 C-7.34 6.67 -6.68 6.34 -6 6 C-6 5.34 -6 4.68 -6 4 C-3 2 -3 2 0 2 C0 1.34 0 0.68 0 0 Z " fill="#765078" transform="translate(400,706)"/>
<path d="M0 0 C0.66 0.66 1.32 1.32 2 2 C1.34 2 0.68 2 0 2 C0 2.66 0 3.32 0 4 C-0.66 4 -1.32 4 -2 4 C-2 4.66 -2 5.32 -2 6 C-3.98 6 -5.96 6 -8 6 C-8 6.66 -8 7.32 -8 8 C-9.75 9.0625 -9.75 9.0625 -12 10 C-13.32 9.67 -14.64 9.34 -16 9 C-10.72 6.03 -5.44 3.06 0 0 Z " fill="#725376" transform="translate(120,220)"/>
<path d="M0 0 C1.98 0 3.96 0 6 0 C6 0.66 6 1.32 6 2 C6.66 2 7.32 2 8 2 C8 2.66 8 3.32 8 4 C9.32 4 10.64 4 12 4 C12 4.66 12 5.32 12 6 C12.99 6 13.98 6 15 6 C15 6.66 15 7.32 15 8 C15.99 8.33 16.98 8.66 18 9 C17.01 9.495 17.01 9.495 16 10 C14.30419922 9.28735352 14.30419922 9.28735352 12.3046875 8.12890625 C11.23154297 7.51499023 11.23154297 7.51499023 10.13671875 6.88867188 C9.39035156 6.45103516 8.64398438 6.01339844 7.875 5.5625 C6.74384766 4.9118457 6.74384766 4.9118457 5.58984375 4.24804688 C3.72242866 3.17251034 1.86067303 2.08715861 0 1 C0 0.67 0 0.34 0 0 Z " fill="#725375" transform="translate(300,672)"/>
<path d="M0 0 C0.66 0.33 1.32 0.66 2 1 C0.01929563 3.35043586 -1.98581322 5.67822804 -4 8 C-4.70125 8.825 -5.4025 9.65 -6.125 10.5 C-6.74375 10.995 -7.3625 11.49 -8 12 C-9.32 11.67 -10.64 11.34 -12 11 C-8.04 7.37 -4.08 3.74 0 0 Z " fill="#754579" transform="translate(588,376)"/>
<path d="M0 0 C1.65 0 3.3 0 5 0 C3.68 0.33 2.36 0.66 1 1 C1 6.28 1 11.56 1 17 C-1.475 16.01 -1.475 16.01 -4 15 C-3.01 14.67 -2.02 14.34 -1 14 C-0.67 9.38 -0.34 4.76 0 0 Z " fill="#754B78" transform="translate(397,339)"/>
<path d="M0 0 C1.2077558 3.62326739 0.54311128 4.64146369 -1 8 C-1.66 8 -2.32 8 -3 8 C-4.38938077 9.96147874 -5.7260411 11.96166576 -7 14 C-7.66 13.67 -8.32 13.34 -9 13 C-6.03 8.71 -3.06 4.42 0 0 Z " fill="#8F6390" transform="translate(412,461)"/>
<path d="M0 0 C0.86625 0.37125 0.86625 0.37125 1.75 0.75 C1.42 1.41 1.09 2.07 0.75 2.75 C0.09 2.42 -0.57 2.09 -1.25 1.75 C-1.4975 2.36875 -1.745 2.9875 -2 3.625 C-3.45628639 6.10068687 -4.62812506 6.70125002 -7.25 7.75 C-6.66524269 3.65669884 -4.62230386 -0.51358932 0 0 Z " fill="#885E89" transform="translate(305.25,308.25)"/>
<path d="M0 0 C0.66 0.33 1.32 0.66 2 1 C-1.18683431 5.33409466 -4.86378916 8.6189962 -9 12 C-9.66 11.67 -10.32 11.34 -11 11 C-9.54782324 9.49403892 -8.08807139 7.99537896 -6.625 6.5 C-5.40683594 5.24703125 -5.40683594 5.24703125 -4.1640625 3.96875 C-2 2 -2 2 0 2 C0 1.34 0 0.68 0 0 Z " fill="#542A58" transform="translate(510,438)"/>
<path d="M0 0 C0.33 0 0.66 0 1 0 C1 3.63 1 7.26 1 11 C-1.81832513 9.59083743 -2.02593461 7.92219617 -3 5 C-3 4.01 -3 3.02 -3 2 C-2.01 2 -1.02 2 0 2 C0 1.34 0 0.68 0 0 Z " fill="#492F4A" transform="translate(664,470)"/>
<path d="M0 0 C0.66 0 1.32 0 2 0 C2 0.66 2 1.32 2 2 C3.98 2 5.96 2 8 2 C8.33 3.65 8.66 5.3 9 7 C5.9168649 5.80100302 2.93720508 4.52299523 0 3 C0 2.01 0 1.02 0 0 Z " fill="#886089" transform="translate(150,326)"/>
<path d="M0 0 C0.66 0.33 1.32 0.66 2 1 C1.34 2.32 0.68 3.64 0 5 C-0.66 5 -1.32 5 -2 5 C-2 5.66 -2 6.32 -2 7 C-3.65 7.33 -5.3 7.66 -7 8 C-6.02133662 6.85373678 -5.04205413 5.70800212 -4.0625 4.5625 C-3.51722656 3.92441406 -2.97195312 3.28632813 -2.41015625 2.62890625 C-1.63204305 1.73008851 -0.84063472 0.84063472 0 0 Z " fill="#8C6391" transform="translate(174,445)"/>
<path d="M0 0 C2.97 1.65 5.94 3.3 9 5 C8.01 5.66 7.02 6.32 6 7 C6 6.34 6 5.68 6 5 C4.02 5 2.04 5 0 5 C0 3.35 0 1.7 0 0 Z " fill="#835985" transform="translate(392,361)"/>
<path d="M0 0 C0.66 0.66 1.32 1.32 2 2 C1.34 2 0.68 2 0 2 C0 2.66 0 3.32 0 4 C-3.13498292 5.85776765 -5.37471432 6.20140476 -9 6 C-6.11964908 3.75972706 -3.15133488 1.83827868 0 0 Z " fill="#715275" transform="translate(210,168)"/>
<path d="M0 0 C0 0.99 0 1.98 0 3 C-0.99 3.33 -1.98 3.66 -3 4 C-3 4.66 -3 5.32 -3 6 C-4.98 6 -6.96 6 -9 6 C-6.11912454 3.59927045 -3.43595166 1.52708963 0 0 Z " fill="#725376" transform="translate(245,148)"/>
<path d="M0 0 C-0.7109375 1.921875 -0.7109375 1.921875 -2 4 C-4.1640625 4.828125 -4.1640625 4.828125 -6.625 5.25 C-7.85089844 5.47429687 -7.85089844 5.47429687 -9.1015625 5.703125 C-9.72804688 5.80109375 -10.35453125 5.8990625 -11 6 C-3.28571429 0 -3.28571429 0 0 0 Z " fill="#735275" transform="translate(354,86)"/>
<path d="M0 0 C1.98 0 3.96 0 6 0 C6 0.66 6 1.32 6 2 C7.32 2.66 8.64 3.32 10 4 C9.67 4.66 9.34 5.32 9 6 C6.03 4.35 3.06 2.7 0 1 C0 0.67 0 0.34 0 0 Z " fill="#6E536F" transform="translate(182,604)"/>
<path d="M0 0 C0 0.66 0 1.32 0 2 C-0.66 2 -1.32 2 -2 2 C-2 2.66 -2 3.32 -2 4 C-5.47307692 6.10865385 -5.47307692 6.10865385 -8.140625 5.55859375 C-9.06101562 5.28208984 -9.06101562 5.28208984 -10 5 C-8.71186658 4.16121545 -7.41936744 3.32913217 -6.125 2.5 C-5.40570313 2.0359375 -4.68640625 1.571875 -3.9453125 1.09375 C-2 0 -2 0 0 0 Z " fill="#725376" transform="translate(132,214)"/>
<path d="M0 0 C0.66 0.33 1.32 0.66 2 1 C0.88200014 2.33920838 -0.24461897 3.67122556 -1.375 5 C-2.00148438 5.7425 -2.62796875 6.485 -3.2734375 7.25 C-4.12808594 8.11625 -4.12808594 8.11625 -5 9 C-5.66 9 -6.32 9 -7 9 C-5.64978174 4.58110387 -3.73884332 2.65654657 0 0 Z " fill="#E7D4E7" transform="translate(412,192)"/>
<path d="M0 0 C-0.6875 2.4375 -0.6875 2.4375 -2 5 C-4.5 5.75 -4.5 5.75 -7 6 C-7.99 6.495 -7.99 6.495 -9 7 C-7.4576387 2.93377477 -4.5679954 0 0 0 Z " fill="#785D7A" transform="translate(170,192)"/>
<path d="M0 0 C1.98 0 3.96 0 6 0 C2.87567603 2.52349243 -0.38060496 4.27256146 -4 6 C-4 5.34 -4 4.68 -4 4 C-3.34 4 -2.68 4 -2 4 C-2 3.34 -2 2.68 -2 2 C-1.34 2 -0.68 2 0 2 C0 1.34 0 0.68 0 0 Z " fill="#735275" transform="translate(460,672)"/>
<path d="M0 0 C0.33 0.99 0.66 1.98 1 3 C-0.98 3.99 -2.96 4.98 -5 6 C-5.33 4.68 -5.66 3.36 -6 2 C-2.25 0.875 -2.25 0.875 0 2 C0 1.34 0 0.68 0 0 Z " fill="#866089" transform="translate(256,304)"/>
<path d="M0 0 C0.66 0.33 1.32 0.66 2 1 C1.01 2.485 1.01 2.485 0 4 C-0.99 4 -1.98 4 -3 4 C-3 4.66 -3 5.32 -3 6 C-4.32 5.67 -5.64 5.34 -7 5 C-4.702779 3.25728062 -2.40133271 1.60088848 0 0 Z " fill="#755177" transform="translate(331,98)"/>
<path d="M0 0 C1.5625 1.75 1.5625 1.75 3 4 C2.6875 5.875 2.6875 5.875 2 8 C1.96154557 9.99963028 1.95455719 12.00051633 2 14 C1.67 14 1.34 14 1 14 C-0.20568053 9.32798795 -0.09382426 4.78503708 0 0 Z " fill="#80607F" transform="translate(307,392)"/>
<path d="M0 0 C1.32 0 2.64 0 4 0 C4 0.66 4 1.32 4 2 C5.32 2 6.64 2 8 2 C7.67 3.32 7.34 4.64 7 6 C5.83054208 5.19152271 4.66449539 4.37810888 3.5 3.5625 C2.8503125 3.11003906 2.200625 2.65757812 1.53125 2.19140625 C1.0259375 1.79824219 0.520625 1.40507812 0 1 C0 0.67 0 0.34 0 0 Z " fill="#8B678E" transform="translate(252,258)"/>
<path d="M0 0 C0.66 0.66 1.32 1.32 2 2 C-2.75 6.875 -2.75 6.875 -5 8 C-3.62845496 5.04590299 -2.01136276 2.55991624 0 0 Z " fill="#774A7B" transform="translate(277,450)"/>
<path d="M0 0 C0.66 0 1.32 0 2 0 C0.60667426 3.36720387 -0.9789286 4.9859524 -4 7 C-4.66 6.67 -5.32 6.34 -6 6 C-4.71034824 4.62437146 -3.37310707 3.29233607 -2 2 C-1.34 2 -0.68 2 0 2 C0 1.34 0 0.68 0 0 Z " fill="#6E4371" transform="translate(570,392)"/>
<path d="M0 0 C2.3125 0.1875 2.3125 0.1875 4 1 C1.06171403 3.50298434 -1.17902761 4.46930939 -5 5 C-2.75 2.4375 -2.75 2.4375 0 0 Z " fill="#8B628B" transform="translate(248,319)"/>
<path d="M0 0 C1.134375 0.020625 2.26875 0.04125 3.4375 0.0625 C1.05176621 1.95463369 -0.63425348 3.08641783 -3.5625 4.0625 C-3.8925 3.0725 -4.2225 2.0825 -4.5625 1.0625 C-3.5625 0.0625 -3.5625 0.0625 0 0 Z " fill="#754D7B" transform="translate(566.5625,611.9375)"/>
<path d="M0 0 C0.66 0 1.32 0 2 0 C1.25 2.4375 1.25 2.4375 0 5 C-2.125 5.8125 -2.125 5.8125 -4 6 C-4.33 5.34 -4.66 4.68 -5 4 C-4.01 4 -3.02 4 -2 4 C-2 3.34 -2 2.68 -2 2 C-1.34 2 -0.68 2 0 2 C0 1.34 0 0.68 0 0 Z " fill="#88628C" transform="translate(374,500)"/>
<path d="M0 0 C0.99 0 1.98 0 3 0 C3 1.32 3 2.64 3 4 C1.35 4 -0.3 4 -2 4 C-1.34 2.68 -0.68 1.36 0 0 Z " fill="#835783" transform="translate(177,442)"/>
<path d="M0 0 C0.33 0.99 0.66 1.98 1 3 C-0.32 4.32 -1.64 5.64 -3 7 C-3.33 5.68 -3.66 4.36 -4 3 C-2.68 2.01 -1.36 1.02 0 0 Z " fill="#744676" transform="translate(379,377)"/>
<path d="M0 0 C0.66 0.33 1.32 0.66 2 1 C1.01 2.485 1.01 2.485 0 4 C-3.625 4.1875 -3.625 4.1875 -7 4 C-4.66603411 2.44402274 -2.57343171 1.07918104 0 0 Z " fill="#6F4371" transform="translate(586,232)"/>
<path d="M0 0 C0.33 0 0.66 0 1 0 C1.36923077 7.50769231 1.36923077 7.50769231 -0.5 10 C-0.995 10.33 -1.49 10.66 -2 11 C-2.66 10.67 -3.32 10.34 -4 10 C-3.525625 9.46375 -3.05125 8.9275 -2.5625 8.375 C-0.71813924 5.57157164 -0.37543153 3.30379742 0 0 Z " fill="#8D7290" transform="translate(441,212)"/>
<path d="M0 0 C0.99 0.33 1.98 0.66 3 1 C2.01 1.495 2.01 1.495 1 2 C1 2.66 1 3.32 1 4 C0.01 4.33 -0.98 4.66 -2 5 C-2.99 4.34 -3.98 3.68 -5 3 C-2.6875 1.4375 -2.6875 1.4375 0 0 Z " fill="#784E76" transform="translate(265,136)"/>
</svg>
